/* XPM */
static char *result[] = {
/* columns rows colors chars-per-pixel */
"50 50 78 1 ",
"  c #754E05",
". c #784F05",
"X c #7C5203",
"o c #835601",
"O c #875801",
"+ c #8C5B00",
"@ c #915E04",
"# c #8A5C11",
"$ c #936006",
"% c #966309",
"& c #9A650C",
"* c #9D680F",
"= c #9A6614",
"- c #9E6912",
"; c #9E6C1B",
": c #A36D14",
"> c #A06D1D",
", c #AB7215",
"< c #A4701C",
"1 c #B27616",
"2 c #B67917",
"3 c #B97B17",
"4 c #B77A18",
"5 c #BD7E19",
"6 c #A67425",
"7 c #AD7C2E",
"8 c #B07D2B",
"9 c #B07F31",
"0 c #B38335",
"q c #BC8936",
"w c #B78739",
"e c #B9893C",
"r c #C18524",
"t c #C38828",
"y c #C18B32",
"u c #BE8E42",
"i c #BE9148",
"p c #C29346",
"a c #C59549",
"s c #CD9E53",
"d c #CFA055",
"f c #D6A757",
"g c #D3A55A",
"h c #D6A85E",
"j c #D8AA5F",
"k c #D7AA60",
"l c #DBAD64",
"z c #DFB167",
"x c #DFB46B",
"c c #E2B46B",
"v c #E6B96F",
"b c #E4B970",
"n c #EBBD74",
"m c #E5BF78",
"M c #EDC077",
"N c #E6C17C",
"B c #EFC279",
"V c #F0C47B",
"C c #E9C581",
"Z c #EEC984",
"A c #EECE8B",
"S c #F0C780",
"D c #F1C983",
"F c #F2CF8C",
"G c #F2D08D",
"H c #ECD099",
"J c #F2D493",
"K c #F3D79A",
"L c #F3D89E",
"P c #EAD2A7",
"I c #F3DAA4",
"U c #F3DDAB",
"Y c #F4DFB0",
"T c #F4E0B5",
"R c #F4E3BC",
"E c #F4E5C3",
"W c #F4E7C9",
"Q c #F5E9CD",
/* pixels */
"tZJKIUTEWQQQQQQQQQQQQQQQQQQQQQQQQQQQQQQQQQQQQQQQQQ",
"rfJJJJJJKIUEQQPEQQQQWWRYYUIIIUUYYREWQWWQQQQQQQEERY",
"3rcJJJmAJJJFFJlHYUUIKJKJKGSJJJJJJJJJJKLIUIIILKKJKJ",
"35ybGJGJJFDVVVVSGJJJKJJJJJJJJJJJJFDDDGFJJJJJJJJJJJ",
"553qxBZDVVncccMVnFJJJJJJJJJJKJJJFVVnnxkCJKJJJJJJJG",
"55538fvnvjp08ydcnVDFJGJJJJJJJJJDnVVVVckVJJJJJJJGVV",
"55r54<wp0>-:,:&8lnnSDCJJJJJJJJBVnSVSnSnnDJJJJmmDVV",
"5533r5:=:135333,>avnnDGJJJJJGBcVVVnnnnSnVSJJJFDVVV",
"55555555555555551:9knVVDJJJFBVBBnzkaslxnVVVFFDVVVn",
"5r5555555555555553:>acnVBBVVBBvla8====9scnVVVVVnvz",
"55555555555555555551:7dzbbnvlge6::3541::7sznnncgp8",
"55555555555155r555553:;8eau76=:,35555553:;7aap7;:,",
"55555555555555555555553,;:;:,4555555555552,-*#-135",
"55535555555555555555555533555555555555555533353553",
"555:,555555555555555555555555555555555555555555555",
"555,1555555555555355555552155555553115551555555555",
"555555555555355551::35555315555554::::5525553,3555",
"21355555553,::355,::1555555334555,::::,555551:3353",
"::::355551::::,35,::35555554::15,::::::43r555331::",
":::::434,::::,::454455555554::,4::,1:::,3555r32:::",
":::,:::::::::::::45555511353,,1::::::::::13553:,::",
"::::::,:::::::@:::,434::::1554,:::::::::::::,,:4::",
"::::::44:::::@+-::::::51::::,::::%%:::::::::-:::::",
"::::::::::::::@:::::::4,::::::::%++%::-:::::::::::",
"::@@:::::::::::::::::::::::&::::%++&:+@:::::-&::::",
"::@+:::::::::::::::::::::::+@::::&&::@+::::::&::::",
":::::::;::::::::::::::::::::::::::::::::::::::::::",
":::::@++@:::@@+&:::&@&::::::::::::::::::::&+@:::::",
":::::++++::&+@++=:&+++::::::=@@:::::&&-:::++@::::<",
"@@::-++O+::@@@+++--+++-:::::+++&:::&+++@:::@:::&&@",
"@+@::@++@:&+::+++@:@+&:::::-+++@::&+O+++@::::-@+++",
"@+@@::&::@+@@@++++&::::::-::@+@::@+++@=%+@@@@+++++",
"++++@:@@@+++++++O++&::::@++&::::@++++&::@O++++@+++",
"+-:+++@++++O++++++++@:&@+@@+@@@++++++@:-@+O++&:@++",
"@@@++++++++++++++++++++++@@@++++++@@++++++++++@+++",
"+++++++++++++++++++@++++++++++++++-@+++++++++++O++",
"+++++++::++++++++++@@+++++O.O++++++O++++++++O+++++",
"++++++@@:++++++++++@@+++++..o++++++++++++O+o.o++++",
"++++++++++++++++++++++++++Oo++++O..++++++++. o++++",
"++++++++O++++++o..o++++++O++++O+o .o+++++++OO+++++",
"++++++++++++++o    O++++++++++++o .o++++++++++++++",
"++..O+++++++++.    .++++++++++++OOO++++++++++O++++",
"+o. .+++++++++..   o+++++++++++++++++++++++++Oo+++",
"+O..O+++++++++o    O+++++++++++++++++++++++@+ooO++",
"+++++++++++++++OooO++++++++++++++++++++++O+++++@++",
"++++++++++O+++++++O++++++++++O++++++++++++++++++++",
"++++++++++++++++++++++++++++++++++++++++++++++++++",
"+++++++++++++++++++++++++++++++++++O++++++++++++++",
"++++++++++++++++++++++++++++++++++++++++++++++++++",
"++++++++++++++++++++++++++++++++++++++++++++++++++"
};
