/* XPM */
static char *result[] = {
/* columns rows colors chars-per-pixel */
"84 50 152 2 ",
"   c #8C5B01",
".  c #8F5F08",
"X  c #915F04",
"o  c #926005",
"O  c #956309",
"+  c #99650C",
"@  c #9D690F",
"#  c #9E6A12",
"$  c #95661A",
"%  c #9A6B1A",
"&  c #A36D14",
"*  c #AA6F14",
"=  c #A36E1B",
"-  c #A77013",
";  c #AB7215",
":  c #A6721C",
">  c #AB7319",
",  c #B17616",
"<  c #B67917",
"1  c #BC7D17",
"2  c #B57918",
"3  c #BD7E18",
"4  c #9D6F20",
"5  c #9F7423",
"6  c #A47423",
"7  c #A97522",
"8  c #AA7826",
"9  c #A67A2A",
"0  c #AC7B2C",
"q  c #A37C31",
"w  c #AC7F30",
"e  c #BF811D",
"r  c #AA802D",
"t  c #B6832B",
"y  c #AE8135",
"u  c #AE853A",
"i  c #B38234",
"p  c #BC8630",
"a  c #B6863A",
"s  c #B88639",
"d  c #BB8B3E",
"f  c #C18525",
"g  c #C08628",
"h  c #C48B2D",
"j  c #C68E34",
"k  c #C69037",
"l  c #C9963C",
"z  c #B58A41",
"x  c #B98D44",
"c  c #BB8E48",
"v  c #BD964F",
"b  c #BF984F",
"n  c #BC9755",
"m  c #BE9851",
"M  c #BCA672",
"N  c #BFA874",
"B  c #C08F42",
"V  c #C09143",
"C  c #C79946",
"Z  c #C4964A",
"A  c #CC9D4E",
"S  c #D19F4E",
"D  c #C09751",
"F  c #C49D56",
"G  c #CC9E53",
"H  c #C49D5B",
"J  c #CEA257",
"K  c #C7A05D",
"L  c #CDA65C",
"P  c #D1A257",
"I  c #D2A359",
"U  c #D7AC5F",
"Y  c #D8AA5F",
"T  c #CEAB66",
"R  c #C2A368",
"E  c #CAA56D",
"W  c #CEAA6B",
"Q  c #D2AD64",
"!  c #DBAC61",
"~  c #D4AF69",
"^  c #D9AF69",
"/  c #DEB166",
"(  c #D4B36D",
")  c #DAB16B",
"_  c #C4AC76",
"`  c #CCAB74",
"'  c #C4AF7F",
"]  c #D0AF78",
"[  c #C7B079",
"{  c #CDB47C",
"}  c #D1B173",
"|  c #DCB571",
" . c #D2B27B",
".. c #D3BA7D",
"X. c #DEBD7D",
"o. c #E1B46B",
"O. c #E5B86F",
"+. c #E6BA70",
"@. c #E7BF7F",
"#. c #D7B680",
"$. c #D6BC81",
"%. c #D9BF82",
"&. c #D7BB8A",
"*. c #DCC184",
"=. c #DEC58B",
"-. c #D4C094",
";. c #DDC496",
":. c #D5C39B",
">. c #DEC79B",
",. c #E1C586",
"<. c #E7C887",
"1. c #E3C68A",
"2. c #E5C98A",
"3. c #EACD8D",
"4. c #EDD08F",
"5. c #F0D28F",
"6. c #E2C691",
"7. c #E5CB96",
"8. c #EBCB93",
"9. c #E5CC9B",
"0. c #EED191",
"q. c #E7D09B",
"w. c #ECD39D",
"e. c #F3D593",
"r. c #F3D699",
"t. c #F4D99D",
"y. c #DCC9A4",
"u. c #E4CEA3",
"i. c #E7D1A0",
"p. c #EBD3A3",
"a. c #EAD5AC",
"s. c #EDD8AD",
"d. c #F0D5A4",
"f. c #F4DAA4",
"g. c #F4DDAC",
"h. c #ECD7B3",
"j. c #EDDAB4",
"k. c #EEDBBB",
"l. c #F6DFB3",
"z. c #F2DEBB",
"x. c #F7E0B4",
"c. c #F3E1BD",
"v. c #F9E4BC",
"b. c #EEDEC0",
"n. c #F5E3C3",
"m. c #F9E6C3",
"M. c #F9E8C7",
"N. c #F6E6CA",
"B. c #F8E7C8",
"V. c #F7E9CC",
"C. c #F9E9CC",
"Z. c #FAECD3",
/* pixels */
"3 1 e 1 1 1 e 1 e 1 e 1 1 3 1 e 1 1 1 1 1 1 3 3 3 3 3 3 3 3 3 1 < * = z E u.n.n.N.b.z.8.,./ ! ! I P B w 0 = & * * , < 2 3 < , > * & = 8 w Z I / o.O.+.+.O.^ ! P Z B 0 0 ",
"3 e e 1 1 e 1 1 e 1 1 e 1 3 1 1 1 1 1 , 1 1 1 1 3 3 3 3 3 3 3 3 2 g #.h.C.Z.Z.Z.Z.Z.Z.V.n.9.H B w w 0 7 > * > , 2 2 3 3 3 3 1 1 < , ; > 7 0 w B A P I P G Z z w 0 7 7 : ",
"1 e 1 1 e 1 1 1 1 3 3 3 e 1 1 e 1 1 1 , 1 1 1 1 1 3 3 3 3 1 1 f | z.Z.Z.Z.Z.Z.Z.Z.Z.Z.Z.C.Z.n.] 0 * * * * < 3 1 3 3 3 3 3 3 3 3 1 3 < < ; = : 8 w s w d w 0 7 = * * * > ",
"e 1 e 1 1 1 e 1 1 3 3 1 1 1 e 1 1 1 1 1 1 1 1 1 e e 3 3 3 3 f *.C.Z.Z.Z.Z.Z.Z.Z.Z.Z.Z.Z.Z.Z.Z.C.#.0 < < < 1 1 1 3 3 3 3 3 3 3 3 1 1 1 1 1 , , : = = = = $ $ = * , < 2 < ",
"1 e e 1 1 1 1 1 1 1 e 1 e e 1 1 1 1 1 1 1 e 1 e 1 e e 1 1 h 7.N.Z.Z.Z.Z.Z.Z.Z.Z.Z.Z.Z.Z.Z.Z.Z.Z.Z.a.k 3 3 3 3 3 3 3 3 3 3 3 3 3 1 1 e 1 3 < < , > * * = # * * , 3 3 3 3 ",
"1 1 1 1 1 1 < 1 1 1 1 1 1 1 e 1 1 1 1 1 1 1 1 1 1 1 e e h <.Z.C.Z.Z.Z.Z.Z.Z.Z.Z.Z.Z.Z.Z.Z.Z.Z.Z.Z.Z.u.k 3 3 3 3 3 3 3 3 3 3 3 3 1 e 1 1 3 3 3 1 3 2 2 2 2 < 3 3 3 3 3 3 ",
"e 1 1 1 1 , * , 1 1 1 1 e 1 1 1 e 1 e 1 1 1 e 1 1 1 1 e ! l.Z.Z.Z.Z.C.Z.Z.Z.Z.Z.Z.Z.Z.Z.Z.Z.Z.Z.C.Z.Z.9.h 3 f f h h h h f 3 3 3 3 3 3 3 3 3 3 3 3 3 3 3 3 3 3 3 3 3 3 e ",
"1 1 1 1 , * * * 1 1 1 1 1 1 e 1 1 1 1 1 e 1 1 e e 1 e S *.m.Z.Z.Z.Z.Z.Z.Z.Z.Z.Z.Z.Z.Z.Z.Z.Z.Z.Z.Z.Z.Z.C.6.! 1.d.g.g.g.g.8./ S e 1 1 3 < 3 3 1 3 3 3 3 3 3 3 3 3 3 3 3 3 ",
"1 3 1 1 < * * , 1 1 3 3 3 3 3 3 1 1 1 1 1 e 1 1 e e A $.=.V.Z.Z.Z.Z.Z.Z.Z.Z.Z.Z.Z.Z.Z.Z.Z.Z.Z.Z.Z.Z.Z.Z.C.g.x.l.l.l.l.l.l.l.g.8.S e 1 1 < 1 3 3 3 3 3 3 3 3 3 3 3 3 3 3 ",
"3 3 1 1 1 < < , 1 1 1 1 3 3 3 3 e e 1 e 1 1 1 1 e h ..%.q.V.Z.Z.Z.Z.Z.Z.Z.Z.Z.Z.Z.Z.Z.Z.Z.Z.Z.Z.Z.Z.Z.Z.Z.l.l.l.l.l.l.l.l.v.l.l.l.<.k < < < 3 3 3 3 3 < 1 < 3 3 3 3 3 3 ",
"3 3 1 1 1 1 1 1 1 1 1 1 3 3 3 3 1 1 1 e 1 < 1 1 e Q *.$.p.Z.Z.Z.Z.Z.Z.Z.Z.Z.Z.Z.Z.Z.Z.Z.Z.Z.Z.Z.Z.Z.Z.Z.Z.z.g.l.l.l.l.l.x.x.l.l.l.l.p.I 3 3 3 3 3 3 < , , 2 3 3 3 3 3 1 ",
"< 1 1 < 1 1 1 1 1 1 1 1 3 3 3 3 1 1 < ; - , , , l ..$.*.j.Z.Z.Z.Z.Z.Z.Z.N.b.Z.Z.Z.Z.Z.Z.Z.Z.Z.Z.Z.Z.Z.Z.Z.M.w.x.l.l.l.l.x.x.x.l.x.x.l.g.^ e 3 3 3 3 < ; ; , < 3 3 3 3 1 ",
", , ; , , 1 1 1 1 1 1 1 3 3 3 3 1 2 ; - - & - t ( %.%.=.c.Z.Z.Z.Z.Z.Z.Z.y.#.b.Z.Z.Z.Z.Z.Z.Z.Z.Z.Z.Z.Z.Z.Z.Z.w.p.l.l.l.l.l.l.v.l.l.l.x.x.g.Q 3 1 3 1 < ; - , 2 < 3 1 < < ",
"* * * * * * * 1 1 1 1 1 3 3 1 1 > - - - & & & m *.%.%.=.V.Z.Z.Z.Z.Z.Z.Z.h.:.N.Z.Z.Z.Z.Z.Z.Z.Z.Z.Z.Z.Z.Z.Z.Z.z.2.l.v.l.l.l.l.l.l.l.x.l.x.l.l.) e 3 3 1 1 2 2 1 2 , * * * ",
"& & # & @ * * , 1 1 1 1 1 1 1 1 - - # % & : u *.*...%.=.Z.Z.Z.Z.Z.Z.Z.Z.Z.Z.Z.Z.Z.Z.Z.Z.Z.Z.Z.Z.Z.Z.Z.Z.Z.Z.N.1.r.l.l.l.l.l.l.l.l.l.l.l.x.x.g.P 1 e 1 < 1 1 1 > * & & & ",
"= & & & * @ * * * < < 1 < < , * & - 7 x *.j.k.*.*.*.*.2.x.m.M.Z.Z.Z.Z.Z.Z.Z.Z.Z.Z.Z.Z.Z.Z.Z.Z.Z.Z.Z.Z.Z.Z.Z.Z.i.1.g.x.x.x.x.x.l.x.x.x.x.x.x.l.t.l 3 1 3 1 < ; - * & & & ",
"& & & & & & & & & ; ; ; ; ; & & & x &.N.Z.Z.n.*.%.%.%.*.5.e.t.f.v.v.Z.Z.Z.Z.Z.Z.Z.Z.Z.Z.Z.Z.Z.Z.Z.Z.Z.Z.Z.Z.Z.z.*.w.x.x.x.x.x.x.v.l.l.x.x.x.x.x.1.g 3 3 1 ; ; & & & & & ",
"& & & = & & & - & & & & & & & 7 ` z.Z.Z.Z.Z.j.*.%.%.%.*.5.e.e.e.e.t.t.g.v.M.C.Z.Z.Z.Z.Z.Z.Z.Z.Z.Z.Z.Z.Z.Z.Z.Z.M.=.=.s.x.x.x.x.x.x.l.l.g.6.q.x.l.l.| 1 1 2 ; * * - & & # ",
"& & & # & = & & & & & & & & i 9.Z.Z.Z.Z.Z.Z.s.*.%.%.*.%.3.e.e.e.e.e.e.e.e.t.g.x.v.C.Z.Z.Z.Z.Z.Z.Z.Z.Z.Z.Z.Z.Z.Z.9.%.7.x.l.x.x.x.l.l.l.g.&.6.v.l.l.f.V ; ; * * ; - & & & ",
"& & & & & # & & & & * : - x a.Z.Z.Z.Z.Z.Z.Z.q.%.%.%.%.%.2.e.e.e.e.e.e.e.e.e.e.e.e.t.f.x.M.Z.Z.Z.Z.Z.Z.Z.C.Z.Z.Z.x.*.*.s.l.x.l.x.l.l.l.l.z.l.l.l.l.x.*.7 & & & > > & & # ",
"& & & & & & # & & & ; , Z n.Z.Z.Z.Z.Z.Z.Z.V.9.%.%.%.%.%.=.e.e.e.e.e.e.e.e.e.e.e.e.e.e.e.e.t.g.v.M.Z.Z.Z.Z.Z.Z.Z.V.=.*.>.g.x.x.x.x.x.x.x.x.x.x.x.x.x.l.Z & # & * & & & & ",
"& & & & & & & & & & ; V k.Z.Z.Z.Z.Z.Z.Z.Z.N.7.%.%.%.%.%.*.5.e.e.e.e.e.e.e.e.e.e.e.e.e.e.e.e.e.e.r.f.g.v.M.Z.Z.Z.V.q.%.*.d.x.x.x.x.x.x.x.x.x.x.x.x.x.l.7.6 & & & & & & & ",
"& & & & # & & # & & i a.Z.Z.Z.Z.Z.Z.Z.Z.Z.n.=.*.%.%.*.%.%.5.e.e.e.e.e.e.e.e.e.e.e.e.e.e.e.e.e.e.e.e.e.e.r.f.x.M.V.j.*.*.2.g.x.x.x.x.x.x.x.x.x.x.x.x.x.l.K & & & & & & & ",
"& & & @ + + + # & : ;.Z.Z.Z.Z.Z.Z.Z.Z.Z.Z.c.*.%.%.%.%.%.%.2.e.e.e.e.e.e.e.e.e.e.e.e.e.e.e.e.e.e.e.e.e.e.e.e.e.r.t.t.*.*.*.p.x.x.x.x.x.x.x.x.x.x.x.x.x.l.6.8 & & & & & & ",
"& & & + X X + & & ] C.Z.Z.Z.Z.Z.Z.Z.Z.Z.Z.j.*.%.%.$.%.*.%.<.e.e.e.e.e.e.e.e.e.e.e.e.e.e.e.e.e.e.e.e.e.e.e.e.e.e.e.4.*.$.%.=.g.x.x.x.x.x.x.x.x.x.x.x.x.x.l.m & # & : & # ",
"@ & @ + X X + & z b.Z.Z.Z.Z.Z.Z.Z.Z.Z.Z.Z.s.%.%.%.*.%.$.%.*.5.e.e.e.e.e.e.e.e.e.e.e.e.e.e.r.e.e.e.e.e.e.e.e.e.e.e.0.*.%.%.*.w.x.x.x.x.x.x.x.l.x.x.l.l.x.x.=.# - & & & & ",
"& & & + . . + 7 a.Z.Z.Z.Z.Z.Z.Z.Z.Z.Z.Z.Z.q.%.$.%.%.%.%.%.%.4.e.e.e.e.e.e.e.e.e.e.0.e.0.=.2.e.e.e.e.e.e.e.e.e.e.0.4.*.%.$.%.*.w.f.g.g.l.x.x.x.x.x.x.l.l.l.g.x # & & & & ",
"& & & & # # & E N.Z.Z.Z.Z.Z.Z.Z.Z.Z.Z.Z.Z.7.%.$.%.%.%.%.%.%.4.e.e.e.e.e.e.e.e.e.e.e.e.*.M _ e.e.e.e.e.e.e.e.e.e.e.4.*.*.%.*.%.<.e.e.r.t.f.g.x.x.x.x.l.l.l.l.W = & # & & ",
"& & & & & & w z.Z.Z.Z.Z.Z.Z.Z.Z.Z.Z.Z.Z.Z.=.$.*.%.%.%.%.%.%.2.e.e.e.e.e.e.e.e.e.e.e.e.*.N [ e.e.e.e.e.e.e.e.e.e.e.4.*.%.%.%.%.*.4.e.e.e.e.1.e.t.f.g.l.l.x.x.q.r & & & & ",
"& & & & & # ] Z.Z.Z.Z.Z.Z.Z.Z.Z.Z.Z.Z.Z.V.*.$.*.%.%.%.%.%.%.=.5.e.e.e.e.e.e.e.e.e.e.e.e.2.0.e.e.e.e.e.e.e.e.e.e.e.4.*.%.%.%.%.%.2.e.e.e.3.$.e.e.e.e.e.r.f.f.f.x & & & & ",
"& & & & & w b.Z.Z.Z.Z.Z.Z.Z.Z.Z.Z.Z.Z.Z.n.*.$.*.%.%.{ [ %.%.*.5.e.e.e.e.e.e.e.e.e.e.e.e.e.e.e.e.e.e.e.e.e.e.e.e.e.4.%.%.%.%.%.%.*.0.e.e.e.e.e.e.e.e.e.e.e.e.e.T & & & & ",
"@ # # # = ] C.Z.Z.Z.Z.Z.Z.Z.Z.Z.Z.Z.Z.Z.c.*.*...$.%.%...%.$.%.4.e.e.e.e.e.e.e.e.e.e.e.e.e.e.e.e.e.e.e.e.e.e.e.e.5.4.%.%.%.%.$.%.%.2.e.e.e.e.e.e.e.e.e.e.e.e.e.<.# % # # ",
"O O O @ r j.Z.Z.Z.V.Z.Z.Z.V.Z.V.Z.Z.Z.Z.s.%.%.%.%.%.%.%.%.%.%.3.e.e.e.e.e.e.e.e.e.e.e.e.e.e.e.e.e.e.e.e.e.e.e.e.e.4.*.%.%.%.%.%.%.*.0.e.e.e.e.e.e.e.e.e.e.e.e.4.r O O O ",
"o o . . K Z.Z.Z.Z.Z.Z.Z.Z.Z.V.V.Z.Z.Z.V.q.%.%.%.%.%.%.%.%.%.%.,.e.e.e.e.e.e.e.e.e.e.e.e.e.e.e.e.e.e.e.e.e.e.e.e.e.3.*.%.%.%.%.%.%.*.3.e.e.e.5.e.e.e.e.e.e.e.e.e.b . o o ",
"      . i.Z.Z.Z.Z.Z.Z.Z.Z.Z.:.:.V.v.f.t.3.%.%.%.%.%.%.%.%.%.%.,.e.e.e.e.e.e.e.e.e.e.e.e.e.e.e.e.e.e.e.e.e.e.r.e.e.3.%.%.%.%.%.%.*.%.*.e.e.e.e.e.e.e.e.e.e.r.e.e.T .     ",
"      r V.Z.Z.Z.Z.Z.Z.Z.Z.Z.i.2.t.e.e.e.5.%.%.%.%.%.%.%.%.%.%.*.e.e.e.e.e.e.e.e.e.e.e.e.e.e.e.e.e.e.e.e.e.e.e.e.e.3.%.%.%.%.%.%.%.%.%.4.e.e.e.e.e.e.e.e.e.e.e.e.*.5     ",
"      M V.Z.Z.Z.Z.Z.Z.Z.V.g.t.e.e.e.e.e.e.*.%.%.%.%.%.%.%.%.%.*.5.e.e.e.e.e.e.e.e.e.e.e.e.e.e.e.e.e.e.e.e.e.e.e.e.3.%.%.%.%.%.%.%.%.%.=.e.e.e.e.e.e.e.e.e.e.e.e.2.r     ",
"    % >.Z.Z.Z.Z.Z.V.c.f.e.e.e.e.e.e.e.e.e.3.%.%.%.%.%.%.{ { %.%.4.e.e.e.e.e.e.e.e.5.e.e.e.e.e.e.e.e.e.e.e.e.e.e.e.4.%.%.%.%.%.%.%.$.%.*.4.e.e.e.e.e.e.e.e.e.e.e.e.m     ",
"    y c.Z.Z.Z.M.f.t.e.e.e.e.e.e.e.e.e.e.e.5.%.%.%.%.%.%.....%.%.<.5.e.e.e.e.e.e.<.{ 5.e.e.e.e.e.e.e.e.e.e.e.e.e.5.3.%.%.%.%.%.%.%.%.%.*.2.e.e.e.e.e.e.e.e.e.e.e.e.[     ",
"  . n V.M.v.f.e.e.e.e.e.e.t.e.e.e.e.e.e.e.5.,.%.%.%.%.%.%.%.%.%.*.4.e.e.e.e.e.e.%.N =.e.e.e.e.e.e.e.e.e.e.e.e.e.e.3.%.%.%.%...%.%.%.$.$.*.e.e.e.e.e.e.e.e.e.e.e.e.<..   ",
"  . ..g.t.e.e.e.e.e.r.e.e.e.e.e.e.e.e.e.e.e.4.%.%.%.%.%.%.%.%.%.*.*.4.e.e.e.e.e.5.=.5.e.e.e.e.e.e.e.e.e.e.e.e.e.e.3.%.%.%.%.%.*.*.$.$.%.*.2.e.e.e.e.e.e.e.e.e.e.e.5.%   ",
"  . 2.e.e.e.e.e.e.e.e.e.e.e.e.e.e.e.e.e.t.e.5.%.%.%.%.%.%.%.%.*.$.*.=.0.e.e.e.e.e.e.e.e.e.e.e.e.e.e.e.e.e.e.e.e.e.3.%.%.%.%.%.%.$.*...{ *.*.5.e.e.e.e.e.e.e.e.e.e.5.u   ",
"  % 0.e.e.e.e.e.e.e.3.e.e.e.e.e.e.e.e.e.e.5.e.,.%.%.%.%.%.%.%.%.%.%.%.=.e.e.e.e.e.e.e.e.e.e.e.e.e.e.e.e.e.e.e.e.e.3.%.%.%.%.%.%.*.{ M M ..*.2.e.e.e.e.e.e.e.e.e.e.e.m   ",
"  z e.e.e.e.e.e.e.4.N *.e.e.e.e.e.e.e.e.e.e.e.3.%.%.%.%.%.%.%.%.%.%.%.*.2.e.e.e.e.e.e.e.e.e.e.e.e.e.e.e.e.e.e.e.e.3.%.%.%.%.%.%.*.%._ N ..*.=.4.e.e.e.e.e.e.e.e.e.e.T   ",
"  K e.e.e.e.e.e.e.5.*.4.5.e.e.e.e.e.e.e.e.e.e.4.*.%.%.%.%.%.%.%.%.%.%.%.%.3.e.e.e.e.e.e.e.e.e.e.e.e.e.e.e.e.e.e.e.3.%.%.%.%.%.%.%.%...$.%.%.%.1.5.e.e.e.e.e.e.e.e.e.( . ",
". Q e.e.e.e.e.e.e.e.e.e.e.e.e.e.e.e.e.e.e.e.e.e.=.%.%.%.%.%.%.%.%.%.%.%.%.%.3.e.e.e.e.e.e.e.e.e.e.e.e.e.e.e.e.e.e.3.%.%.%.%.%.%.%.%.%.%.%.%.%.%.,.1.3.5.e.e.e.e.e.e.%.@ ",
"% X.e.e.e.e.e.e.e.e.e.e.e.e.e.e.e.e.e.5.4.4.3.2.%.%.%.%.%.%.%.%.%.%.%.%.%.%.*.5.e.e.e.e.e.e.e.e.e.e.e.e.e.e.e.4.3.,.%.%.%.%.%.%.%.%.%.%.%.%.%.%.%.%.%.,.3.5.e.e.e.e.2.5 ",
"5 ,.e.e.e.e.e.e.e.e.e.e.e.e.5.3.3.2.,.*.*.%.%.%.%.%.%.%.%.%.%.%.%.%.%.%.%.%.%.*.e.e.e.e.e.e.e.e.e.e.e.e.3.2.,.*.%.%.%.%.%.%.%.%.%.*.%.%.%.%.%.%.%.%.%.X.%.1.<.5.e.e.4.r ",
"9 4.e.e.e.e.4.4.4.3.2.=.*.*.%.%.%.%.%.%.%.%.%.%.%.%.%.%.%.%.%.%.%.%.%.*.%.%.%.%.,.5.e.e.e.5.5.4.2.,.*.%.%.%.*.%.%.%.%.%.%.%.%.%.%.*.%.%.%.%.%.%.%.%.%.%.%.%.%.*.2.4.4.r ",
"9 <.2.<.<.*.*.*.X.*.%.%.%.%.X.*.%.*.%.%.%.%.*.%.%.%.%.%.%.%.%.%.%.%.%.%.%.%.%.%.%.,.3.2.,.,.%.%.*.%.%.%.%.%.%.%.%.%.%.%.%.%.%.%.%.%.%.%.%.%.%.%.%.%.%.*.*.%.%.%.*.*.<.u "
};
