/* XPM */
static char *result[] = {
/* columns rows colors chars-per-pixel */
"50 50 188 2 ",
"   c #151416",
".  c #1B1616",
"X  c #1D1916",
"o  c #171719",
"O  c #1A1719",
"+  c #1C191A",
"@  c #241C1C",
"#  c #2C1E1D",
"$  c #2C211E",
"%  c #31221F",
"&  c #222225",
"*  c #2D2322",
"=  c #272729",
"-  c #2D2729",
";  c #2C2B2E",
":  c #27282B",
">  c #322524",
",  c #352927",
"<  c #312629",
"1  c #332B2C",
"2  c #3A2D2C",
"3  c #382826",
"4  c #3D312E",
"5  c #2D2C31",
"6  c #352E31",
"7  c #353133",
"8  c #3B3232",
"9  c #373739",
"0  c #3D3639",
"q  c #3D3A3C",
"w  c #4B2616",
"e  c #472618",
"r  c #502614",
"t  c #502816",
"y  c #5E2F14",
"u  c #512E1D",
"i  c #6D3917",
"p  c #6D3A1A",
"a  c #4C2F25",
"s  c #41332E",
"d  c #4D3227",
"f  c #51362B",
"g  c #553626",
"h  c #433533",
"j  c #443936",
"k  c #493935",
"l  c #433B3B",
"z  c #4A3D3B",
"x  c #483635",
"c  c #533B32",
"v  c #503D3B",
"b  c #5B3F34",
"n  c #7A431A",
"m  c #4E403D",
"M  c #5D4033",
"N  c #54443D",
"B  c #7F4A24",
"V  c #734425",
"C  c #624639",
"Z  c #62483C",
"A  c #795136",
"S  c #3F3E42",
"D  c #403F43",
"F  c #434244",
"G  c #4B4443",
"H  c #474749",
"J  c #4A4648",
"K  c #4C4A4C",
"L  c #4E4844",
"P  c #524542",
"I  c #534946",
"U  c #534B4B",
"Y  c #5A4D4B",
"T  c #5C4A43",
"R  c #5B514E",
"E  c #56504D",
"W  c #4D4D51",
"Q  c #524E52",
"!  c #5A4F50",
"~  c #4F5052",
"^  c #535254",
"/  c #5B5453",
"(  c #5A5956",
")  c #55545A",
"_  c #5B5759",
"`  c #5B5A5B",
"'  c #565958",
"]  c #604F4B",
"[  c #655147",
"{  c #65534C",
"}  c #6B554C",
"|  c #6E584F",
" . c #715A4E",
".. c #635554",
"X. c #645A56",
"o. c #635C5B",
"O. c #6B5F5D",
"+. c #725B55",
"@. c #735B56",
"#. c #65615F",
"$. c #6D605C",
"%. c #5D5D62",
"&. c #645F61",
"*. c #5F6169",
"=. c #646263",
"-. c #6A6564",
";. c #6B6967",
":. c #666569",
">. c #6A6769",
",. c #6C6B6C",
"<. c #726A67",
"1. c #726D6C",
"2. c #776B69",
"3. c #71706E",
"4. c #6E6E71",
"5. c #747374",
"6. c #7C7573",
"7. c #767679",
"8. c #787679",
"9. c #7B7A7B",
"0. c #83491E",
"q. c #82461E",
"w. c #844B21",
"e. c #827D7C",
"r. c #807877",
"t. c #7E7E81",
"y. c #817E81",
"u. c #7D8083",
"i. c #848182",
"p. c #8B8282",
"a. c #858589",
"s. c #8C8B8E",
"d. c #86888A",
"f. c #908785",
"g. c #938B8A",
"h. c #918987",
"j. c #99918E",
"k. c #8D8D91",
"l. c #878D92",
"z. c #908F93",
"x. c #929295",
"c. c #949599",
"v. c #9B9A9C",
"b. c #9A9596",
"n. c #A19A98",
"m. c #A19897",
"M. c #9E9EA0",
"N. c #A09FA2",
"B. c #A3A3A5",
"V. c #ADA6A5",
"C. c #A7A6A9",
"Z. c #A9A9AB",
"A. c #ABA8A8",
"S. c #B3ABA9",
"D. c #AEAEB1",
"F. c #B0AFB0",
"G. c #B4B3B5",
"H. c #BCBABC",
"J. c #B8B7BA",
"K. c #C2BCBB",
"L. c #BFBFC1",
"P. c #C3C3C5",
"I. c #CCC5C3",
"U. c #CECAC6",
"Y. c #C7C7C9",
"T. c #CACACB",
"R. c #D1CCCB",
"E. c #D0C7C6",
"W. c #CFCFD0",
"Q. c #D4D2D3",
"!. c #D9D5D3",
"~. c #DDD9D7",
"^. c #DCDCDC",
"/. c #D7D7D8",
"(. c #E1DDDA",
"). c #DFDFE0",
"_. c #E0DFE1",
"`. c #E5E3E4",
"'. c #E9E5E4",
"]. c #ECEBEB",
"[. c #EBE8E6",
"{. c #F1EEED",
"}. c #F2F0EF",
"|. c #EFEFF0",
" X c #F5F4F4",
".X c #FAF8F7",
"XX c #FEFEFE",
"oX c #F8F7F8",
/* pixels */
"XXXXXXXXXXXXXXXXXXXXXXXXXXXXXXXXXXXXXXXXXXXXXXXXXXXXXXXXXXXXXXXXXXXXXXXXXXXXXXXXXXXXXXXXXXXXXXXXXXXX",
"XXXXXXXXXXXXXXXXXXXXXXXXXXXX{.{. XK.R.K.p.f.1.r.{ X.<.R <...p.b.K.{.XXXXXXXXXXXXXXXXXXXXXXXXXXXXXXXX",
"XXXXXXXXXXXXXXXXXXXXXXXX'.p.h h 8 I 2 j X.m #.z 1.-.z ,.k ;.s ..L , N 6.h.E.XXXXXXXXXXXXXXXXXXXXXXXX",
"XXXXXXXXXXXXXXXXXXXX{.-.j 2 8.3.h ` j G :.m ` z ` / k #.k ` k ` ( P ;.k o.2 p.!.XXXXXXXXXXXXXXXXXXXX",
"XXXXXXXXXXXXXXXX(.$.2 z 5.R U ,.s ` I G ` h ` z ` ;.N =.k _ 4 =.R G #.R =.z Y 8 6.Q.XXXXXXXXXXXXXXXX",
"XXXXXXXXXXXX.XU.R &.1.2 / ( h ` s #.^ m ` h F k ^ / h Q j ' 3 ` k ` #.R ( v :.U z 2 2.XXXXXXXXXXXXXX",
"XXXXXXXXXXXX2., % Y ( / k ;.h K j 0 m 4 0 , K 4 7 0 > 8 2 F 3 F 2 J m U l X.` h X.h > Y !.XXXXXXXXXX",
"XXXXXXXXXXU.< 5 ; y./ ( z L j , - $ @ + @ X + + . .   . . X X @ @ * % F 2 ,.U z y.1 ; , P [.XXXXXXXX",
"XXXXXXXXK.j , ; 1 a.c./ J # @ .     o o : S : ) F H ) ; F = +       . X # q x c.d.1 5 1 , -. XXXXXXX",
"XXXXXX X4 ;.6 ; 2 ;.8.5.@ .   : 5.K /.D.G.XX3.XXZ.Y..X7.XXc.W./.' u.;     . 1.8.;.1 5 , k m p.XXXXXX",
"XXXXXX~.> R 8 ; 2 } e i.+ 9 S F 9.& 5.K K 7.& 7.H ^ 5.= 9.S %.,.; 9.9 W F . e.e } 2 : 7 ;./ , ~.XXXX",
"XXXX`.z R > - 5 ;  .i ] J oXT.C.XX5.XXH.G.XX7.XXD.Y.oXt.XXv./.oX9.XXl.].`.J { p | 6 5 6 ;.^ , S.XXXX",
"XXXXh.G :.,.8 5 2 | w.d / v.t.:.B.S M.5.4.N.S B.:.9.M.F B.` a.v.K B.^ z.s.U g w. .6 5 1 % , j z XXXX",
"XXXXj.2 W #.8 ; 1 +.w.e o.P.v.y.T.) Y.l.s.Y.) T.a.v.P.` Y.7.C.L.%.Y.:.G.S./ e 0. .2 5 1 -.:.' > .XXX",
"XX.XY 4 > $ , ; 1 | w.t X.oXP.B.XX,.XXG.F.XX,.XXC.P.oX5.XXx.Q.|.7.XXa.`.)./ w 0.| 2 5 1 Q j 1 x .XXX",
"XXR., :.6.#.1 ; 1 } w.t P 4.) J 7.: 7.W K 7.= 7.H ) 5.; 7.S %.4.7 9.9 =.=.G r w.| 1 5 - , j 0 k .XXX",
"XXG.2 K ^ Q 1 : < | w.t ...XT.Z.XX7.XXH.J.XX7.XXD.Y.XX9.XXv./.oXy.XXk.].`.J r w.} 1 ; 1 ,.3.` < .XXX",
"XX(.# 8 x m , : 2 | w.u U k.4.` c.9 z.:.=.c.9 x.%.4.k.q x.^ 7.s.D c.H y.y.J u w.| 2 ; < 2 2 , h XXXX",
"XX'.* W >.,.8 5 1 | w.g / /.Z.k.).` /.M.v./.` /.z.Z./.=.^.u.G.Q.:.).5.Y.L.U f q.| 1 5 6 r.i.;.4 E.XX",
"XX'.* 8 8 2 < 5 6 &...Y o..XT.Z.XX7.XXL.J.XX7.XXD.Y.XXt.XXv.^.oXt.XXk.].'./ Y } &.1 5 1 G L G , I.XX",
"XX'.> z E #.8 5 1 =.) W U '.J.x.XXW  XB.M.oXW XXc.D.].%.XXa.P.`.:.XX5.Q.Q.J W ) :.1 5 1 l U E < ~.XX",
"XX`.* 0 H J 6 5 1 / f P _  XY.N.XX4.XXJ.D.XX4.XXC.P..X4.XXc.W. X8.XXa._.`.Q G f R 2 5 2 o.>./ 2 I.XX",
"XX X4 2 2 s 1 5 1 { p c ,.XX X`.XX).XX].].XX^.XX]. XXX/.XX`.oXXX^.XX^.XXXX>.c i [ < 5 ; $ $ $ * `.XX",
"XX~.< ( &.>.6 5 1 { w.b 1.XXXXXXXXXXXXXXXXXXXXXXXXXXXXXXXXXXXXXXXXXXXXXXXX1.b w.} 1 5 2 #.=.;.2 `.XX",
"XX(.> 0 F ~ 6 ; 1 } w.M ;.XXXXXXXXXXXXXXXXXXXXXXXXXXXXXXXXXXXXXXXXXXXXXXXX1.b w.{ 1 5 1 / U H , '.XX",
"XX X, m s 2 , 5 1 } q.b ;.XXXXXXXXXXXXXXXXXXXXXXXXXXXXXXXXXXXXXXXXXXXXXXXX,.b q.} 6 5 < * , , h .XXX",
"XXQ.2 ` 5.,.7 5 ; X.A T -.XXXXXXXXXXXXXXXXXXXXXXXXXXXXXXXXXXXXXXXXXXXXXXXX;.N A .., 5 6 ;.,.1.8 .XXX",
"XXI.< H ~ G ; 5 1 *.` _ &.XXXXXXXXXXXXXXXXXXXXXXXXXXXXXXXXXXXXXXXXXXXXXXXX=.` %.:.1 5 < , 8 0 > '.XX",
"XX!.# h s 4 < ; 1 %.Q Q -.XXXXXXXXXXXXXXXXXXXXXXXXXXXXXXXXXXXXXXXXXXXXXXXX;.W W *.1 5 1 X.X.#.2 (.XX",
"XXS.2 ` 9.e.7 ; 1 Y y c =.XXXXXXXXXXXXXXXXXXXXXXXXXXXXXXXXXXXXXXXXXXXXXXXX;.c i T , 5 6 ` _ ` 2 ~.XX",
"XXQ.* S K J 1 ; 1 } n C ;.XXXXXXXXXXXXXXXXXXXXXXXXXXXXXXXXXXXXXXXXXXXXXXXX;.C n } 1 ; - 2 2 , * '.XX",
"XX.Xh 2 k I 1 5 6 } 0.C -.XXXXXXXXXXXXXXXXXXXXXXXXXXXXXXXXXXXXXXXXXXXXXXXX-.Z 0.[ 7 ; 1 ;.=.-.2 !.XX",
"XXK.2 ` ` ` 2 6 6 { w.C -.XXXXXXXXXXXXXXXXXXXXXXXXXXXXXXXXXXXXXXXXXXXXXXXX-.C w.{ 1 5 1 ;.5.:.j n.XX",
"XXK.* 8 l 0 ; : ; | B } -.XXXXXXXXXXXXXXXXXXXXXXXXXXXXXXXXXXXXXXXXXXXXXXXX;.{ w.} 1 5 < < 8 8 * V.XX",
"XXK.2 I G Y 2 5 1 >.5.%.o.XXXXXXXXXXXXXXXXXXXXXXXXXXXXXXXXXXXXXXXXXXXXXXXX=.&.5.>.1 5 1 X.` -.m j.XX",
"XXh.8 ' ' ^ : 5 6 %.W ) &.XXXXXXXXXXXXXXXXXXXXXXXXXXXXXXXXXXXXXXXXXXXXXXXX&.) W %.1 5 1 -.^ K m 6.XX",
"XXV.# > > * < 5 1 _ c v &.XXXXXXXXXXXXXXXXXXXXXXXXXXXXXXXXXXXXXXXXXXXXXXXX-.v c ( 1 5 < , , $ $ V..X",
"XXg.m ,.-.E < 5 < [ n C &.XXXXXXXXXXXXXXXXXXXXXXXXXXXXXXXXXXXXXXXXXXXXXXXX=.C n [ 1 5 1 9.6.;.j m.XX",
"XXr.j ) ^ J < 5 < } q.C #.XXXXXXXXXXXXXXXXXXXXXXXXXXXXXXXXXXXXXXXXXXXXXXXX-.M 0.[ ; ; 1 J H J 0 6.XX",
"XXV.< h k 4 < ; ; } V O.&.XXXXXXXXXXXXXXXXXXXXXXXXXXXXXXXXXXXXXXXXXXXXXXXX#.$.V } < 5 < k N I 2 j.XX",
"XXj.I #.,.>.6 5 < >.x.c.e.XXXXXXXXXXXXXXXXXXXXXXXXXXXXXXXXXXXXXXXXXXXXXXXXe.c.z.>.1 5 1 =.` ` q f.XX",
"XXv.* 2 1 1 - 5 6 t.l.9.O.XXXXXXXXXXXXXXXXXXXXXXXXXXXXXXXXXXXXXXXXXXXXXXXXO.t.k.u., ; - 6 8 7 $ V.XX",
"XX.XS.n.S.S.8 5 < 8.Y +.I.XXXXXXXXXXXXXXXXXXXXXXXXXXXXXXXXXXXXXXXXXXXXXXXXE.@.Y 9.; ; 6 f.<.<.S.XXXX",
"XXXXXXXXXX.Xl < , @.I.XXXXXXXXXXXXXXXXXXXXXXXXXXXXXXXXXXXXXXXXXXXXXXXXXXXXXXXXU.+., 1 j .XXXXXXXXXXX",
"XXXXXXXXXXXX X X].XXXXXXXXXXXXXXXXXXXXXXXXXXXXXXXXXXXXXXXXXXXXXXXXXXXXXXXXXXXXXXXX{. X XXXXXXXXXXXXX",
"XXXXXXXXXXXXXXXXXXXXXXXXXXXXXXXXXXXXXXXXXXXXXXXXXXXXXXXXXXXXXXXXXXXXXXXXXXXXXXXXXXXXXXXXXXXXXXXXXXXX",
"XXXXXXXXXXXXXXXXXXXXXXXXXXXXXXXXXXXXXXXXXXXXXXXXXXXXXXXXXXXXXXXXXXXXXXXXXXXXXXXXXXXXXXXXXXXXXXXXXXXX",
"XXXXXXXXXXXXXXXXXXXXXXXXXXXXXXXXXXXXXXXXXXXXXXXXXXXXXXXXXXXXXXXXXXXXXXXXXXXXXXXXXXXXXXXXXXXXXXXXXXXX",
"XXXXXXXXXXXXXXXXXXXXXXXXXXXXXXXXXXXXXXXXXXXXXXXXXXXXXXXXXXXXXXXXXXXXXXXXXXXXXXXXXXXXXXXXXXXXXXXXXXXX",
"XXXXXXXXXXXXXXXXXXXXXXXXXXXXXXXXXXXXXXXXXXXXXXXXXXXXXXXXXXXXXXXXXXXXXXXXXXXXXXXXXXXXXXXXXXXXXXXXXXXX"
};
