/* XPM */
static char *result[] = {
/* columns rows colors chars-per-pixel */
"50 50 216 2 ",
"   c #020104",
".  c #08090D",
"X  c #08070B",
"o  c #16171A",
"O  c #321E12",
"+  c #2B1B11",
"@  c #39290E",
"#  c #3B2D13",
"$  c #372517",
"%  c #3E3015",
"&  c #181D23",
"*  c #201F23",
"=  c #1C222A",
"-  c #1B2127",
";  c #1F2633",
":  c #24262C",
">  c #2A2829",
",  c #352E2A",
"<  c #39302E",
"1  c #242B34",
"2  c #2C2E33",
"3  c #252E39",
"4  c #27313C",
"5  c #2B323C",
"6  c #3C3432",
"7  c #3F3935",
"8  c #343536",
"9  c #302E30",
"0  c #43291A",
"q  c #44351B",
"w  c #483416",
"e  c #5E341B",
"r  c #56351C",
"t  c #4E300C",
"y  c #60351C",
"u  c #6B3F1F",
"i  c #422D22",
"p  c #4B3423",
"a  c #4D3A23",
"s  c #453424",
"d  c #543622",
"f  c #553D2B",
"g  c #593C28",
"h  c #423935",
"j  c #4A3F39",
"k  c #403631",
"l  c #633D24",
"z  c #6B3F22",
"x  c #5C4219",
"c  c #7C5203",
"v  c #67431B",
"b  c #745110",
"n  c #584329",
"m  c #4C423C",
"M  c #4B4337",
"N  c #5D4332",
"B  c #6A4022",
"V  c #6A4828",
"C  c #734A2B",
"Z  c #7A4F2E",
"A  c #75472A",
"S  c #78532A",
"D  c #654933",
"F  c #7A4F31",
"G  c #795030",
"H  c #755C32",
"J  c #6E5234",
"K  c #7A6126",
"L  c #7E6533",
"P  c #2C3642",
"I  c #2E3943",
"U  c #2F3C4A",
"Y  c #323B44",
"T  c #333D4A",
"R  c #303741",
"E  c #35414E",
"W  c #38434A",
"Q  c #354452",
"!  c #3A4654",
"~  c #3C4955",
"^  c #3D4D5C",
"/  c #374758",
"(  c #3F505F",
")  c #3F4E60",
"_  c #3F5263",
"`  c #404F5D",
"'  c #464E58",
"]  c #45515C",
"[  c #5D5A51",
"{  c #575448",
"}  c #65635B",
"|  c #435363",
" . c #465B6D",
".. c #495C6E",
"X. c #465768",
"o. c #475D71",
"O. c #495D71",
"+. c #434F60",
"@. c #4D6173",
"#. c #4F657B",
"$. c #52667B",
"%. c #53697E",
"&. c #546677",
"*. c #4E606F",
"=. c #66676B",
"-. c #767574",
";. c #845601",
":. c #875800",
">. c #8B5A00",
",. c #915F05",
"<. c #805717",
"1. c #936106",
"2. c #96630A",
"3. c #9B660D",
"4. c #9D680F",
"5. c #9F6911",
"6. c #976516",
"7. c #A26C14",
"8. c #A26E19",
"9. c #A86F14",
"0. c #AB7215",
"q. c #A9721A",
"w. c #B27716",
"e. c #B57917",
"r. c #BB7C17",
"t. c #B77A19",
"y. c #BD7E18",
"u. c #B07618",
"i. c #885C37",
"p. c #885D3A",
"a. c #865C3A",
"s. c #8D693A",
"d. c #896738",
"f. c #8E6A3A",
"g. c #A97726",
"h. c #AF7F33",
"j. c #9B6C44",
"k. c #9D6F48",
"l. c #946B42",
"z. c #9E7146",
"x. c #9E7049",
"c. c #8F774D",
"v. c #A06F47",
"b. c #A06F48",
"n. c #A17146",
"m. c #A47249",
"M. c #AA774D",
"N. c #AE784D",
"B. c #B17A4E",
"V. c #B47D52",
"C. c #B87F53",
"Z. c #AB7A50",
"A. c #BE801E",
"S. c #B68434",
"D. c #A28326",
"F. c #C58F30",
"G. c #EFBB21",
"H. c #BE8F42",
"J. c #B68053",
"K. c #BC8253",
"L. c #AE925F",
"P. c #92876E",
"I. c #C49449",
"U. c #D2A356",
"Y. c #DAAC63",
"T. c #DDB268",
"R. c #D6AF70",
"E. c #E3B66C",
"W. c #E5B86F",
"Q. c #E6BB73",
"!. c #E9BD76",
"~. c #EEC37B",
"^. c #ECC178",
"/. c #F0CE79",
"(. c #566D84",
"). c #596F85",
"_. c #5C7286",
"`. c #5C758D",
"'. c #5E788E",
"]. c #5D7690",
"[. c #5E7890",
"{. c #7B7F84",
"}. c #617A94",
"|. c #7D8085",
" X c #83868A",
".X c #868A8E",
"XX c #898B8E",
"oX c #8B8E93",
"OX c #878C90",
"+X c #8D9195",
"@X c #8F9398",
"#X c #96999D",
"$X c #92949A",
"%X c #A3A4A9",
"&X c #A9ADB1",
"*X c #D0B98C",
"=X c #EDCA85",
"-X c #EFCE8B",
";X c #EBC682",
":X c #F0C983",
">X c #F1CE8A",
",X c #F0C781",
"<X c #F1D18E",
"1X c #F2D493",
"2X c #F2D699",
"3X c #F3D89E",
"4X c #EFCE93",
"5X c #F2DAA4",
"6X c #F3DDAB",
"7X c #F3DFB2",
"8X c #E8D4AC",
"9X c #F3E1B9",
"0X c #E6DAC0",
"qX c #F4E5C4",
"wX c #F4E7C9",
"eX c #F4E8CC",
/* pixels */
"F.!.1X2X5X6X7X9XqXqXeXeXeXeXwXeXeXeXeXeXeXeXeXwXwXwXwXwXwXqXqXwXeXeXeXeXeXeXeXeXeXeXeXeXeXeXeXeXeXwX",
"F.U.-X1X1X1X1X1X3X5X7X9XqX9X8X9XwX0X0XP.[ } [ [ [ [ { { *X8X8X6X7X7X7XqXqXwXqXwXwXwXwXwXwXqXqX9X9X9X",
"r.F.T.>X1X<X;X-X1X1X1X<X<X4XQ.*Xc.o I I @.....o.T %.Y 5 2 : M P.1X2X2X2X2X3X5X5X5X6X6X6X5X3X3X3X1X2X",
"r.y.F.T.=X1X-X1X1X-X;X~.~.R.M P (._./ ; ` o...o.+.& ~ X.5 '.}.8 h L.;X:X=X-X;X4X1X2X1X1X1X1X1X1X1X1X",
"y.y.A.F.Y.!.,X,X,X^.Q.Y.c.9 4 `.].U |  .3 o...o...X._ 1 | %.4 X.Y = c.R.~.T.T.^.4X1X1X1X1X1X1X1X<X<X",
"A.y.y.y.S.U.T.W.T.U.I.n T o.I _.].o.T }.P T ; T X./ / U (.%._ '.`.(.3 { L.T.T.^.<X1X1X1X1X<X<X<X/./.",
"y.y.y.y.r.g.S.I.S.g.q | o. .( I ].`.).].(.o / P & ! 1 #.].`. .'.@.-  . ., L.^.^.:X<X1X1X<X~.~.~.~.~.",
"A.y.y.y.y.t.q.8.9.w ~  .o.o...1 ! U P T ].T ` O. .*.Q ]._ E  .).= ` Q  .o - Q.^.~.:X<X1X1X<X;X~.!.~.",
"y.y.r.A.A.r.r.r.b 2 o.O.O.o.O.R > > 9 9 > > * > : : > 2 > * 2 ' Y o._ ..|  .M W.!.!.:X>X>X:X~.!.~.!.",
"A.y.r.A.r.A.r.5.> 1 ( o.o.| ' e A 0 C Z A 0 A Z A t C A Z r l B s ! P O. .X.: f.T.!.!.!.~.~.!.Q.E.Y.",
"A.r.r.A.A.r.A.x I _.; ( +., z i.A t z.B.k.e k.N.j.u k.m.M.C p.m.K.J Y o.( 2 I 8 h.U.Y.W.!.E.Y.U.F.S.",
"A.A.r.A.A.A.w.1 '.Q %.: 2 e A f.j.y n.N.z.y k.N.k.z b.m.M.C a.n.K.i., ] - E ..&.<.0.h.F.I.I.h.g.8.w.",
"A.r.r.r.r.r.6.| [.).'.O.p e Z V.j.e j.N.z.y k.N.z.B x.m.M.C a.z.K.i.C > ..).`.(.e e.q.8.8.6.8.0.t.r.",
"A.r.r.r.r.r.v _.[.P #.8 B e l.J.j.e b.N.n.e b.N.z.B x.m.M.C a.n.K.i.A N ).$.&.`.8 u.y.t.e.t.r.r.A.r.",
"A.r.r.9.w.r.v _._._.! s B B m.J.j.e b.B.z.y z.N.z.B x.m.M.C a.n.K.i.C k.& ! ` _.E 8.y.y.y.r.y.y.A.y.",
"A.r.r.w.e.r.@         r l J m.V.j.e v.B.z.y x.N.z.B x.m.M.C p.n.J.i.A k.          <.y.r.r.y.y.r.y.y.",
"r.A.r.r.r.r.2 5 - 1 ` d l F m.J.j.e v.N.k.l j.N.b.z x.m.M.C p.m.K.p.C k.Q | ^ ^ $.a r.y.t.0.r.y.y.r.",
"w.w.w.r.A.A.& ( `.`.E d l G n.J.j.e v.N.k.y j.N.k.z b.m.M.C a.m.C.p.C b.R Y o.X.& t y.r.w.0.e.r.r.r.",
"9.7.7.0.w.r.] [.`.`.#.d l G n.J.v.e v.N.b.y b.B.k.z k.m.M.C d.n.K.a.C k.' [.'.].O.w y.y.r.r.r.w.9.9.",
"9.5.7.7.9.w.~ [.].`.&.d l G n.J.j.e v.N.k.y b.B.v.z x.m.M.C p.n.K.p.C k.Q `.`.`.[.a y.y.r.r.w.9.7.7.",
"7.7.9.7.7.7.. . . . . d l F n.V.f.y M.V.b.y b.B.v.z m.m.M.C p.m.K.p.C k.X . . . . t t.r.r.e.0.7.7.7.",
"7.7.7.7.7.8.5 ` 5 3 E O O i N D g O f f f O f f g $ f g N $ p g D p 0 f 4 / : ! _ % 7.9.0.7.7.w.7.7.",
"7.7.7.7.8.8.U ~ 3 _ ~ } {.#X|.|.c.#XOX}.|.#X.X|.|.@XXX{.{. X@X X|.{.#X|.: 1 T &  .q 8.7.7.7.7.7.7.7.",
"9.7.5.5.7.8.I 3 I o._ =..XoX@XoX@X|.@X@XoXoXOXoXOX XXXoXoX{.@XOXOX.X$XOXI ..o.P ^ q 8.7.5.7.7.7.8.7.",
"7.5.2.1.5.8.E  . . .^ > < 6 h h 7 , h h 7 < h h h 6 7 7 7 8 6 7 h 7 6 7 I o.^ o.o.q 7.7.7.7.7.7.8.9.",
"7.5.1.1.5.7.1 E Q E I d l F m.V.j.e m.B.k.e k.N.k.z m.m.M.C p.n.K.a.C x.1 E E Q E 0 7.7.3.,.7.7.7.7.",
"7.7.7.5.5.5.4 ^ ` | / d l F m.J.j.e b.B.z.e k.N.z.B z.m.M.C p.n.K.a.S f.4 _ _ _ | q 7.7.7.7.7.7.7.7.",
"8.7.7.7.5.1.1 E ).}.$.d l F x.J.j.e b.B.z.y b.N.z.B k.m.M.C p.n.Z.K K c./ `.X.4 @.s ,.,.,.7.7.7.7.7.",
"7.7.7.7.5.,./ `.].].$.d l F m.J.j.e j.N.z.e x.N.x.B b.m.M.C d.k.J G./.K ~ ].`.`.~ # 1.>.,.7.7.7.7.7.",
"1.2.4.7.5.,.^ '.].].#.d l F n.C.j.e b.N.m.e k.N.z.B b.m.M.C p.l.x D.F.L / ].'.[.`.a 4.3.7.7.7.3.3.,.",
">.>.1.4.5.6.E #.%.&.X.d l G m.C.j.e v.N.z.y x.N.z.B k.m.M.C p.b.J a q L T $.$.$.%.q 5.5.7.,.,.,.>.>.",
">.>.>.2.5.5.= 5 5 P 3 d l G v.B.j.y b.B.z.y b.N.z.B b.m.M.C p.b.Z.b b J - P P I 5 @ 1.1.,.>.>.>.>.>.",
">.>.1.>.2.5.I o. .@.) d l G z.J.j.e v.N.v.y j.N.v.z z.m.M.C a.m.K.a.C k.I o.o.o.o.0 >.>.>.>.1.>.>.>.",
">.3.3.,.>.,.= U  .E ) d l G n.J.j.e v.N.v.y v.N.k.u k.m.M.C p.b.K.p.C k.Y O.o.O.~ @ >.>.>.1.3.,.>.>.",
">.1.1.>.>.>.W E 4 E ( d l G n.J.j.e b.B.v.y k.N.z.B x.m.M.C p.v.J.a.C k.I $.3 3 ^ # >.>.>.>.,.>.>.>.",
">.>.>.>.>.>.~ .. . .( d l G n.J.j.y b.B.v.y k.N.z.z k.m.M.C p.v.K.a.C j.I o.O.o...% >.>.>.>.>.>.>.>.",
",.>.>.>.>.>.= 4 4 3 1 f l F x.J.l.y v.V.z.y k.Z.n.B k.b.M.C p.v.K.p.C k.& P 3 P 4 @ >.:.:.:.>.>.>.>.",
">.>.>.>.>.>.] _.`.`.@.+ O $ p f s + q d p + p d q O p d f O i p g 0 $ p 5 )._._.).q :.;.c ;.>.>.>.>.",
">.>.>.>.>.>.] $.).`.#.=.XX&X@XXXXX&X$XoXOX&X#XoXoX#X%XoXoX$X%XoXoX@X&XOX' '.O.`.].q :.c c ;.>.>.>.>.",
">.>.>.>.>.,.Y ^ O.`.#.=.OXXXXX+XOX XXXoXoXXX+XoXoX X@XoXoX{.oXoXoX.X.XOX' [.`.P | # >.:.;.;.>.>.>.>.",
">.>.:.;.:.>.X.].].`.#.> < k j m j < j j j < j m j 6 j j m 6 h j m h 6 j R ].].O.`.q >.>.;.>.>.>.>.>.",
">.:.c c ;.>.8 ^ Q ^ U d l G m.J.l.e v.N.v.y b.M.v.z x.m.M.C p.m.K.p.C k.2 / / Q ! # >.>.>.>.>.>.>.>.",
">.;.b c c ,.8 Q Q Q T d l G n.J.j.e v.B.v.y n.N.z.z k.m.M.C p.n.K.p.C k.1 Q Q / Q # >.>.>.>.;.;.>.>.",
">.;.c c c ,.W ..1 @.^ d l G m.J.j.e v.B.v.y k.N.z.z k.m.M.C a.n.K.p.A k.R o.E  .o.# >.>.:.;.;.:.>.>.",
">.>.:.:.>.,.U _ Q ^ | d l Z z.J.l.y v.B.n.e x.N.z.z x.m.M.C a.m.K.i.A x.T ( ^ = ..0 >.>.>.>.>.>.>.>.",
">.>.>.>.>.>.I o.o. .| a l Z n.J.l.e v.B.n.y z.N.z.B m.m.M.A d.b.K.i.C k.:  ...&. .# :.>.>.>.>.>.>.>.",
">.>.>.>.>.>.# # # $ @ x v S s.z.d.v s.l.s.v s.l.s.v s.s.f.S S s.z.S S d.@ # # % % t >.>.>.>.>.>.>.>.",
">.>.>.>.>.>.:.>.>.>.>.>.>.>.>.>.>.>.>.>.>.:.>.>.>.>.>.>.>.>.>.>.>.>.>.>.>.>.>.>.>.1.>.>.>.>.>.:.>.>.",
">.>.>.>.>.>.>.>.>.>.,.>.>.>.>.>.>.>.>.>.>.>.>.>.>.>.>.>.>.>.>.>.>.>.>.>.>.>.>.>.>.>.>.>.>.>.>.>.>.>.",
">.>.>.>.>.>.>.>.>.>.>.>.>.>.>.>.>.>.>.>.>.>.>.>.>.>.>.:.>.>.>.>.>.>.>.>.>.>.>.>.>.>.>.>.>.>.>.>.>.>."
};
