/* XPM */
static char *result[] = {
/* columns rows colors chars-per-pixel */
"50 50 256 2 ",
"   c #091400",
".  c #331508",
"X  c #063412",
"o  c #343006",
"O  c #303428",
"+  c #1D3525",
"@  c #491402",
"#  c #4F0F00",
"$  c #482A00",
"%  c #463606",
"&  c #563A01",
"*  c #503011",
"=  c #773900",
"-  c #673605",
";  c #503428",
":  c #6C3F28",
">  c #054C11",
",  c #385604",
"<  c #30500E",
"1  c #356C10",
"2  c #0F5126",
"3  c #30572B",
"4  c #166F2F",
"5  c #2A7A39",
"6  c #397B3B",
"7  c #2D6E2E",
"8  c #1C600D",
"9  c #4C4704",
"0  c #584504",
"q  c #4A5909",
"w  c #47481A",
"e  c #574A15",
"r  c #545514",
"t  c #654702",
"y  c #734D02",
"u  c #7C4C00",
"i  c #774805",
"p  c #685708",
"a  c #7C5302",
"s  c #795A04",
"d  c #65491A",
"f  c #745716",
"g  c #754716",
"h  c #596718",
"j  c #4C7118",
"k  c #7A6407",
"l  c #6A6517",
"z  c #786518",
"x  c #6A6910",
"c  c #55552D",
"v  c #6F502C",
"b  c #476A29",
"n  c #487628",
"m  c #4F7130",
"M  c #756938",
"N  c #6E6B2F",
"B  c #367749",
"V  c #6C594D",
"C  c #477A47",
"Z  c #506D50",
"A  c #716B4F",
"S  c #6E726B",
"D  c #486952",
"F  c #853A25",
"G  c #844D00",
"H  c #845401",
"J  c #8A5600",
"K  c #855B02",
"L  c #8C5A01",
"P  c #8B560D",
"I  c #855B0B",
"U  c #8A590C",
"Y  c #82500B",
"T  c #915D03",
"R  c #945906",
"E  c #865A12",
"W  c #9D570C",
"Q  c #AA5510",
"!  c #836201",
"~  c #8C6202",
"^  c #87680B",
"/  c #946105",
"(  c #956309",
")  c #9B650B",
"_  c #9D6A0C",
"`  c #976906",
"'  c #99750A",
"]  c #856516",
"[  c #9B6816",
"{  c #8A7318",
"}  c #997717",
"|  c #86700B",
" . c #A46C0D",
".. c #A96A0B",
"X. c #A8740B",
"o. c #B67A0E",
"O. c #A46C13",
"+. c #AB6A17",
"@. c #B76915",
"#. c #AC7314",
"$. c #A5721A",
"%. c #A97418",
"&. c #B47B14",
"*. c #BD7D15",
"=. c #B47C1B",
"-. c #BC7C1B",
";. c #B87517",
":. c #B76A0A",
">. c #8E5533",
",. c #A8543E",
"<. c #B04F3E",
"1. c #866726",
"2. c #986924",
"3. c #977825",
"4. c #846636",
"5. c #976738",
"6. c #8D7937",
"7. c #AA7527",
"8. c #B47C24",
"9. c #BA7826",
"0. c #A96839",
"q. c #AD6D2E",
"w. c #C77A0A",
"e. c #C16416",
"r. c #C27D15",
"t. c #C17D1A",
"y. c #CA7814",
"u. c #C67925",
"i. c #C67028",
"p. c #C15016",
"a. c #8A5947",
"s. c #985546",
"d. c #8B5550",
"f. c #A95747",
"g. c #976847",
"h. c #8B7548",
"j. c #96754A",
"k. c #886759",
"l. c #887959",
"z. c #9B7558",
"x. c #906950",
"c. c #A66648",
"v. c #A5754A",
"b. c #A76B56",
"n. c #A8775B",
"m. c #B47558",
"M. c #B66C4C",
"N. c #8C7269",
"B. c #AE7369",
"V. c #C8785A",
"C. c #388739",
"Z. c #308B34",
"A. c #32A030",
"S. c #468A38",
"D. c #4C9034",
"F. c #388846",
"G. c #369547",
"H. c #32934F",
"J. c #33A859",
"K. c #448944",
"L. c #55854B",
"P. c #479647",
"I. c #4C8654",
"U. c #499556",
"Y. c #5A8D4F",
"T. c #788655",
"R. c #758E4B",
"E. c #44A150",
"W. c #578E68",
"Q. c #798776",
"!. c #71916E",
"~. c #6BAE6C",
"^. c #9A831A",
"/. c #A5841A",
"(. c #BA811C",
"). c #BA8316",
"_. c #AE810B",
"`. c #8D8436",
"'. c #B98426",
"]. c #B88735",
"[. c #AF8933",
"{. c #C58218",
"}. c #C48325",
"|. c #C88D38",
" X c #84875A",
".X c #8B8750",
"XX c #A88458",
"oX c #B1904D",
"OX c #B3A257",
"+X c #858A64",
"@X c #978F70",
"#X c #B48C65",
"$X c #97A67B",
"%X c #A9A673",
"&X c #CB8F4B",
"*X c #DAAB59",
"=X c #D2A952",
"-X c #CC8F6D",
";X c #DCAD67",
":X c #DBB673",
">X c #C8A974",
",X c #E3B667",
"<X c #E9B772",
"1X c #D7C579",
"2X c #ECC37A",
"3X c #F4C479",
"4X c #F0D17E",
"5X c #738A81",
"6X c #91B28C",
"7X c #B4AA8C",
"8X c #B4B192",
"9X c #A89785",
"0X c #DEBA89",
"qX c #DBBA99",
"wX c #C8B690",
"eX c #E8BC88",
"rX c #E4BB9D",
"tX c #EBBCA6",
"yX c #D5BBA2",
"uX c #B3D2AA",
"iX c #98D9A0",
"pX c #C8C395",
"aX c #D8C98A",
"sX c #EAC888",
"dX c #F3CA86",
"fX c #F7D58A",
"gX c #EACA95",
"hX c #E9D497",
"jX c #F5D695",
"kX c #F0CA96",
"lX c #C9C9A7",
"zX c #D4CAAD",
"xX c #C6D4AD",
"cX c #D7CAB3",
"vX c #CBD6B4",
"bX c #D8D7B7",
"nX c #D2D0AC",
"mX c #F4CEA8",
"MX c #EBD7A4",
"NX c #FAD7A9",
"BX c #E9C7B5",
"VX c #F8DEB5",
"CX c #E8CBB2",
"ZX c #C6E2B6",
"AX c #F9E3AA",
"SX c #F9E4B8",
"DX c #EAE9BB",
"FX c #EEE897",
"GX c #FBDCC8",
"HX c #F5D8CF",
"JX c #F8E6C8",
"KX c #FAF3CC",
"LX c #F8EAD5",
"PX c #ECEBD0",
"IX c #FFEDE9",
"UX c #D9F1CD",
/* pixels */
"&X,XfXfXfXAXAXAXSXDXSXSXJXSXSXSXHXIXHXLXJX7X7XPXDXPXGXLXGXGXPXUXPXPXLXPXPXPXPXPXDXPX@XuXLXHXLXIXDXDX",
"[.=X4XfXfXhXhXMXSXVXVXVXVXNXNXNXLXLXGXHXKXA pXDXDXMXVXmXmXGXwXuX8XwXwXHXJXDXDXKXPXDXA 9XPXJXHXHXAXSX",
"[.].;X4XfXsXaXhXhXhXMXmXkXgXgXkXSXNXSXMX7X1XN aXAXMXmXgXkXM 4.* d v g v >XkXMXMXMXSXN pXaXSXVXgXMXMX",
"'.'.].,X4XdXsXfXkXgXsXsXsXsXeXsXdXfXjXaXOXhX#XoX.X:XkXOXg 5.5.0.v.0.XXc.: v.eX>XOXl >X1X>XgXsXAXjXhX",
"'.8.'.|.*X2X3XdXsX2X:X:X;X;X<X<X3X<XfXFXOXhXjX>X>X>.d : j.5.M.V.,.V.-X-X-X5.g XX>XgXkXkXOXfXfXfXdXdX",
"-.9.'.8.].&X*X,X;X=XoX].9.].=X*X<X3X4X1XFX`.kXmXmXqXv N.4.n.f.<.V.s.>.c.B.B.#XB.gXmXgX>.<XjXjX3XdXdX",
";.u.u.9.%.8.|.|.].8.7.$.7.$.8.}.*X,X<X<XaXwXh.tXtXk.V V N.b.s.M.d.d.B.B.k.N.V ; cXqXn.0XNX<X:XfX3X<X",
"{.t.-.-.-.;.#.%.+.#.;.8.=.;.:.o.e.&X,XdXaXqXwXV ; Z S V S V N.d.N.V V V A S V S V V qXBXeXNXdXsX3X3X",
"t.t.t.t.-.-.-.-.-.-.(.t.).r.*.o.+.7.V.;XeXgX+X8XD S 5XS S S 5XN.S 5XQ.5XD 5XQ.S ; 9XwXmXgXsX4X4X3X3X",
"t.r.r.t.t.t.t.-.-.*.-.r.r.*.r.*.'.#.+.i.&X#Xc Z X W.Z !.+ X 3 S !.D + X D W.W.D   c x.aXsX4X2X,X,X;X",
"t.r.t.t.t.r.*.*.*.*.*.*.r.r.*.r.).(.u.i.q.0.q n F.6 U.C S 4 2 4 I.2 2 B H.B W.3 Y. X`.:X:X*X=X=X].].",
"*.*.t.r.r.*.r.r.r.{.*.*.*.o.{.*._.).}.;.;.7.x j 7 P.P.6 B   B I.H.5 X F.W.H.H.F., 9 x [.=X'.'.X.7.$.",
"-.*.*.*.*.*.*.).).r.*.*.&.*.).{._.).).:.t.'.k q , Z.D.C.H.C.5 U.W.B 2 U.Z.C.D.8 j x | } ` ` o.X.8.8.",
"(.-.&.&.&.&.*.).).).*.*.*.*.-.-.{.{.{.w.|.'.$.x q D.C.S.U.4 iX6X6XuX~.5 G.A.D.j < p /.9.-.@.&.X.u.-.",
").(.#.&.o.&.&.(.*.*.*.-.(.(.-.).:.;.{.-.8.%.[.3.q , C.Z.H.> ~.!.D D D 6 U.K.C.< l 6.].9.u.u.}.|.).*.",
").=.&.X.X.o.*.(.*.*.(.(.(.(.=.-.u.t.9.%.'.8.|.7.oXj 8 E.F.> I.Z O 3 B I.I.n 1 R.`.7.].+.|.i.;.u.r.{.",
"'.(.(.).).=.&.=.'.(.(.=.=.&.(.'.u.$.{ ^.o.w.w.y.:.}.G p b Z.~.iXuXiXJ.J.7 - 9.i.t.w.w.{._.X.(.9.(.(.",
"#.%.#.=.=.-.'.'.=.=.&.X.#.#.#.&.u.$.' ' *.y.y.w.{.u.[.z , 6 J.H.L.F.J.Z.o 5.,.9.-.r.w.w._./.8.9.%.=.",
"X. . .#.%.=.'.(.&.#.#. . . .#.#.9.$.` X.;.y.y.-.%.[.[.`.A < > 2 2 > > > R.h.m.} 8.{.w.o././.'.e.#.#.",
" . . .#.#.#.&.%.O.#.X. . . .#.#.$.=.-.-.t.;.t.}.].`.o r e < I.4 6 P.F.< < %   1.} u.{.).^./.%.e. . .",
"#.O. .O. .O.O.+. . . .O.O. . .O.} &.y.i.u.9.9.7.k j < MXMX@XZ U.F.K.Y.S bX%X< q l $.8.'.^.^.@.e.O. .",
" .O.O. .O.O.#... .O.O.O. . .W ) ' X.@.e.9.9.2.] < Y.R.pXmXtXc F.F.Y.3 zXlX$XY.m q f [ 7.^.} +.e.O.O.",
"O.O.O.O.O.O.#.+.O.O.O.O.) ) ( W ' ....@.q.q.] r R.7 ~.bXtXGX6XB F.3 6XCXcXQ.m K.n l z { { } ..:.O.O.",
"O.O.O.O.O.$.$.%.O.O.O.O.O._ _ O.' X...@.+.2.N b Z.Z.iXBXtXtXvX6XY.$XlXbXzXT.L.B L.n h 1.3.O...+.+.O.",
"$. .T W O.%.O.O.O.O.O.O.[ O.O.O.' ` $.[ 7.5.h C.J.4 uXcXtXBXvXuXZXuXbXlX7X+Xm K.P.S., `.[ +. .O.+.[ ",
"$.) R ) [ O.O.O.O.$.O.O.O.O.O.$.X.` } [ 7.1.m G.H.4 uXcXcXcXvXvXlXvXbXpX@X!.Z I.U.F.7 N 2.+.O.} [ $.",
"$.O.) O.O._ ) [ ) O.$.O.[ _ ) O.X.` { } 2.e m G.J.4 lXcXbXvXvXvXnXbXvX9X X XA m U.F.S.r 2.Q %.' $.O.",
"O.O.O.O._ ( T T ) _ O.O.W T ) / .. .} ] ] q D.Z.Z.> 8XcXbXZXvXcXbXnX7X+XT.+XT.3 m F.K.< 1.2.+.| O.$.",
"[  .O.O.) T J J R )  .) T T T T )  .[ I p 1 E.Z.3 O yXbXvXuXvXHXcX8X@Xl.R..XA w 7 C.P.n l [ [ _ [ O.",
"` ( _ _ ) T J J ` ) ) ` T T T L T Q +.U q D.P.C.N : rXCXvXuXcXcX6X@Xz.z.T.R..Xc w 7 K.S.h 3.) [ ( T ",
"T T T ) _ / T T ) ` / / / T T L H Q Q Q , A.Z.b h.g rXcXvXuX8X7XQ.N.z.XX.XR..Xh v 3 S.S.q z R W L T ",
"L L T `  .) ` ) ) ` T / / / T J J Q p.q., A.Z.m g.F tXbXxX8X@XN.!.@Xz.XX.XR..Xe 6.< S.Z.1 x R R J L ",
"H T ( ( ( ( ( ( L L J L L L L L ! ! ] z 0 `.9 r M c 7X7X@Xl.l. X+X Xh.z.N.B.x.p l w w A r k ^ k L L ",
"L T ( T L L L L L L J L L L L L K s s ] 0 f o e M o o % o % * * o * * * ; @ * p l e ; M p ^ ' I T L ",
"U T T L L J J L L L L L L R L J L K s ] 0 % $ 0 N v v h.j.j.h.g.l.j.h.a.; # - k k 9 o % 0 s ~ K L L ",
"L L L L J L L L L L L L L L L L L ~ K ( a $ & t f 1.p j.g.g.v.b.z.j.j.g.v # f | k p - $ y K / J L ~ ",
"L L L L L L T ( ( T L J L L L T H ( L ^ ~ y ^ I I 2.# 0.0.c.c.c.x.v.M.c.>.@ i a s ] 1.i ^ L / J L L ",
"L L L L L J L ( ( T L J L L T U L ( L L ~ K ( L G U = 0.M.m.f.,.v >.f.b.s.# U / s ! E i H u J J L L ",
"T L L L L H J U U / L J L L L L H L H L L L L H T W = 0.q.<.,.,.B.V.M.m.s.# = H / ~ P u G G R ) L L ",
"L L J L L J J L L L L L L L H H u a a L K / H T T G G 0.M.M.M.f.7XM.>.b.b.@ g ~ ! H H P T R R G L ~ ",
"L J H J L T L J L L H L L J G u y y a K K L L L H P - q.M.f.b.s.-Xn.g.b.d.. E ! ! ~ U U L J L P L L ",
"L H G H J L L L L L J L L L H u y y a a K K L L T [ = 0.v.f.b.s.V g.g.z.d.@ f k ! K U P L K J P L L ",
"L H u u H J L L L L L J L J H u y y a a H K L K H P - 5.v.j.z.a.: c.j.x.; . d ! ! ! U P L L K E L L ",
"L J H G H J L L L L L L L L H G y a a H K I I L I E y 3.j.j.h.M $ j.j.V ; . 0 | k ~ U P L K H E L ~ ",
"L L J H L L L L L L L L L J J H H H I I I L L I a s t 1.6.6.h.N - .X1.v . . e k k J P R J L L I L L ",
"L L L L L L L J L L L L L L L J L J L J J L J U ] I & 0 % , o o & s & % . O % 9 ! J R R J L J I L L ",
"L L T L L L L L L R L L L L L J R L R J J L L L I s t z l N N N $ 0 p A l.N.N t K L R G R J L H L L ",
"L L L L L L L L L L L L L L L L J J J J R L T U I ] p z x x h h ^ s p N c V N s ! L R R R T L L L L ",
"L L L L L ~ L L L L L ~ L L L ~ L L L L J L J L L J L L L L L L L L L L K L L L L K L L L L K L L L ",
"L T L L L L L L T L L L L L L L L L J L L L J L L L L J L J J L L L L L L L L L L L L L L L L L L L "
};
