/* XPM */
static char *result[] = {
/* columns rows colors chars-per-pixel */
"50 50 92 1 ",
"  c #BD5D00",
". c #BE6400",
"X c #C25E00",
"o c #C76000",
"O c #CB6500",
"+ c #C36B00",
"@ c #CF6B00",
"# c #C2690F",
"$ c #CB7301",
"% c #CE7B00",
"& c #C6730F",
"* c #D47200",
"= c #D57C04",
"- c #C9721A",
"; c #D48200",
": c #D98400",
"> c #DD8E00",
", c #D2830D",
"< c #DD9200",
"1 c #D48618",
"2 c #E28D00",
"3 c #E88E00",
"4 c #E49300",
"5 c #EE9500",
"6 c #E49B00",
"7 c #ED9B00",
"8 c #F19B00",
"9 c #D4AA00",
"0 c #D9AE00",
"q c #DDB100",
"w c #E3A100",
"e c #EDA300",
"r c #E7AE00",
"t c #EDAB00",
"y c #F5A400",
"u c #F6AC00",
"i c #E3B500",
"p c #EDB200",
"a c #E6BA00",
"s c #ECBD00",
"d c #F5B400",
"f c #F9B700",
"g c #F4BB00",
"h c #F9BC00",
"j c #CB882F",
"k c #D19329",
"l c #D99F29",
"z c #D9A628",
"x c #EDC200",
"c c #F4C300",
"v c #FAC500",
"b c #F5CC00",
"n c #FECC00",
"m c #F4C60F",
"M c #EFD200",
"N c #F4D400",
"B c #FED300",
"V c #F5DB00",
"C c #FDDB00",
"Z c #F4C618",
"A c #F6E400",
"S c #FEE200",
"D c #FDEB00",
"F c #F5E909",
"G c #FCF200",
"H c #FEFB00",
"J c #FEFE0C",
"K c #F3E51D",
"L c #F4C721",
"P c #F3C62C",
"I c #E6C736",
"U c #E8CC39",
"Y c #F1E12F",
"T c #FDFD22",
"R c #FEFD37",
"E c #FDFD39",
"W c #DAA942",
"Q c #E4C346",
"! c #E9CD49",
"~ c #EED940",
"^ c #EAD04D",
"/ c #E4C356",
"( c #E6C758",
") c #F7EE48",
"_ c #F7F04A",
"` c #FDFD4E",
"' c #F5EC5D",
"] c #FDFD51",
"[ c #F8F35F",
"{ c #FCFC66",
"} c #F8F373",
"| c None",
/* pixels */
"||||||||||||||||||||||||||||||||||||||||||||||||||",
"||||||||||||||||||nnvnCCSDDDDD||||||||||||||||||||",
"||||||||||||||||nnnnBCCSCSSSDDGGH|||||||||||||||||",
"||||||||||||||nnnnBBCBvhghhgcbVDGGH|||||||||||||||",
"||||||||||||nnnnnnnnfduuudddgggcNGGH||||||||||||||",
"|||||||||||nnnnBBnfuyuuuuddddggggxVGH|||||||||||||",
"||||||||||nnnnBCBdyyyuuuuddddddhgggNGH||||||||||||",
"|||||||||nnnnBSBfuyyyyyuuudddddghgssMGH|||||||||||",
"|||||||||nnnBSChuuuyyyyuuutdddddggggsNGH||||||||||",
"||||||||nnnBDDvduuuuyyyyyyACddddggggggVHH|||||||||",
"||||||||nnnSDNgdfuuuuyyyyiHHcddddgggsgxAH|||||||||",
"|||||||nnnBGSchddfuuuyyy6GHHDdddddgggggcGH||||||||",
"||||||nnnnDGBghdfduuuuy7MHHHHSuddddhggsgVG||||||||",
"||||||nnnBHGvghhddfduuu6HHHHHHvdddpgdgggxGH|||||||",
"||||||nnnSHVvcgghdduuu6AHHHHHHGduddggggsgVG|||||||",
"|||||nnnnDGvvccggfffdtxHHHHHHHHVuddddddsgxGH||||||",
"|||||nnnnDVcvvccgfhddcDHHGGHHHGGCvdddddsggAG||||||",
"|||||nnnBDBccccvcghbDDGDGGGDDGGGDDVvddgddsVG||||||",
"|||||nnnBSgggvvvcBSDDDDDDDDDDDDDDDDDSbfdgpcG||||||",
"||||nnnnBBdhggvNCCSSSSCCCSCSCCSCSCCSSSSbterDG|||||",
"||||nnnnBnddd%rCCCCCCBCCBCCBCCCBCCBBCBC<7erAD|||||",
"||||nnnvBvudf<+vBBnBBBBBBBBBBnBBnBBBBBc:weeND|||||",
"||||Bnvvnhyudd+<nnnnnnnnnnnnnnnnnnnnnn>7eewbD|||||",
"||||nnvnnfyuudt hnnnnnnnnnnnnnnnBnnnvd477eecD|||||",
"||||nnvvnfyyuud=%nnnnnnnnnnnnnnnnnnnn>7776egD|||||",
"||||vbvvnfyyuudu.tnnnnnnnnnBnnnnnnnBp3777e7xS|||||",
"||||vbbvnfyyyyuf<.nnnBnnnnnnnnnnnnnn277777exS|||||",
"||||bvcvnfyyyyuud+wnnnnnnnnnBnnnnnnt3575767vV|||||",
"||||vvccnvyyyyyuy4 BBBBBBBBBBBBBBBBd5555757bV|||||",
"||||cccxnv8yy85577XNCDSSSSSSSSCDSSDd7555767NC|||||",
"|||||cscvny8555577XVDDDDDDDDGDDGDDDg7555557C||||||",
"|||||cssvn85555557XDGHHGHHHGHGHHHHHc775365tN||||||",
"|||||cxsxnf5555555XSJJJJJJJJJJJJJJJm787455gB||||||",
"|||||gssanv5555555XKTTTTTTTTTTTTTTTm775545bB||||||",
"||||||ssagny555555XYEEERRRRREEEEEEEZe7755en|||||||",
"||||||saasnh555558X~`````)IzU_]]]]]L77675gn|||||||",
"|||||||aaicny55555O^{{[!l,:>$&kQ'{{Py776tnn|||||||",
"|||||||aiianf85555@(}W1=7ettpp6%.j/Ue777cB||||||||",
"||||||||iiicnu5555*-=388eyettpppp6=>ewegV|||||||||",
"||||||||iqqqvn855555555577ettupppprteepVV|||||||||",
"|||||||||qqqibv85555555577yetttppptttpVS||||||||||",
"||||||||||q09snh75555555577eettppptrpVS|||||||||||",
"||||||||||qq09snv85555555578yetuptrsFD||||||||||||",
"|||||||||||9999xnvu7555555777eetrpMGG|||||||||||||",
"|||||||||||||999anngy55555577yeexAGH||||||||||||||",
"||||||||||||||999qvnnvue8585etsNDDG|||||||||||||||",
"||||||||||||||||999ibnnnvvvvvBCVS|||||||||||||||||",
"|||||||||||||||||||990svnnnvvn||||||||||||||||||||",
"||||||||||||||||||||||||||||||||||||||||||||||||||",
"||||||||||||||||||||||||||||||||||||||||||||||||||"
};
