/* XPM */
static char *result[] = {
/* columns rows colors chars-per-pixel */
"50 50 56 1 ",
"  c #AD4A00",
". c #B04602",
"X c #B95300",
"o c #B85B00",
"O c #BB6100",
"+ c #CC7500",
"@ c #D68600",
"# c #D88800",
"$ c #ED9500",
"% c #EC9C00",
"& c #D4AA00",
"* c #DAAE00",
"= c #DDB100",
"- c #E6A400",
"; c #ECA300",
": c #ECAC00",
"> c #F5A400",
", c #F5AB00",
"< c #E2B500",
"1 c #EDB100",
"2 c #E7B900",
"3 c #ECBD00",
"4 c #F5B400",
"5 c #F4BB00",
"6 c #F8BD00",
"7 c #D7A332",
"8 c #EEC000",
"9 c #EDCF00",
"0 c #F4C300",
"q c #F9C500",
"w c #F3CB00",
"e c #FECC00",
"r c #FED400",
"t c #F2D900",
"y c #FDDB00",
"u c #F6E400",
"i c #FEE200",
"p c #F6E900",
"a c #FDEC00",
"s c #FDF300",
"d c #FEFC00",
"f c #FDF713",
"g c #FFFE12",
"h c #FCF62D",
"j c #FEFD2F",
"k c #FDFD31",
"l c #DCAF46",
"z c #FBF542",
"x c #FEFD46",
"c c #F8F257",
"v c #FDFC5C",
"b c #E6C963",
"n c #F4E866",
"m c #F8F069",
"M c #FCFC71",
"N c None",
/* pixels */
"NNNNNNNNNNNNNNNNNNNNNNNNNNNNNNNNNNNNNNNNNNNNNNNNNN",
"NNNNNNNNNNNNNNNNNNNNNNNNNNNNNNNNNNNNNNNNNNNNNNNNNN",
"NNNNNNNNNNNNNNNNNNNNNNNNNNNNNNNNNNNNNNNNNNNNNNNNNN",
"NNNNNNNNNNNNNNNNNNNNNNeeeeriasNNNNNNNNNNNNNNNNNNNN",
"NNNNNNNNNNNNNNNNNNNNeeeeeryiissNNNNNNNNNNNNNNNNNNN",
"NNNNNNNNNNNNNNNNNNNNeeeeere449sNNNNNNNNNNNNNNNNNNN",
"NNNNNNNNNNNNNNNNNNNeeeeeeq,441tdNNNNNNNNNNNNNNNNNN",
"NNNNNNNNNNNNNNNNNNeeeeerr>,4455pNNNNNNNNNNNNNNNNNN",
"NNNNNNNNNNNNNNNNNNreeeey,>>,4466dNNNNNNNNNNNNNNNNN",
"NNNNNNNNNNNNNNNNNeeeeeey,>,,4445pNNNNNNNNNNNNNNNNN",
"NNNNNNNNNNNNNNNNNeeeeei0,>>,y4550dNNNNNNNNNNNNNNNN",
"NNNNNNNNNNNNNNNNeeeeeea4,>>,d4455dNNNNNNNNNNNNNNNN",
"NNNNNNNNNNNNNNNNeeeeeea4,,>>d4453aNNNNNNNNNNNNNNNN",
"NNNNNNNNNNNNNNNNeeeeeey44,>*d5445wNNNNNNNNNNNNNNNN",
"NNNNNNNNNNNNNNNNeeeeeaq64,,ddd4455dNNNNNNNNNNNNNNN",
"NNNNNNNNNNNNNNNeeeeeed6644,ddd4535sNNNNNNNNNNNNNNN",
"NNNNNNNNNNNNNNNeeeeees0q44#ddd4415sNNNNNNNNNNNNNNN",
"NNNNNNNNNNNNNNNereee0sw564uddd6445uNNNNNNNNNNNNNNN",
"NNNNNNNNNNNNNNNeeeee0yq06qssssa415wNNNNNNNNNNNNNNN",
"NNNNNNNNNNNNNNNeeeeq0e005aaiiaaa455NNNNNNNNNNNNNNN",
"NNNNNNNNNNNNNNNeeee0050qiiiiiiiyy5-NNNNNNNNNNNNNNN",
"NNNNNNNNNNNNNNeeeee00,4yyyyyyyyyy+-sNNNNNNNNNNNNNN",
"NNNNNNNNNNNNNNeeee000,4errrerrrre;;aNNNNNNNNNNNNNN",
"NNNNNNNNNNNNNNeeee00w,4Oeeeeeeeee;;aNNNNNNNNNNNNNN",
"NNNNNNNNNNNNNNeeew00q>4oeeeeeeeee%;pNNNNNNNNNNNNNN",
"NNNNNNNNNNNNNNeeq053q>,4eeeeeeee#%;uNNNNNNNNNNNNNN",
"NNNNNNNNNNNNNNee00020>,4-eeeeeer%%;uNNNNNNNNNNNNNN",
"NNNNNNNNNNNNNNeq00320>>, eeeeeee%%%uNNNNNNNNNNNNNN",
"NNNNNNNNNNNNNNeq08325>>,+eeeeeee$%%tNNNNNNNNNNNNNN",
"NNNNNNNNNNNNNN0083222>>>;yrryryy$$%tNNNNNNNNNNNNNN",
"NNNNNNNNNNNNNNN0032<<,>$%iiiiiii$$%NNNNNNNNNNNNNNN",
"NNNNNNNNNNNNNNN832<<=,$$%asasaaa$$%NNNNNNNNNNNNNNN",
"NNNNNNNNNNNNNNN032<==4$$$dddddds%$%NNNNNNNNNNNNNNN",
"NNNNNNNNNNNNNNN33<==&q$$$ggggggf%$1NNNNNNNNNNNNNNN",
"NNNNNNNNNNNNNNN32<==&e$$$jjjkkkh%$qNNNNNNNNNNNNNNN",
"NNNNNNNNNNNNNNN22==&&e$$$xxxxxxz%$eNNNNNNNNNNNNNNN",
"NNNNNNNNNNNNNNNN<=*&&0$$$vvvX7vc%%eNNNNNNNNNNNNNNN",
"NNNNNNNNNNNNNNNN==*&&&>$$Mn%:4lm%-NNNNNNNNNNNNNNNN",
"NNNNNNNNNNNNNNNN==&&&&e$$b$;:4:.-3NNNNNNNNNNNNNNNN",
"NNNNNNNNNNNNNNNN=&&&&&e$$$$>;11-;yNNNNNNNNNNNNNNNN",
"NNNNNNNNNNNNNNNNN&&&&&0%$$$%;:1-;yNNNNNNNNNNNNNNNN",
"NNNNNNNNNNNNNNNNN&&&&&&q$$$$;:1:9NNNNNNNNNNNNNNNNN",
"NNNNNNNNNNNNNNNNNN&&&&&e$$$$%;1:aNNNNNNNNNNNNNNNNN",
"NNNNNNNNNNNNNNNNNN&&&&&3q$$$%;:9aNNNNNNNNNNNNNNNNN",
"NNNNNNNNNNNNNNNNNNN&&&&&e,$$$%8dNNNNNNNNNNNNNNNNNN",
"NNNNNNNNNNNNNNNNNNNN&&&&*e,$$-pNNNNNNNNNNNNNNNNNNN",
"NNNNNNNNNNNNNNNNNNNN&&&&&8eeweiNNNNNNNNNNNNNNNNNNN",
"NNNNNNNNNNNNNNNNNNNNNN&&&&<eeeNNNNNNNNNNNNNNNNNNNN",
"NNNNNNNNNNNNNNNNNNNNNNNNNNNNNNNNNNNNNNNNNNNNNNNNNN",
"NNNNNNNNNNNNNNNNNNNNNNNNNNNNNNNNNNNNNNNNNNNNNNNNNN"
};
