/* XPM */
static char *result[] = {
/* columns rows colors chars-per-pixel */
"50 50 40 1 ",
"  c #D4AA00",
". c #D5AB00",
"X c #D6AB00",
"o c #D8AD00",
"O c #D9AD00",
"+ c #D9AE00",
"@ c #DBB000",
"# c #DCB000",
"$ c #DCB100",
"% c #DEB200",
"& c #DFB300",
"* c #E1B400",
"= c #E1B500",
"- c #E2B600",
"; c #E4B700",
": c #E6B800",
"> c #E7B900",
", c #E7BA00",
"< c #E9BB00",
"1 c #E9BC00",
"2 c #EABC00",
"3 c #ECBD00",
"4 c #EDBE00",
"5 c #F0C000",
"6 c #F0C100",
"7 c #F3C200",
"8 c #F3C300",
"9 c #F6C500",
"0 c #F6C600",
"q c #F9C700",
"w c #F9C800",
"e c #FAC800",
"r c #FCC900",
"t c #FCCA00",
"y c #FCCB00",
"u c #FDCB00",
"i c #FECB00",
"p c #FECC00",
"a c #FFCC00",
"s c None",
/* pixels */
"ssssssssssssssssssssssuuuuuussssssssssssssssssssss",
"ssssssssssssssssssssssuuuuuussssssssssssssssssssss",
"ssssssssssssssssssssssuuuuuussssssssssssssssssssss",
"ssssssssssssssssssssssiuuuuussssssssssssssssssssss",
"ssssssssssssssssssssssiuuuuussssssssssssssssssssss",
"ssssssssssssssssssssssiuuuuussssssssssssssssssssss",
"ssssssssssssssssssssssiuuuuussssssssssssssssssssss",
"sssssssssssssssssssssiiuuuuutsssssssssssssssssssss",
"ssssssssssssssssssssiiiuuuuutsssssssssssssssssssss",
"ssssssssssssssssssssiiiuuuuutsssssssssssssssssssss",
"ssssssssssssssssssssiiiuuuuutsssssssssssssssssssss",
"ssssssssssssssssssssiiiuuuuutsssssssssssssssssssss",
"ssssssssssssssssssssppiuuuuutsssssssssssssssssssss",
"ssssssssssssssssssssiiiuuuuuysssssssssssssssssssss",
"ssssssssssssssssssssaaiuuuuuusssssssssssssssssssss",
"ssssssssssssssssssssiiiuuuuuusssssssssssssssssssss",
"ssssssssssssssssssssiiiuuuuutsssssssssssssssssssss",
"ssssssssssssssssssssaaiuuuuuusssssssssssssssssssss",
"ssssssssssssssssssssppiuuuuuusssssssssssssssssssss",
"ssssssssssssssssssssppiuuuuuusssssssssssssssssssss",
"ssssssssssssssssssssiiiuuuuuusssssssssssssssssssss",
"ssssssssssssssssssssaaiuuuuuusssssssssssssssssssss",
"ssssssssssssssssssssiiiuuuuuusssssssssssssssssssss",
"ssssssssssssssssssssiiiuuuuuusssssssssssssssssssss",
"ssssssssssssssssssssaaiuuuuuusssssssssssssssssssss",
"ssssssssssssssssssssaaiuuuuuusssssssssssssssssssss",
"ssssssssssssssssssssaaiuuuuuusssssssssssssssssssss",
"ssssssssssssssssssssppiuuuuuusssssssssssssssssssss",
"ssssssssssssssssssssiiiuuuuuusssssssssssssssssssss",
"ssssssssssssssssssssiiiuuuuuusssssssssssssssssssss",
"ssssssssssssssssssssaaiuuuuuusssssssssssssssssssss",
"ssssssssssssssssssssppiuuuuuusssssssssssssssssssss",
"ssssssssssssssssssssiitttttttsssssssssssssssssssss",
"ssssssssssssssssssssrrweeeeqwsssssssssssssssssssss",
"ssssssssssssssssssssqq9000090sssssssssssssssssssss",
"ssssssssssssssssssss998888888sssssssssssssssssssss",
"ssssssssssssssssssss775666656sssssssssssssssssssss",
"ssssssssssssssssssss554444444sssssssssssssssssssss",
"ssssssssssssssssssss332222212sssssssssssssssssssss",
"ssssssssssssssssssss<<>>>>,>,sssssssssssssssssssss",
"ssssssssssssssssssss::;;;;;;;sssssssssssssssssssss",
"ssssssssssssssssssss--*======sssssssssssssssssssss",
"ssssssssssssssssssss&&%&&&&%%sssssssssssssssssssss",
"ssssssssssssssssssss$$@####@@sssssssssssssssssssss",
"sssssssssssssssssssss+oOOOOoosssssssssssssssssssss",
"ssssssssssssssssssssss....X.ssssssssssssssssssssss",
"ssssssssssssssssssssss      ssssssssssssssssssssss",
"ssssssssssssssssssssss      ssssssssssssssssssssss",
"ssssssssssssssssssssss      ssssssssssssssssssssss",
"ssssssssssssssssssssss      ssssssssssssssssssssss"
};
