/* XPM */
static char *result[] = {
/* columns rows colors chars-per-pixel */
"50 50 68 1 ",
"  c #C56C08",
". c #C7720D",
"X c #D38201",
"o c #D68F00",
"O c #D98C00",
"+ c #DE9300",
"@ c #DD9901",
"# c #DE970B",
"$ c #D88313",
"% c #D68519",
"& c #D58E1E",
"* c #DE9514",
"= c #DE931A",
"- c #E48800",
"; c #E49500",
": c #ED9500",
"> c #E69900",
", c #EB9B00",
"< c #F19C00",
"1 c #D4AA00",
"2 c #DAAE00",
"3 c #DEB200",
"4 c #E5A300",
"5 c #EBA300",
"6 c #ECAD00",
"7 c #F5A500",
"8 c #F5AB00",
"9 c #E3B600",
"0 c #EEB100",
"q c #E7B900",
"w c #ECBD00",
"e c #F4B400",
"r c #FAB700",
"t c #F4BB00",
"y c #FABC00",
"u c #D59723",
"i c #D19330",
"p c #E2BE3F",
"a c #EEC200",
"s c #F3C300",
"d c #F9C400",
"f c #F4CC00",
"g c #FECC00",
"h c #F5D300",
"j c #FDD400",
"k c #F4DA00",
"l c #FEDD00",
"z c #F6E500",
"x c #FDE400",
"c c #F6E800",
"v c #FDEC00",
"b c #FBEB09",
"n c #FCF500",
"m c #FDFC00",
"M c #FFFE09",
"N c #FAEA19",
"B c #FEFD1E",
"V c #FAEA2B",
"C c #F9E93C",
"Z c #FEFD34",
"A c #F3DF57",
"S c #F4E740",
"D c #F7E84B",
"F c #FCF947",
"G c #FEFD49",
"H c #FDFB5D",
"J c #F5EC69",
"K c None",
/* pixels */
"KKKKKKKKKKKKKKKKKKKKcxlgggggKKKKKKKKKKKKKKKKKKKKKK",
"KKKKKKKKKKKKKKKKKKnnxxllgggggKKKKKKKKKKKKKKKKKKKKK",
"KKKKKKKKKKKKKKKKKKnkssgjjgggggKKKKKKKKKKKKKKKKKKKK",
"KKKKKKKKKKKKKKKKKnhwee8rgggggggKKKKKKKKKKKKKKKKKKK",
"KKKKKKKKKKKKKKKKmcs0ee88ygggggggKKKKKKKKKKKKKKKKKK",
"KKKKKKKKKKKKKKKKnfweee878jggggggKKKKKKKKKKKKKKKKKK",
"KKKKKKKKKKKKKKKKcwtee8877dlggggggKKKKKKKKKKKKKKKKK",
"KKKKKKKKKKKKKKKnfweee8777eljgggggKKKKKKKKKKKKKKKKK",
"KKKKKKKKKKKKKKKnsweed68788jlggggggKKKKKKKKKKKKKKKK",
"KKKKKKKKKKKKKKKztteeld778edxggggggKKKKKKKKKKKKKKKK",
"KKKKKKKKKKKKKKmhweeevk778eyxggggggKKKKKKKKKKKKKKKK",
"KKKKKKKKKKKKKKnsweetmv78reyxgggggggKKKKKKKKKKKKKKK",
"KKKKKKKKKKKKKKcseeehmm68retxjggggggKKKKKKKKKKKKKKK",
"KKKKKKKKKKKKKKzteeexmms8eedklggggggKKKKKKKKKKKKKKK",
"KKKKKKKKKKKKKKkweeenmmk8eysjxggggggKKKKKKKKKKKKKKK",
"KKKKKKKKKKKKKKheeedmmmceetdfxdgggggKKKKKKKKKKKKKKK",
"KKKKKKKKKKKKKnst0tvnnnnjedddxdggggggKKKKKKKKKKKKKK",
"KKKKKKKKKKKKKnw0txnvvvnvgsdtkddgggggKKKKKKKKKKKKKK",
"KKKKKKKKKKKKKc0tlxxxxxxxxgdtlsfgggggKKKKKKKKKKKKKK",
"KKKKKKKKKKKKKx6allllllxlllstgsddggggKKKKKKKKKKKKKK",
"KKKKKKKKKKKKKk54jljjljjljjordssfgjggKKKKKKKKKKKKKK",
"KKKKKKKKKKKKKk5;ggjgjgjgjgOeyssddgggKKKKKKKKKKKKKK",
"KKKKKKKKKKKKKh5>sjgggggggeO8yswsddggKKKKKKKKKKKKKK",
"KKKKKKKKKKKKKh5>egggggggg448rswsdgggKKKKKKKKKKKKKK",
"KKKKKKKKKKKKKh5>0ggggggggOe7rtwasdggKKKKKKKKKKKKKK",
"KKKKKKKKKKKKKf,5,ggggggggX87rawasdfgKKKKKKKKKKKKKK",
"KKKKKKKKKKKKKf,>;ggggggge+87ywqwssdgKKKKKKKKKKKKKK",
"KKKKKKKKKKKKKf,::dgggggg4587yqqwwsdfKKKKKKKKKKKKKK",
"KKKKKKKKKKKKKh>::djjjjjjO777yqqqwsddKKKKKKKKKKKKKK",
"KKKKKKKKKKKKKh:>:hxxlxlxO<:7y99qqssdKKKKKKKKKKKKKK",
"KKKKKKKKKKKKKh::,lxvvvxv+<:<d39qqwssKKKKKKKKKKKKKK",
"KKKKKKKKKKKKKj>::xmnnmnn@:::y229qwwsKKKKKKKKKKKKKK",
"KKKKKKKKKKKKKh,:,bMMMMMM@:::s2399qwKKKKKKKKKKKKKKK",
"KKKKKKKKKKKKKK6:,NBBBBBB#::<s1299qwKKKKKKKKKKKKKKK",
"KKKKKKKKKKKKKK8:,VZZZZZZ#::7w1139qqKKKKKKKKKKKKKKK",
"KKKKKKKKKKKKKKe>,SGGSFGG*::8q1133qqKKKKKKKKKKKKKKK",
"KKKKKKKKKKKKKKs,>DHp uHH=::e311329qKKKKKKKKKKKKKKK",
"KKKKKKKKKKKKKKg55AiX0,&J=::y111123KKKKKKKKKKKKKKKK",
"KKKKKKKKKKKKKKK05.;065<%$::s111123KKKKKKKKKKKKKKKK",
"KKKKKKKKKKKKKKKs540667::-:7w111122KKKKKKKKKKKKKKKK",
"KKKKKKKKKKKKKKKk650055::::y311111KKKKKKKKKKKKKKKKK",
"KKKKKKKKKKKKKKKxw4665,:::,d111111KKKKKKKKKKKKKKKKK",
"KKKKKKKKKKKKKKKKh9657<:::8w111111KKKKKKKKKKKKKKKKK",
"KKKKKKKKKKKKKKKKna65,,::<g211111KKKKKKKKKKKKKKKKKK",
"KKKKKKKKKKKKKKKKnc65,:::es111111KKKKKKKKKKKKKKKKKK",
"KKKKKKKKKKKKKKKKKnf4:::8g911111KKKKKKKKKKKKKKKKKKK",
"KKKKKKKKKKKKKKKKKKxf55egq11111KKKKKKKKKKKKKKKKKKKK",
"KKKKKKKKKKKKKKKKKKKhgggs11111KKKKKKKKKKKKKKKKKKKKK",
"KKKKKKKKKKKKKKKKKKKKdga2111KKKKKKKKKKKKKKKKKKKKKKK",
"KKKKKKKKKKKKKKKKKKKKKKKKKKKKKKKKKKKKKKKKKKKKKKKKKK"
};
