/* XPM */
static char *result[] = {
/* columns rows colors chars-per-pixel */
"50 50 82 1 ",
"  c #AA3C00",
". c #AB4600",
"X c #AD4A00",
"o c #B14501",
"O c #B64B00",
"+ c #B1490A",
"@ c #B15000",
"# c #BE5300",
"$ c #BC5A00",
"% c #B7570C",
"& c #C05F00",
"* c #C26A00",
"= c #C67200",
"- c #CC7400",
"; c #CF7F00",
": c #D27600",
"> c #D77C00",
", c #DA7E00",
"< c #CF8100",
"1 c #D28200",
"2 c #DF8500",
"3 c #D78900",
"4 c #DC8B00",
"5 c #DA9100",
"6 c #D49E00",
"7 c #C8801D",
"8 c #E58C00",
"9 c #E98F00",
"0 c #E59400",
"q c #ED9500",
"w c #E79E00",
"e c #EC9C00",
"r c #F09700",
"t c #F19C00",
"y c #D4AA00",
"u c #D9AE00",
"i c #DDB200",
"p c #E4A000",
"a c #ECA300",
"s c #EDAC00",
"d c #F6A400",
"f c #F6AC00",
"g c #E2B500",
"h c #EEB200",
"j c #E7B900",
"k c #ECBD00",
"l c #F5B400",
"z c #F4BB00",
"x c #F8BB00",
"c c #CB8727",
"v c #CB862E",
"b c #DBAE3D",
"n c #EFC200",
"m c #ECCC00",
"M c #F5C300",
"N c #F9C500",
"B c #F3CA00",
"V c #FECC00",
"C c #F5D400",
"Z c #FED400",
"A c #F3DC00",
"S c #FDDB00",
"D c #F4E300",
"F c #FEE300",
"G c #F7EB00",
"H c #FDEC00",
"J c #F7F600",
"K c #FCF400",
"L c #FEFC00",
"P c #FEFE0F",
"I c #FEFE11",
"U c #FDFD23",
"Y c #FEFD3F",
"T c #D7A442",
"R c #FDFD41",
"E c #FDFC53",
"W c #F2E469",
"Q c #FCFC65",
"! c #FCFC68",
"~ c #F7F070",
"^ c #FCFC7A",
"/ c None",
/* pixels */
"//////////////////////////////////////////////////",
"///////////////////GGHHFFFFZNVVV//////////////////",
"/////////////////KKHHGHHFFSSSZNVVV////////////////",
"///////////////JJKGACBNxNBNSSZZVVVVV//////////////",
"//////////////JJGAMzzxlllfffzVZVVVVVV/////////////",
"////////////LLGBzzzlxlllflfffddNVZZVVV////////////",
"///////////JJDnkzzzxlxfllffdddddMZSVVVV///////////",
"//////////LJDMzzzzzllllfffffdddddNSFVVVV//////////",
"/////////JLJMkzzzzlllllfffdddddfffNFFVVVV/////////",
"////////JLJMzkzzlzllllK0fddddddfffxZFHVVVV////////",
"////////LJBkzzzlzlllfZLDffddddfffllxFHVVVV////////",
"////////JAzzzzzzllllfLLL>dddfffffllzNHHVVVV///////",
"///////JDMkzzzzlzlflLLLLL-ddffflllxzzCKSVVV///////",
"//////JLBklkzlzlllfLLLLLLLtdfffllxlxxNLLVVVV//////",
"//////JJzklzzllllffLLLLLLLyffflxlzzMMMLLZVVV//////",
"//////KGkzzhzlllllHLLLLLLLLfffllxzxxzNSLHVVVV/////",
"/////KKMhzhllllllKLLLLLKLLLilxllzNzMMNMKHVVVV/////",
"/////KGkzklzlllFHKHKKKKKKKKKHNxzzzMNNMzSFZVVV/////",
"/////KDzhzllzFHHHHHHHHHHHHHHHHHxzMMNNMzMFSVVVV////",
"////KGjslhlFFFFFFFFFFFFFFFFFFHFFFNNBMzzxFSVVVV////",
"////KGasa=SSSSSSSSSSSSSSSSSSSSSSSSSzfxllZZVVVV////",
"////GFaap4ZZZZZZZZZZZZZZZZSZZZZSZZZ.1xlfVZNVVV////",
"////GAapae&VZVVVVVVVVVVZVZVVVZVVVZV.llffNVNVVV////",
"////GCaaweeNVVVVVVVVVVVVVVVVVVVVVV1sllfdxVNVVV////",
"////FBawewe>VVVVVVVVVVVVVVVVVVVVV5OllfddlVNBNV////",
"////FmpeeweeVVVVVVVVVVVVVVVVVVVVV.slffddfVNNNV////",
"////FBeeeeee-VVVVVVVVVVVVVVVVVVV**lffdddlVNNNN////",
"////DBpeeeee8VVVVVVVVVVVVVVVVVVV.llfddddxVMNBV////",
"////SCeewqeqq,VVZVVVVVVVVVVVVVV flfdddddNVMMMN////",
"////SAweeqqqrqSSZSSSSZSZSZSZZSSOdeadddtdNVMMBN////",
"////ASawq0qqqeFFFFFFFFFFFSFFSFF:errqrdddVVzMMN////",
"////SCaq0qqrerHHHHHHHHHHHHHHHHH>qrrrrrrdVVnnMM////",
"/////ZMqq0qqeeLLLLLLLLLLLLLLLLL2qqqrrr9fVMkMM/////",
"/////CBe0q0eeeIIIIIIIIIIIIPIIII8qqqqqrrNVkknk/////",
"/////ZZp90qetaUUUUUUUUUUUUUUUIU9qqqqqreVVjkzn/////",
"//////NNqqwqaaRRRRRRRRRRYYYYYYYqqqrqrrxVkjkk//////",
"//////NVe0eetaEEEEEEEc%EEEEEEEEqr9rrqqVVjjjk//////",
"///////Cseewaa!!!!T #ps4ocQQQQQqrr9rqrVMjjj///////",
"///////VBaweaa^T+O3hhssdda,v~^Wqq9rqqxVgggj///////",
"////////ZCawaawshhhhsssaaeeqrq#qqrrqlVgigg////////",
"////////SAnpaasshhhhssaaeeqqqqqqqqqsVViigg////////",
"/////////SFkasshhhhssadatrqrqqqqqqrVVguii/////////",
"//////////FHsssshhhsdaterqqqqqqqrqlVnuuii/////////",
"///////////GGmsgsssaaaerqqqrqqqraVVuyyu///////////",
"////////////JKDhssaaaerqqqqrqqqlVVNyyy////////////",
"/////////////JJDnaaaterqqqqqrelVVkyyyy////////////",
"//////////////JGHCjwerqqqqqaxVVVuyyy//////////////",
"////////////////DSSZZNVVVVVVVNiyyy////////////////",
"///////////////////ZNNVVVVVkyyyy//////////////////",
"//////////////////////////////////////////////////"
};
