/* XPM */
static char *_be045f70d4d47b9e2799a1125218639mZfOH0MtOsX5rdW6[] = {
/* columns rows colors chars-per-pixel */
"50 50 178 2 ",
"   c #17130F",
".  c #191612",
"X  c #1F1B14",
"o  c #231C12",
"O  c #291F14",
"+  c #262116",
"@  c #2A221B",
"#  c #32271B",
"$  c #342A1E",
"%  c #3A2D1F",
"&  c #2C2722",
"*  c #352C22",
"=  c #3B2E22",
"-  c #373126",
";  c #3C3225",
":  c #3C332A",
">  c #3F382F",
",  c #3E3A33",
"<  c #33363A",
"1  c #402D1E",
"2  c #402E20",
"3  c #433325",
"4  c #4B3727",
"5  c #4D3827",
"6  c #42362B",
"7  c #4B3728",
"8  c #453A2D",
"9  c #4C392A",
"0  c #523E2D",
"q  c #453D33",
"w  c #4B3D32",
"e  c #413D39",
"r  c #4F412F",
"t  c #55412E",
"y  c #5A452E",
"u  c #5B482F",
"i  c #4C4235",
"p  c #4E463B",
"a  c #4E483D",
"s  c #534333",
"d  c #5B4632",
"f  c #544837",
"g  c #5C4833",
"h  c #534639",
"j  c #55493E",
"k  c #5C4C3C",
"l  c #644D36",
"z  c #684F36",
"x  c #654D39",
"c  c #65533F",
"v  c #6E533D",
"b  c #71553F",
"n  c #755A3F",
"m  c #474341",
"M  c #494644",
"N  c #4C4946",
"B  c #564B41",
"V  c #5A4F43",
"C  c #504D49",
"Z  c #5D5242",
"A  c #545049",
"S  c #624F40",
"D  c #635443",
"F  c #695643",
"G  c #6A5944",
"H  c #655748",
"J  c #685648",
"K  c #645A4D",
"L  c #6B5C49",
"P  c #745741",
"I  c #755A42",
"U  c #7C5D45",
"Y  c #735E4A",
"T  c #7A5F49",
"R  c #665D51",
"E  c #6A614E",
"W  c #7F6046",
"Q  c #75634E",
"!  c #7D624A",
"~  c #6B6252",
"^  c #726453",
"/  c #7A6955",
"(  c #736658",
")  c #7B6D5F",
"_  c #805F46",
"`  c #816147",
"'  c #85644A",
"]  c #836D54",
"[  c #846F5B",
"{  c #847156",
"}  c #86765E",
"|  c #8C765C",
" . c #947D5F",
".. c #8E7861",
"X. c #937C61",
"o. c #957D61",
"O. c #967E61",
"+. c #957D64",
"@. c #957D60",
"#. c #987E60",
"$. c #927E6B",
"%. c #968060",
"&. c #9A8264",
"*. c #9F876A",
"=. c #9E8669",
"-. c #A18768",
";. c #A2876A",
":. c #A2866B",
">. c #A3886A",
",. c #A5886D",
"<. c #A68C6C",
"1. c #A78C6F",
"2. c #A58B6C",
"3. c #A98E6E",
"4. c #AD916F",
"5. c #AB906F",
"6. c #A78E71",
"7. c #A68D71",
"8. c #A98E71",
"9. c #AA8E71",
"0. c #AB8F72",
"q. c #AA8F71",
"w. c #A69175",
"e. c #A89070",
"r. c #AB9073",
"t. c #AD9071",
"y. c #AF9271",
"u. c #AF9371",
"i. c #AF9172",
"p. c #AF9173",
"a. c #AE9173",
"s. c #AD9272",
"d. c #AF9272",
"f. c #AE9372",
"g. c #AF9372",
"h. c #AE9373",
"j. c #AF9373",
"k. c #AE9273",
"l. c #AF9472",
"z. c #AF9473",
"x. c #AB9174",
"c. c #AA9374",
"v. c #AD9374",
"b. c #AF9274",
"n. c #AF9374",
"m. c #AF9275",
"M. c #AE9374",
"N. c #AF9376",
"B. c #AE9376",
"V. c #AE9372",
"C. c #B09370",
"Z. c #B09271",
"A. c #B09371",
"S. c #B09172",
"D. c #B09173",
"F. c #B09272",
"G. c #B09372",
"H. c #B09273",
"J. c #B09373",
"K. c #B19373",
"L. c #B29373",
"P. c #B09471",
"I. c #B09472",
"U. c #B09473",
"Y. c #B19473",
"T. c #B09174",
"R. c #B09274",
"E. c #B09374",
"W. c #B19374",
"Q. c #B09275",
"!. c #B09375",
"~. c #B09474",
"^. c #B19474",
"/. c #B19574",
"(. c #B09475",
"). c #B19475",
"_. c #B09476",
"`. c #B09373",
/* pixels */
"< j B B B B B B h i B j j j j j j j j B B B j j j j j j j f j j j j V j j V j j f i j B j j j j f < ",
"a (.E.M.D.E.D.L.D.D.E.D.C.D.C.4.D.C.I.D.I.C.D.I.I.D.g.D.D.D.I.D.4.P.l.I.D.I.I.4.(.I.I.I.I.D.D.I.E.m ",
"a N.E.g.g.r.D.D.D.g.D.D.D.l.g.g.D.C.D.D.I.D.I.4.D.l.g.g.I.D.D.D.4.P.l.l.D.C.D.D.D.M.I.l.M.E.(.(.E.m ",
"a M.M.g.g. .* @ @ @ @ & @ @ @ @ @ @ @ @ @ @ @ @ @ @ @ @ @ @ @ @ @ @ @ @ @ @ @ @ @ @ # L g.g.l.l.M.m ",
"p (.M.g.g.c.K X # # # # # # # # # # # # # # # # # # # $ # # # # $ # # # # # # @ # . ; 0.g.N.I.(.D.m ",
"p I.I.g.g.M.g.^ & g x z x x z z z z l z c l l z l l z z z l l l z z l l l l l l $ 8 3.I.g.g.D.M.D.m ",
"p I.g.M.0.M.E.g.K s ` ' ' ' ' ' ' ' ' ' ` ' ' ' ' ' ' ' ' ' ' ' ' ' ' ' ' ' ` t : 2.D.I.g.] =.g.D.m ",
"a I.g.+.h 0.c.g.D.L : U ' ' ' ' ' ' ' ' ' ' ' ' ' ' ' ' ' ' ' ' ' ' ' ' ' ' 4 : 3.I.D.L.K X o.I.g.N ",
"p N.l. .* F 0.M.g.c.J 8 ` ' ' ' ' ' ' ' ' ` ' ' ' ' ' ' ' ' ' ` ' ' ' ' ' t = >.E.M.6.K s 3  .g.g.M ",
"a /.l.X.s f g g.M.M.N.J : W ' ' ' ' ' ' ' ' ' ' ' ' ' ' ' ' ' ' ' ' ' ' 0 ; 1.D.E.M.J q P 0 o.(.g.N ",
"i l.(.X.0 I j J 0.M.N.e.G 8 U U ` ` _ U ` W W W ` ` W ` W _ ` ` W W _ t ! >.l.g.0.K 0 I n 4 o.(.M., ",
"i l.N.X.= d g * D g.g.l.l.j # f g g d y d d d y u u d d d d d d d y = $ *.N.g.M.^ . 5 d d % o.I.(.N ",
"N l.D.X.3 l z l w G 4.I.D.6.D * l z x l c z l c l l l z z l l l l ; G 2.M.g.0.R 8 g x x l 1  .l.E.A ",
"a g.g.X.s ' ' ' ' 6 J M.I.(.g.Z 9 ` ` ` ` ' ` ' ' ' ` ' ' ' ' ' g ; &.g.T.g.[ > T ' ' ' U 5  .I.E.N ",
"a g.D.o.0 ' ' ' ' ` k Y l.N.l.r.H 7 ! ' ' ' ' ' ' ' ' ' ' ' ` d c <.g.g.0.K i W ' _ ' ' I 9  .g.E.N ",
"N g.I.o.t ' ' ' ' ' ' ; Q g.N.l.0.j w ` ' ' ' ' ' ' ' ' ' ' x * &.4.g.0.( : U ` ' ' ' ' U 9 o.g.M.m ",
"a D.T.X.0 ' ' ' ' ' ' ! k Q M.D.E.0.k 7 ' ' ' ` ' ' ' ` ' x s c.g.g.4.E i ` ` ' ' ' ' ' I 5  .g.l.m ",
"a D.E.X.7 x x x z c x l x 6 * =.E.N.0.V - x z x x z z z s Q &.E.D.g.h = k z z z l l x x l 3 o.I.g.N ",
"a I.E.X.= g g g d f d d d s - i N.M.M.g.h # d d f d d 3 ; g.D.D.D.^ * f d d d d y u d f d 1 o.g.g.N ",
"a N.E.+.0 _ _ ' _ _ ' W ` W W v 6 %.l.4.3.j : U ` U z ^ ,.E.g.g.V w T ` U ` _ ` W W W W I 9 o.l.M.M ",
"j I.I.X.0 ' ' ' ' ' ' ' ' ' ' ' i x 0.g.g.2.8 h ` v ; l.M.D.4./ q _ ' ' ' ' ' ' ' ' ' ' U 9  .l.M.m ",
"a (.I.X.d ' ' ' ' ' ' ' ' ' ' ' ' f = &.g.g.r.s 6 Y <.I.D.D.D ; ` ' ' ' ' ' ' ' ' ' ' ] U 9  .l.l.N ",
"j D.I.o.d ' ' ' ' ' ' ' ' ' ' ' ' ` w ^ 1.g.g.2.f 4.l.D.4.) q U ] ` ' ' ' ' ' ' ' ' ' ' U 5  .D.N.M ",
"N I.D.X.0 ' ' ] ' ' ' ' ' ' ' ' ' ' ' h * -.S.D.g.g.D.I.^ * ! ' ' ' ' ] ' ' ' ' ' ' ' ' U 5  .D.l.M ",
"j I.g. .3 z x l x l x x l x z x z z z k = ; g.g.g.g.0.J * g z x z z z l l l z l l z z z l 3 X.g.l.N ",
"i I.g. .% d d d g g d d d d d f f d y d 9 D g.D.I.M.6.: ; d f d u u d y d d g d d d d d d =  .g.(., ",
"i M.g. .0 _ W W ` ` ` _ U U ` ` _ ` W 3 Z M.N.l.l.D.g.6.( 6 U _ W W W ` W W W ` W W ` U b 4 o.D.(., ",
"V l.g. .t ' ' ' ' ' ' ' ' ' ' ' ' _ P F r.l.l.l.$.0.D.l.;.6 f ' ' ` ' ' ' ' ' ' ' ' ' ' U 5 o.g.I.m ",
"V D.L.X.t ' ' ' ' ' ' ' ` ' ' ' ' 9 g r.I.l.I.J # 6 >.g.M.5.H h ' ' ' ' ' ' ' ' ' ' ' ' U 5 o.g.(.m ",
"B D.S. .0 ' ' ' ' ' ' ' ' ' ' ` n z <.N.I.4.} = I ; 8 0.E.D.=.; k ` ' ' ' ' ' ' ' ' ' ' I 9 #.g.I.m ",
"a g.L. .0 ' ' ' ' ' ' ' ' ' ' d w g.(.(.D.Q o T ' ' 3 8 <.g.g.r.j k ' ' ' ' ' ' ' ' ' ' U 9 o.l.I.m ",
"a g.L.#.5 n n I I I I I I P 3 k 1.I.I.D.^ O z I P P n % 8 <.g.l.;.~ h P U I n n I n n U v 4  .l.I.m ",
"i M.E.X.2 l d g g g g d g : q r.D.D.g./ X 0 d g l d d d # w r.g.D.r.q 3 g g f d g g g g g 1  .I.l.m ",
"a M.E.X.0 ` W _ ` _ W W 3 8 <.D.D.E.! q I _ _ U U U U U T 6 i <.l.I.1.R V W _ _ U _ W W n 5 o.I.l.M ",
"a l.E.X.0 ' ' ' ' ' ' 9 6 >.l.g.D.] @ P ' ' ' ' ' ' ' ' ' ` = B 0.D.M.c., x ' ' ' ' ' ' U 9  .g.(.m ",
"j D.D.X.s ' ' ' ' ' 9 6 <.D.C.D.[ ; U ' ' ' ' ' ' ' ' ' ' ' ` 2 h 0.N.E.1.~ 8 ' ' ' ' ' U 5 o.g.l.m ",
"a g.D.X.s ' ' ' ' 9 ; ,.l.I.I.{ # b ' ' ' ' ' ' ' ' ' ' ' ' ' ! % k 3.E.I.g.K c ' ' ' ' I 5  .l.l.m ",
"a l.I.X.t ' ' ' 0 = 1.g.l.4.] : U _ ' ' ' ' ' _ ' ' ' ' ' ' ' ` ` ; h c.B.g.r.K w ' ' ' U 5  .g.N.M ",
"a N.D.X.3 z x w 6 :.g.g.r.{ o s x x z x z x z z z l l x x x x x l g + c 0.l.M.w.H s g c l 3  .l.l.M ",
"a M.I.X.3 z q 6 :.E.D.g.| ; t z x x x x z z z z x z x x c z x z x x l @ k g.N.M.w.V ; l d ;  .g.N.M ",
"a g.g. .t 0 ; >.E.E.D.E q U ` ` ' ` ` ` ` ' ' ' _ ' ' ' ' ` ' ` ` ' ` W = c 5.N.M.0.Z q P 4 o.g.l.m ",
"q g.M. .@ # =.4.g.g.| i Y ' ' ' ' ' ' ' ' ' ' ' ' ' ' ' ' ' ' ' ' ' ` ' W $ D l.E.M.0.B s 4 X.g.N., ",
"a g.I. .& =.D.C.D.^ , Y ' ' ' ' ' ' ' ' ' ' ' ' ' ' ' ' ' ' ' ' ' ' ' ' ' W s v E.E.N.0.Z   X.N.I.B ",
"a g.I.<.&.I.l.r.X.q I ' ' ' ' ' ' ' ' ` ' ' ' ' ' ' ' ' ' ' ' ' ' ' ' ' ' ! U # Y M.E.E.w.i #.D.D.C ",
"a g.M.E.g.g.g./ > I ' ' ' ' ' ' ' ' ' ' ' ' ' ' ' ' ' ' ` ' ' ' ' ' ' ' ' ' ' ` 9 G D.D.N.c.l.I.D.N ",
"p D.l.(.N.g. .@ t z l z z l l l l l l l l l l l z z l l l l l l z l l z l z l l t + Q D.l.N.D.D.(.m ",
"a g.g.g.N.| o o % % 1 % % % % % % % % % % % % % % % % % % % % % % % % % % % % % ; $ + Q E.(.E.D.I.m ",
"a g.l.g.D.3.o.#.#.o. .%.%. .%.%.&. .#. . . .#.#. .#.#.#.&.%.#.%.%.%.%.%. .%. .%.%.%. .;.D.I.(.D.(.m ",
"a g.g.g.g.N.l.D.D.D.l.g.g.g.I.D.D.I.L.D.D.I.D.C.D.I.D.g.D.l.l.I.4.C.I.l.l.l.l.g.l.l.l.M.g.D.l.l.l.N ",
"a g.g.M.D.D.I.I.E.I.I.I.I.D.D.(.I.L.D.L.I.L.I.I.I.I.I.I.I.N.N.I.I.I.(.P.l.N.N.l.l.N.N.l.l.N.N.l.l.M "
};
