/* XPM */
static char *result[] = {
/* columns rows colors chars-per-pixel */
"50 50 240 2 ",
"   c #050505",
".  c #0C0906",
"X  c #0D0B0A",
"o  c #080606",
"O  c #140D06",
"+  c #150E0A",
"@  c #13110D",
"#  c #1C140B",
"$  c #1D1307",
"%  c #131312",
"&  c #1A1915",
"*  c #1C1B1A",
"=  c #181715",
"-  c #22140A",
";  c #2C1C0B",
":  c #251808",
">  c #341D0A",
",  c #261C13",
"<  c #3A250A",
"1  c #21211E",
"2  c #2D261C",
"3  c #332213",
"4  c #392918",
"5  c #192023",
"6  c #262523",
"7  c #292825",
"8  c #2E2D2B",
"9  c #292723",
"0  c #342E26",
"q  c #33322D",
"w  c #3A3429",
"e  c #363531",
"r  c #383732",
"t  c #3A3A35",
"y  c #3E3D39",
"u  c #223137",
"i  c #432C04",
"p  c #422E0C",
"a  c #49290C",
"s  c #4C330C",
"d  c #58370A",
"f  c #472C15",
"g  c #532E11",
"h  c #49321A",
"j  c #53351D",
"k  c #583818",
"l  c #562F0B",
"z  c #663A0A",
"x  c #673813",
"c  c #713C16",
"v  c #473C2A",
"b  c #5C3D23",
"n  c #553A22",
"m  c #423E39",
"M  c #623F23",
"N  c #684509",
"B  c #764C07",
"V  c #7C5203",
"C  c #7D550D",
"Z  c #684610",
"A  c #784715",
"S  c #7C5413",
"D  c #785418",
"F  c #4C422E",
"G  c #57432A",
"H  c #44433E",
"J  c #4D4536",
"K  c #5A4E36",
"L  c #5E523B",
"P  c #674527",
"I  c #724C2A",
"U  c #764B27",
"Y  c #7C532D",
"T  c #76542B",
"R  c #64553B",
"E  c #6A5839",
"W  c #775731",
"Q  c #654F30",
"!  c #7F6337",
"~  c #283D4C",
"^  c #334955",
"/  c #454440",
"(  c #4B4A41",
")  c #585751",
"_  c #665E46",
"`  c #5F624C",
"'  c #6F6246",
"]  c #7A6947",
"[  c #686754",
"{  c #776C51",
"}  c #496B7C",
"|  c #787671",
" . c #845601",
".. c #865801",
"X. c #8B5A00",
"o. c #8A5A07",
"O. c #915F05",
"+. c #96590D",
"@. c #854717",
"#. c #844619",
"$. c #884C17",
"%. c #8A5A13",
"&. c #904E12",
"*. c #A75A13",
"=. c #B15F13",
"-. c #936106",
";. c #966309",
":. c #9A660C",
">. c #9D680F",
",. c #8F6013",
"<. c #9B6712",
"1. c #9E6912",
"2. c #946314",
"3. c #A26C14",
"4. c #A36E1B",
"5. c #B96515",
"6. c #AB7215",
"7. c #AA7219",
"8. c #A67119",
"9. c #B27616",
"0. c #B57917",
"q. c #BC7D17",
"w. c #BD7E18",
"e. c #B47919",
"r. c #AA670D",
"t. c #83542C",
"y. c #88592D",
"u. c #965C2B",
"i. c #845B31",
"p. c #8C5E32",
"a. c #835730",
"s. c #915F32",
"d. c #804F27",
"f. c #9D622F",
"g. c #8E6134",
"h. c #926334",
"j. c #986837",
"k. c #A66833",
"l. c #B77539",
"z. c #AE7229",
"x. c #C66B14",
"c. c #C86C14",
"v. c #C46D19",
"b. c #C97313",
"n. c #C47B3D",
"m. c #CA7E3D",
"M. c #CB7922",
"N. c #866D46",
"B. c #87744D",
"V. c #8D7A52",
"C. c #927A50",
"Z. c #B57B43",
"A. c #7C826A",
"S. c #BE801E",
"D. c #B78636",
"F. c #CA883A",
"G. c #D2823F",
"H. c #CA8D31",
"J. c #9C8559",
"K. c #A38758",
"L. c #B89053",
"P. c #878577",
"I. c #979578",
"U. c #A58E61",
"Y. c #AA9364",
"T. c #B89C69",
"R. c #A89874",
"E. c #BCA36E",
"W. c #B3A47C",
"Q. c #D48441",
"!. c #DB8A45",
"~. c #C5964B",
"^. c #CE944E",
"/. c #E79347",
"(. c #F39749",
"). c #F4994A",
"_. c #F19747",
"`. c #E5944B",
"'. c #D3A457",
"]. c #F5A355",
"[. c #F6A75A",
"{. c #F6AA5D",
"}. c #E9AE56",
"|. c #C5A46A",
" X c #DAAD67",
".X c #DDB168",
"XX c #C6AA73",
"oX c #D3B479",
"OX c #DAB97A",
"+X c #CEB177",
"@X c #E3B76C",
"#X c #F6B76A",
"$X c #EABD74",
"%X c #E5BC76",
"&X c #F8BD72",
"*X c #EEAC63",
"=X c #CB9D60",
"-X c #EEC27A",
";X c #EAC17A",
":X c #F7C670",
">X c #49718D",
",X c #55829F",
"<X c #78A0B3",
"1X c #649DC3",
"2X c #B9AD90",
"3X c #9A9383",
"4X c #CAB488",
"5X c #DDBE80",
"6X c #C0AD84",
"7X c #C5BCA7",
"8X c #DBC38D",
"9X c #EECD8A",
"0X c #EAC784",
"qX c #F0C983",
"wX c #FACD84",
"eX c #F1CE8B",
"rX c #F0C781",
"tX c #F2D18E",
"yX c #FCD58E",
"uX c #FDD88F",
"iX c #EECF95",
"pX c #F2D493",
"aX c #FDD790",
"sX c #FDD891",
"dX c #F3D699",
"fX c #F8DA9C",
"gX c #EED296",
"hX c #D8D3BC",
"jX c #EDD6AB",
"kX c #F4DCA7",
"lX c #F3DEB1",
"zX c #F4E1B9",
"xX c #FBE2AD",
"cX c #D7E4B0",
"vX c #E6E8C2",
"bX c #F3E5C4",
"nX c #F4E6CA",
"mX c #F4E8CC",
"MX c #FAF8DD",
"NX c #E6DCC3",
/* pixels */
"H.;XpXdXdXkXlXzXbXbXmXmXmXmXbXnXnXmXNXmXMX7X/ % 3X2X| / r r H [ 3XhXmXmXmXmXnXmXmXmXmXmXmXmXmXmXmXbX",
"S.'.0XpXdXpXgXdXdXkXlXzXbXzXjXbXnXNXH nXV.% X u 7 * 8 y t , { 6XjXzXzXbXbXbXbXnXnXnXbXnXbXbXbXzXzXzX",
"S.H..X9XpXtX0X9XtXpXpXtXgXiX%XgXlXI.  J % t o = y / / y & R.iXiXdXpXsXdXdXdXkXkXkXlXkXkXkXfXdXdXdXdX",
"S.S.H..X0XpX9XpXtXtXqX-X;X-X;XqXtX_ 1 % y 1   o = e / 1 1 6 1 q U.eXqX-XeX9X0X9XpXpXpXdXpXpXpXpXpXpX",
"S.S.S.D. X;X-X-X-X;X@X.X.X@X@X|.E & 7 H H =   . r 9 q m , o o J B.|.-X-X$X@X.X;XpXpXpXpXpXpXpXpXtXtX",
"S.S.S.9.D.'..X@X.X'.~.D.D.D.! & o 9 y H X o , , m / 9 2 q o o ] -X-X-X-X-X@X.X%X9XpXpXpXpXtXtXtX-X-X",
"S.S.S.S.7.S.D.L.D.z.8.8.6.8.8.D.- y / q * l.]._ vXMXhX( 2X) , 0 N.$X-X$X-X$X$X-XqXpXpXpXtXqX;X-X-X-X",
"S.S.S.S.S.S.6.6.7.6.0.q.q.0.9.C * / / / b (.#X[ vXV.>X) P.| 2 OXT.%X$X$X$X$X;X-X-XqXtXpX8XE E ] .X-X",
"S.q.q.S.q.q.q.9.q.q.S.q.S.q.q.i e / / / b (.#X' cXA.= H 3XH 0 R [ ( Q ~.^.'..X$X$X;XrX5XG g.h.j.h K.",
"S.S.b.S.S.S.q.q.S.q.S.q.S.S.S.O e 6 6 9 9 I j.K.` 3X[ V.W.T.tXfXxXxXR D 4.z.D.~. X%X Xn i.I p.p.T 4 ",
"S.S.S.S.S.S.b.q.q.q.q.q.S.S.7.  6 y H / / / / m ` U *XsXuXuXuXuXsXsXJ.d e.7.8.8.D.~.G a.Y i.p.h.Y 4 ",
"q.S.S.S.S.S.S.S.q.S.q.9.S.S.< % = 6 e y / / / / 8 p.).#XuXuXuXuXuXsX_ s S.q.q.e.8.j p.W h.p.h.p.I 4 ",
"S.q.S.q.q.S.q.q.S.q.q.q.q.:.d X 9 t H / / / / / m , !.(._.}.{.{.{.l.O D b.S.S.S.A i.Y p.s.h.p.g.P 3 ",
"S.q.S.S.0.q.q.S.b.S.q.S.S.O.& e e y t H / / / / / e - j./._.).!.T X % : S.q.q.6.G y.Y i.p.h.s.p.n p ",
"S.q.0.6.r.S.S.q.S.S.S.S.q.: * % q e m / m / / / / 8 y = @ : # X 1 y @ $ 3.S.S.N I T Y y.p.p.j.M 4 %.",
"S.q.q.r.0.S.q.S.S.S.S.:.i . $ * e t H 7 y / / / / t * 8 e r H H H H 7 N :.S.q.j h.t.T g.g.h.I j p w.",
"q.q.q.q.q.w.w.w.S.S.S - x x O w e r q 6 H ( H / / / y q q H / / / e e s 8.7.%.I g.t.Y p.p.I n 4 ,.b.",
"9.9.0.0.w.w.w.w.q.A - h + x X e e e 6 m H y / H / / / H / / / / / % 6 s 3.3.k g.i.T g.Y M k f g q.0.",
"3.3.6.6.9.q.q.q.2.$ !.{.B.: @ 1 7 e e H r t H ( / / / / / / / H t X   Z 3.1.j i.i.t.p.P G j 3 1.8.3.",
"6.3.3.3.3.9.0.9.: U (.wXoX- O   * e e e e r y H / H / / / / 8 e r % . 1.3.Z T g.a.g.W x j f Z 6.3.3.",
"3.3.3.3.3.6.3.%.  k.].yX+X> l > X q e e e e 1 H H t H H / y 1 r q : d 3.3.h p.i.i.h.P M h f 6.3.3.3.",
"3.3.3.3.3.3.3.s O m.].uX] @.=.@.d = e 1 r e 1 t H e r H H * 8 1 @ Z 2.8.<.n i.p.h.Y M n > 1.8.7.3.3.",
"3.3.3.3.3.3.6.; > G.{.uXv 5.c.c.}.4 1 X 1 r e 1 y e e t 7 q %   s ;.;.1.Z I g.p.j.P b 4 S 3.3.3.3.8.",
"3.3.3.1.3.3.,.> < G.{.uXG x.c.M.#X@X2     1 r w q e e e e * @ < ;.X.X.:.h i.g.j.W M h d 3.3.3.3.3.3.",
"3.1.;.;.1.3.Z g g n.].aXQ x.x.x.5.w.9.d h : = w e e e q & ; %.3.:.X.O.o.h g.g.g.P k < 1.>.:.1.3.3.3.",
"3.1.-.-.1.3.s x k n.[.aXU x.x.c.x.&.}.#X*.5.l . 1 q 1 . l +.<.3.1.>.:.Z I j.j.P b 3 ,.3.3.>.3.3.3.3.",
"8.3.1.1.3.1.< d u.].aXaXT.W x =.x.r.f.`.x.x.x.*.l O i *.x.x.S 3.1.3.1.k W h.I b 4 Z 1.1.1.3.3.3.3.3.",
"3.3.3.3.1.+.; A h ).yXsXaXfX2X4 x c.r.Z =.x.x.x.x.N b.c.x.x.A 3.3.3.2.k g.T b h < 1.;.-.+.3.3.3.3.8.",
"1.3.3.3.>...; @.- /.{.sXaXsXfXkXF z x.x.+.&.*.x.=.+.x.x.b.}.@.>.3.D T P g.M k 3 2.1.;.X.O.3.3.3.3.3.",
";.;.1.1.>.B > @.- m.).aXpXqXaXsXjX2 &.x.c.x.x.5.+.b.c.c.H.:Xy.K 2 E.wXG I b 4 N 1.3.:.:.>.3.3.:.;.;.",
"X.O.O.1.3.N a u.; l.`.N.E 0XaXsXsXW.: x.c.c.c.c.c.c.c.c./.}.$.N.0 uX&X3 j h i -.-.1.1.3.1.:.O.O.X.X.",
"X.X.O.+.3.N a l.f u.b L.aXaXU.0XsXfXK @.c.c.c.c.c.c.c.c.z.f.$.4 F tXZ.L T.F < ;.X.X.-.-.O.O.X.X.X...",
"X.X.-.X.;.d l @.x M /.[.eX_ T.aXaXaX4X< x.x.c.c.c.c.5.&.#.a #.3 , N.; ^.&X&Xn A O...X.O.X.X.O.X.X.X.",
"X.:.:.O.X.s g @.x 4 (.l.G XXaXaXaXaXsXv M.x.5.=.*.&.#.#.c 3 < h U.m f f.l.z., C -...X...X.;.:.O.X.X.",
"X.-.-.X.X.i d x A O Q.f ^.sXXXV.OX0XaXY.Z.$.#.#.#.x #.#.f f.s.f [.&X XN.; < N O.X.X.X.X.X.O.O.X.O.X.",
"X.X.X.X...i a . #.; k._.l.G ] |.' aXaXeXC.W c #.#.O f #., f Q v j k.Q.!.f ....X.X.X.X.X.X.X.X...X.X.",
"X.X.X.X.X.i . $ x a > _.m.`.C.L eXaXaXaXaXfXU.f x     > E K.t.*XZ.n $ : N ..X...X.X.X. .......X.X...",
"X.X.X.X.X.i N z > $   d.n.c k.#XaXaXaXaXaXsXsX6X= >X} o n.&XF U m.n.s ..X...X.X.X.X... .V ..X.X.X.X.",
"X.X.O.X.X.V X...+ : > O l.).(.(.#XyXaXaXaXaXaXsX2X^ <X} 0 !.`.U.X $ B ..X.X.X.X.X.X... .B  .X.X...X.",
"X.X.X.X.X.X.X.X.d i B + + k.(.(.(.[.yXaXaXaXaXuX4X~ 1X) Q.(.).%X% x B  .X.....X.X.X.X.......X.X.X.X.",
"X.X.X.....X.X.X.X. .X.< 7 4 k.).(.(.].wXsXsXsXtXw >Xm /._.).`.P d B B  .X.X.X.X.X.X...X...X.X.X.X.O.",
"X...V V  .X.X.X.X.X.O.N 3 `.k F.(.).).).{.#X#XtXv 1 m.(./.&XuXwXS  ...X.X.X.X.X.X.X.X.X.X.X...X.X.X.",
"X. .B B  ...X.X.X.X...> !.(.n.3 n.).).(.).).(.].=X, (.).~.K.Y.XXT ..X.X.X.X.X.X.X.X.X.O.X... .X.X.X.",
"X...V B  .X.X.X.X.X.i f.(.(.].B., k 3 h f.j P k.d.3 (.Q.-XOXY.OX] ..X.X.X.X.X.X.X.X.X.X.X... ...X.X.",
"X.X.......X.X.X... ., (.(.(.OXOXtXXXL N i N z < + Q.(./.K.Y.oXuX' o.....X.X.X.X.X.X.X.X.X.X...X.X.X.",
"X.X.X.X.X.X.X.X...d d.(.(.=X5XT.Y.iXK X.O...X...3 (.(.[.oX|.8XuX_  .X...X.X.X.X.X...X.X.X.X.X.X.X.X.",
"X.X.X.X.O.X.X.X.X.; n.(.(.].+X|.+XgXp X.X.X.X.B h (.(.(.wXtX8XxXJ o.X...X.X.X.X.X.X.X.X.X.X.X.X.X.X.",
"X.X.X.X.X.X.......< n.(.(.#XaXaXfX8Xj X.X.X...N d.(.(.].yXyXyXfXW.B X.X.X.X.X...X.X.X.X.X.X.X.X.X.X.",
"X.X.X.X.X.X.X.X.d G.).).(.:XaXaXaXaX4Xj p B o.I (.(.(.[.uXuXsXsXaXT.E 4 ..X.X...X.X.X.X...X.X.X.X.O.",
"X.X.X.X.X.O.X.X.a n.G.G.m.+X+XoXoXoXOXXXV.u ` 4 y.t.t.y.B.B.B.B.V.V.] 0  .X.X.X.X.X.X.X.X.X.X.X.X.X."
};
