/* XPM */
static char *result[] = {
/* columns rows colors chars-per-pixel */
"50 50 206 2 ",
"   c #774F05",
".  c #7C5203",
"X  c #A43E03",
"o  c #845601",
"O  c #875800",
"+  c #8B5A00",
"@  c #915F06",
"#  c #A54302",
"$  c #A84705",
"%  c #B54B06",
"&  c #AB5105",
"*  c #AE5209",
"=  c #BA5B09",
"-  c #B65C08",
";  c #926404",
":  c #9A6B06",
">  c #956607",
",  c #9D7306",
"<  c #A16F0D",
"1  c #BA6309",
"2  c #BA6505",
"3  c #A27507",
"4  c #A67A0A",
"5  c #A26D14",
"6  c #B6641A",
"7  c #A87416",
"8  c #A87218",
"9  c #B27616",
"0  c #BB7C17",
"q  c #B67B19",
"w  c #BD7E18",
"e  c #B77A17",
"r  c #AB7724",
"t  c #BF7F21",
"y  c #AF7F33",
"u  c #C86F09",
"i  c #C87507",
"p  c #C4720C",
"a  c #CB7B0A",
"s  c #CA7407",
"d  c #D47D08",
"f  c #C57112",
"g  c #C16918",
"h  c #BA8D0A",
"j  c #B58908",
"k  c #BB930A",
"l  c #B79509",
"z  c #BF8F11",
"x  c #BD811C",
"c  c #B38617",
"v  c #B38D19",
"b  c #B88635",
"n  c #CE8408",
"m  c #DC8506",
"M  c #DC8B05",
"N  c #D98E0A",
"B  c #D38A0A",
"V  c #C8940D",
"C  c #DB9206",
"Z  c #DB930A",
"A  c #D69609",
"S  c #C28C1B",
"D  c #C99912",
"F  c #C49218",
"G  c #C59916",
"H  c #E68F01",
"J  c #E69200",
"K  c #E89401",
"L  c #E69B01",
"P  c #ED9D01",
"I  c #E19C0C",
"U  c #C8A70A",
"Y  c #D4A40D",
"T  c #D5AC0B",
"R  c #D9AC0C",
"E  c #D9AD07",
"W  c #DBB409",
"Q  c #D5BC0D",
"!  c #D8B80C",
"~  c #CCAB11",
"^  c #C8A114",
"/  c #D1A010",
"(  c #D5B513",
")  c #E5A301",
"_  c #EDA401",
"`  c #E5AB01",
"'  c #ECAC00",
"]  c #E4A60B",
"[  c #E6AC09",
"{  c #F0AF03",
"}  c #EDB401",
"|  c #E6BB02",
" . c #ECBB01",
".. c #E3BC0C",
"X. c #ECBD08",
"o. c #E5B408",
"O. c #F1B502",
"+. c #F2BB03",
"@. c #C68D2D",
"#. c #C48526",
"$. c #C58C31",
"%. c #C58F3A",
"&. c #C69637",
"*. c #D2A52F",
"=. c #DAB538",
"-. c #DDC20B",
";. c #DBC013",
":. c #EDC302",
">. c #EDCB02",
",. c #E3CB0B",
"<. c #EBCD0A",
"1. c #ECC008",
"2. c #F5C601",
"3. c #F4CB01",
"4. c #F8CC04",
"5. c #F4CC08",
"6. c #F7C606",
"7. c #EED404",
"8. c #EFD903",
"9. c #E5D40D",
"0. c #E9D90A",
"q. c #E8D60E",
"w. c #F5D301",
"e. c #F5DB01",
"r. c #F1DB08",
"t. c #F5D607",
"y. c #E4D811",
"u. c #F2D616",
"i. c #EBC41B",
"p. c #EEE409",
"a. c #EEE507",
"s. c #F5E301",
"d. c #F5EA02",
"f. c #F6F301",
"g. c #F4F20B",
"h. c #F9F402",
"j. c #EEE61B",
"k. c #F2EB16",
"l. c #F6F512",
"z. c #DFCE28",
"x. c #F2D932",
"c. c #ECC534",
"v. c #F1E62B",
"b. c #F4F526",
"n. c #F5F228",
"m. c #EFE434",
"M. c #F6EE3B",
"N. c #F4F53A",
"B. c #BE8F41",
"V. c #D5AE4B",
"C. c #DABB47",
"Z. c #CFA055",
"A. c #D3A455",
"S. c #D6AA55",
"D. c #D9BE55",
"F. c #E7BD40",
"G. c #DBAD62",
"H. c #DDB166",
"J. c #DEB369",
"K. c #E3B66B",
"L. c #E4BB6C",
"P. c #ECBE76",
"I. c #E5BF76",
"U. c #DFC75D",
"Y. c #ECCD4D",
"T. c #E8D745",
"R. c #EAD35A",
"E. c #EFE44C",
"W. c #F4F54E",
"Q. c #F0E459",
"!. c #F4F451",
"~. c #EAC66B",
"^. c #EFD366",
"/. c #F0DD67",
"(. c #EEC37B",
"). c #ECC579",
"_. c #F0C27A",
"`. c #EFE560",
"'. c #F1EA61",
"]. c #F3F464",
"[. c #F1E070",
"{. c #EBC782",
"}. c #ECCB87",
"|. c #EFCD8B",
" X c #F0C882",
".X c #F1CE8A",
"XX c #F0C781",
"oX c #F1D18E",
"OX c #F0D884",
"+X c #EECE94",
"@X c #F2D493",
"#X c #F2D69A",
"$X c #F3D89F",
"%X c #F1E087",
"&X c #EFE099",
"*X c #F0E496",
"=X c #F3DAA4",
"-X c #F2DDAB",
";X c #F3DEB1",
":X c #EBD5AB",
">X c #F3E7A7",
",X c #F2E2B5",
"<X c #F3E2BC",
"1X c #F3E5C4",
"2X c #F4E6CA",
"3X c #F4E8CC",
/* pixels */
"$.).@X#X$X-X;X<X1X1X3X2X3X3X2X2X3X3X3X3X1X,X>X*X*X*X>X,X1X2X2X2X1X2X3X3X3X3X3X3X3X3X3X3X3X3X3X3X2X3X",
"#.A.}.@X@X@X@X#X$X=X,X,X<X1X:X1X1X&X/.x.u.r.e.s.s.s.s.d.g.v.Q.%X,X,X<X<X1X1X1X1X2X2X1X3X2X1X1X<X,X,X",
"0 @.H.|.@X@X{.|.@X@X@X@X+X+XL.Y.u.w.w.w.w.w.w.3.5.w.7.8.s.s.d.d.k.E.OX@X#X$X=X=X-X-X>X-X=X$X$X@X@X#X",
"0 x %.J.}.oX|.oXoX.X{.(.~.c.6.3.5.6. .} } ' ' ' ' } } }  .:.7.s.d.d.g.m.)..X}.oX@X@X#X@X@X@X@X@X@X@X",
"w x x b G.).{.{.(.P.K.F.6.6.6.O.' _ _ _ _ _ ' ' ' ' } ' } } } } :.8.d.f.g.T.H.I.@X@X@X@X@X@X@X@XoXoX",
"x x x x b Z.K.K.K.S.i.3.3.O._ P P P P _ _ ' _ ' ' ' ' } } } } } }  .>.8.f.g.j.~..X@X@X@X@XoX@X.X X_.",
"w w x x q r b B.&.9.w.3.' _ P P P P P _ _ _ _ _ ' ' ' ' ' } } } }  . . .>.a.f.g.^.oX@X@XoX).).XX_._.",
"w w f w w q 8 z 7.t.6.' _ P _ P P P _ P _ _ _ _ _ ' ' ' ' ' } } } } } } | :.s.f.g.^.oX@X@XoX{.(._._.",
"w 0 S 0 0 0 G e.r.>.' _ _ _ _ P P P P P P _ _ _ ]  .' ' ' ' ' } } } } }  . .:.e.f.g.R.oX.XXX(._._._.",
"x 0 f 0 x F r.e.3.' ' ' _ _ _ P P P P P P P _ Z 0.d.} ' ' ' ' ' } } } } } }  . .e.f.g.~._.(.P.I.K.S.",
"f 0 x x x 0.s.w.} ' ' ' ' _ _ _ _ P P P P P I -.f.f.d.' ' ' ' ' ' } } } }  .}  .:.e.f.k.L.K.G.Z.B.b ",
"x S 0 0 ;.d.s. .} ' ' ' ' _ ' _ _ P P P P P Y f.f.f.f.p._ ' ' ' ' ' } } } }  .}  .:.d.f.z.B.y r 8 8 ",
"x 0 x G d.d.:.} } } ' ' ' ' _ _ _ _ _ P _ V f.f.f.f.h.h.t.' ' ' ' ' ' } } }  .}  . .>.d.g.c 5 7 e 0 ",
"S 0 0 y.f.e. . .} } } } ' ' ' _ _ _ _ _ B a.f.f.f.f.h.f.f.:._ _ ' ' ' ' ' } } } } }  .8.f.y.q x 0 w ",
"0 0 G f.f.:. . .} } } } } ' ' ' _ _ _ N 9.f.f.f.f.f.f.f.f.f. .' ' ' ' } ' } } } } }  .:.d.f.^ x f x ",
"f x 9.d.r.:. . . . .} } } ' { ' { _ I R f.f.f.f.f.f.f.f.f.f.g.O._ ' ' ' ' ' } } }  .} } t.d.q.q x x ",
"0 S s.s.:. . . . . . .} O.} ' ' ' [ W g.d.h.d.h.d.f.d.f.f.d.f.d.5.{ ' ' ' ' } ' } O.} } :.d.f.F w f ",
"9 ~ e.e. . . .:. . . .} } } }  .3.s.s.d.d.d.d.d.d.s.d.d.s.d.s.d.s.d.w.2.' ' ' ' } } } } } e.d.( 0 0 ",
"5 ,.e.:.} }  . .:. . . . .3.e.s.s.e.s.s.e.s.s.e.e.s.s.e.s.e.s.e.e.e.e.s.e.t. .} } ' } } } >.d.q.8 5 ",
"5 5.w.} ' } }  . .:.:.t.w.e.e.e.e.e.e.e.e.e.e.e.e.e.e.e.e.e.e.e.e.e.e.e.e.e.e.t.5.:.' ' ) ` d.a.7 5 ",
"c 4.5.' ' ' } Z B w.t.e.e.w.w.w.w.w.w.w.w.w.e.w.w.e.w.w.w.e.w.w.w.4.w.w.w.w.w.w.w.A C ) ) ) e.d.v 5 ",
"z 6.2._ _ ' ' Z # E 3.4.3.3.4.4.4.4.3.4.3.3.3.3.3.3.3.3.3.3.3.4.4.4.4.4.3.3.3.3. .a L L L ) >.s.^ 5 ",
"D 6.} _ _ ' ' } a & +.2.2.2.2.2.2.2.2.2.3.2.2.2.2.2.2.2.2.2.2.2.2.2.2.2.2.2.6.6.a I L P ) ) :.s.~ 5 ",
"/ 2.} P _ _ _ ` ' 1 2 6.3.2.2.2.2.2.2.2.2.2.2.2.2.2.2.2.2.2.2.2.2.2.2.2.2.2.6.Z M L L L L L | s.Q 5 ",
"Y 2.{ P P P _ ' ' ] & n 5.2.2.2.2.2.2.2.2.2.2.2.2.2.2.2.2.2.2.2.2.2.2.2.2.2.[ d L L L L L L } e.( 5 ",
"R 6.{ P P P _ _ _ ' Z $ ) 2.2.2.2.2.2.2.2.2.2.2.2.2.2.2.2.2.2.2.2.2.2.2.2.6.a I K K L L L ) } e.( 5 ",
"A 2.O.P P P P _ _ ' ' n & +.2.2.2.2.2.2.2.2.2.2.2.2.2.2.2.2.2.2.2.2.2.2.2.N H J K L L L L L o.e.~ 5 ",
"D 5.O.P P P P P _ _ _ ' 1 p 2.2.2.2.2.2.2.2.2.2.2.2.2.2.2.2.4.2.3.2.2.2.{ d J J J L L L L L  .e.U 5 ",
"V 2.+.P P P P P P _ _ _ L $ I 2.4.4.2.2.4.2.2.2.2.2.2.2.2.2.4.2.2.2.2.4.Z J C J J J L J L L  .e.F 5 ",
"4 2.+.P P P P P P L K L L s 1 e.w.4.w.w.4.4.w.w.w.w.w.w.w.w.w.w.w.w.e.4.) J J J J K J L L L :.e.4 ; ",
"@ 1.6._ P P H H J H J J K m = e.e.e.e.e.e.e.e.e.e.e.e.e.e.e.e.e.e.e.e.e.) K J J J J J J J L 3.t.; + ",
"+ E 2._ H H H H J J J J K M % s.d.d.s.s.d.d.s.d.d.d.d.d.d.d.d.d.d.d.d.d.] K K J J J J J J ) t.! + + ",
"+ h 6.O.J J H J H J J H J H $ g.h.h.f.f.f.f.h.f.f.h.d.f.f.f.g.f.f.h.f.g.] K K J J J J J J } 3.l + + ",
"+ 5 6.2.K H H H H H H H J H # l.g.g.l.l.l.l.g.g.l.l.l.l.l.l.l.l.l.l.l.l.) K J K J J J J L :.5.: + + ",
"+ ; Y 2.' H H J J H J J H H X n.b.b.b.b.b.b.b.b.b.b.b.b.b.b.b.b.b.b.b.b.) L L K I J J J _ 5.T + + + ",
"+ + 3 6.+.K H H H J H H H H X M.N.N.N.N.N.N.N.N.N.N.N.N.N.N.N.N.N.N.N.W.] L L K K J J K  .3.4 + + + ",
"+ + + R 2.' H H H J H H H H $ T.W.W.W.!.W.!.!.T.*.x x =.E.!.!.!.!.!.!.!.] P L L L K K ' 5.T + + + + ",
"+ + + : 6.6.L H H H H H J H % R.].].].Q.C.@.f i Z ] C i - 6 $.C.Q.].].].] L L L L J ) 5.6.: + + + + ",
"+ + + + h 6.+.K J H H K H K % U.[.A.#.p m L L L L ) ` ` ` [ C i = 6 %.D.] L L L L L :.4.k o O + + + ",
"+ + + + + W 6.{ J H H H H H = g u H H H I J L L L ) ) ) ` ` ` ` ` ] N u I L ) L ) X.w.! + O + + + + ",
"+ + + + + >  .6.' J J H J J H H H H K H J K L L K E L ) ` ` ` ` ` ` ` ) ) ) L )  .e.<.: O + + + + + ",
"+ o   . o + : X.6.' K J H H H H H H H H J J J L L L L ) ) ) ` ` ` ` ) ) ) ) ) :.e.9.3 + + O + + + + ",
"+ o     . + + 3 1.6.{ K H H H H H K K H J J J J K L L ) ) ) ` ` ` ` ` ) ) } >.s.7., + + + O o O + + ",
"+ o . . o + + + : ..6.+.) J H H H H H H H H H J K L L L L L ) ) ` ` ` E :.8.s.9., + + + + o o + + + ",
"+ + + o + + + + + ; Y 2.2.} K J H H H H H J J H J J L L L ) ) ) ) ` | 8.f.g.Q ; + + + + + + O + + + ",
"+ + + + + + + + + + + j X.2.6.} L J K H H H H H J J J J L L L ) | 7.d.f.a.l O + + O + + + + + + + + ",
"+ + + + + + + + + + O + ; V X.6.2.+.' L K K J J J J J L L `  .3.s.f.a.U ; O + + + + + + + + + + + + ",
"+ + + + + + + + + + O + + + ; h W 6.5.2.2.+.+.O.} } +.:.3.t.e.r.,.l ; O + + + + + + + + + + + + + + ",
"+ + + + + + + + + + + + + + + + + < j Y o.:.3.6.2.2.2.6.o.T l , + + + + + + + + + + + + + + + + + + ",
"+ + + + + + ; + + + + + + + + + + + + + + + : : : : ; + + + + + + + + + + + + + + + + + + + + + + + "
};