/* XPM */
static char *result[] = {
/* columns rows colors chars-per-pixel */
"50 56 226 2 ",
"   c #574C09",
".  c #4A550F",
"X  c #55560D",
"o  c #5D550D",
"O  c #485F16",
"+  c #475B16",
"@  c #585915",
"#  c #4F4007",
"$  c #6C4D04",
"%  c #624C04",
"&  c #754E04",
"*  c #7B4F00",
"=  c #685508",
"-  c #7C5203",
";  c #7F5903",
":  c #79590D",
">  c #655613",
",  c #795A12",
"<  c #4A6117",
"1  c #4E6817",
"2  c #4D6519",
"3  c #4F6919",
"4  c #476016",
"5  c #5C6414",
"6  c #516A17",
"7  c #53651C",
"8  c #5A6519",
"9  c #526C1A",
"0  c #5B6D1B",
"q  c #556615",
"w  c #56721A",
"e  c #59761B",
"r  c #5B781C",
"t  c #66691A",
"y  c #74651B",
"u  c #796918",
"i  c #666B14",
"p  c #556C23",
"a  c #5C6C24",
"s  c #576D29",
"d  c #596E2A",
"f  c #577121",
"g  c #5B7424",
"h  c #5E7924",
"j  c #5C722D",
"k  c #5F7829",
"l  c #5F7532",
"z  c #4F6420",
"x  c #666B23",
"c  c #6C6A29",
"v  c #766C24",
"b  c #607B26",
"n  c #61762E",
"m  c #6D752A",
"M  c #627B2D",
"N  c #637524",
"B  c #747425",
"V  c #797327",
"C  c #627533",
"Z  c #657C32",
"A  c #6A7D35",
"S  c #637539",
"D  c #6A7D3C",
"F  c #687A39",
"G  c #7D7A32",
"H  c #78793B",
"J  c #746631",
"K  c #6B7E41",
"L  c #78785E",
"P  c #835601",
"I  c #855902",
"U  c #8B5A00",
"Y  c #875A0B",
"T  c #915F05",
"R  c #895E14",
"E  c #936006",
"W  c #96630A",
"Q  c #9B660D",
"!  c #9D680F",
"~  c #846416",
"^  c #8D6312",
"/  c #88691A",
"(  c #936414",
")  c #996714",
"_  c #9D6913",
"`  c #946C1B",
"'  c #986919",
"]  c #9A731D",
"[  c #8F6B16",
"{  c #A36C14",
"}  c #A26F1D",
"|  c #A96F16",
" . c #AC7315",
".. c #A4721B",
"X. c #AB741A",
"o. c #A87918",
"O. c #B17616",
"+. c #B57916",
"@. c #BC7D17",
"#. c #B67A19",
"$. c #BD7E18",
"%. c #896828",
"&. c #8B7324",
"*. c #9C7427",
"=. c #867839",
"-. c #927234",
";. c #A97522",
":. c #AA7826",
">. c #AE7C2C",
",. c #A47622",
"<. c #B27C24",
"1. c #A27A34",
"2. c #B17F32",
"3. c #897C44",
"4. c #957C46",
"5. c #66802C",
"6. c #68822F",
"7. c #6A8332",
"8. c #6D833A",
"9. c #6F8837",
"0. c #71843D",
"q. c #728A3D",
"w. c #7E853C",
"e. c #6E8342",
"r. c #728544",
"t. c #758B44",
"y. c #798D46",
"u. c #74844A",
"i. c #7A8C4D",
"p. c #7A8646",
"a. c #7B9148",
"s. c #7A9047",
"d. c #7D8C54",
"f. c #7D8750",
"g. c #7F8B60",
"h. c #95833D",
"j. c #B9832C",
"k. c #B48435",
"l. c #BA893B",
"z. c #AF843C",
"x. c #828A4A",
"c. c #818E53",
"v. c #868A58",
"b. c #97885A",
"n. c #86935C",
"m. c #8B955C",
"M. c #879657",
"N. c #8E8E50",
"B. c #A4874B",
"V. c #AA985D",
"C. c #B89859",
"Z. c #B48B49",
"A. c #8C9965",
"S. c #8E9A6D",
"D. c #939863",
"F. c #959674",
"G. c #8B8D70",
"H. c #A29C66",
"J. c #B69B67",
"K. c #A99D77",
"L. c #A58E61",
"P. c #92A267",
"I. c #9CA27A",
"U. c #AFA56D",
"Y. c #A5A57B",
"T. c #BAA771",
"R. c #C59548",
"E. c #CD9E51",
"W. c #CFA055",
"Q. c #D0A256",
"!. c #D8AA5E",
"~. c #DAAC62",
"^. c #DAB16A",
"/. c #C4AD79",
"(. c #DAB675",
"). c #CDB775",
"_. c #E4B56C",
"`. c #E4B66B",
"'. c #EABD73",
"]. c #E6BA72",
"[. c #DFC07F",
"{. c #EEC37B",
"}. c #EAC078",
"|. c #F0C57C",
" X c #9FA985",
".X c #A7A983",
"XX c #ADB68C",
"oX c #B6B68C",
"OX c #BBBC9C",
"+X c #BBB894",
"@X c #B7A98D",
"#X c #BDBEA2",
"$X c #CCB786",
"%X c #D9BE88",
"&X c #C4BC95",
"*X c #C8B898",
"=X c #C3BCA3",
"-X c #DCC592",
";X c #EDC984",
":X c #EDCD8D",
">X c #E6C788",
",X c #F1CA85",
"<X c #F0CE89",
"1X c #F0C781",
"2X c #F2D18E",
"3X c #EED293",
"4X c #F2D493",
"5X c #F2D699",
"6X c #F3D99D",
"7X c #EED08F",
"8X c #C9C6AA",
"9X c #D8D4B8",
"0X c #D8CCAF",
"qX c #EBD6AC",
"wX c #F3DAA3",
"eX c #F2DCAA",
"rX c #F2D6A1",
"tX c #EEDDB8",
"yX c #F4DFB1",
"uX c #F4E0B6",
"iX c #F4E2BC",
"pX c #DBDBC6",
"aX c #E8DEC3",
"sX c #F4E5C4",
"dX c #F4E7CA",
"fX c #F4E9CD",
/* pixels */
"5X6XeXeXiXsXdXdXfXfXfXfXfXfXfXfXfXfXfXfXfXfXfXfXfXfXfXfXfXfXdXfXfXfXfXfXaX&XF.L 3.=XpX=X@XpXfXfXfXdX",
"4X5X4X5X5X5X6XeXyXsXdXdXtXtXdXfXfXfXfXfXdXsXiXuXyXyXeXeXeXeXeXyXuXiXqXY.n.u.r.r.g.K  X8X=XaXdXdXdXdX",
"4X5X4X;X;X2X4X5X5X5X5XrX>X>XqXyXtXyXyXeXwX6X6X5X5X5X:X4X5X5X5X3X*X$XK.c.i.e.e.r.i.e.L .XoX-XeXeXqXrX",
"'.7X4X:X7X2X4X2X,X1X|.1X{.{.:X5X5X5X5X4X4X4X4X4X4X4X<X2X4X4X4X7X).0XI.a.t.e.K e.y.i.u.K y.U.:X4X5X4X",
"E.'.;X,X<X<X;X;X}.'.'.].'.{.|.|.<X4X4X4X4X4X4X4X4X4X4X4X4X4X4X:XT.oXS.a.t.e.K K e.t.7.l l x./.2X4X4X",
"j.R.^.}.{.{.}.`.~.Q.E.W.!.`.{.{.1X<X4X4X4X4X5X4X4X4X4X4X4X4X3X>XV.u.e.t.e.D l S l 9.7.l l 7.N.%X4X2X",
"@.#.l.Q.!.!.Q.R.k.>.:.>.k.R.!.].'.|.,X<X<X2X4X4X4X4X4X4X4X4X:X).0.j Z 7.6.l j j l 7.7.l k k y.U.%X%X",
"j.@. .>.l.l.>.{ _ |  ...{ X.k.W.].'.'.1X1X,X4X4X4X4X4X4X4X4X[.V.Z j Z 7.6.l d l k 7.7.k d f D F.K.J.",
"@.@.@.O.{ _ | O.@.@.@.@.@.+. .| R._.'.'.|.|.2X4X4X4X4X4X2X<X^.B.M j Z 7.6.l j d j A 5.k 3 7 i.8X$X(.",
"@.@.@.@.$.$.@.@.$.@.$.$.$.@.@. .) 2.Q._.{.|.|.1X4X4X2X<X|.|.).U. Xd k M M j s p p w r w 2 1 p H C.'.",
"@.$.@.@.$.$.$.$.$.$.$.$.@.@.@.@.#.| } l.!.`.{.|.}.}.|.}.'._.).&X.X7 6 e w 3 < < < 1 e e 1 < 3 b 4.'.",
"$.@.@.@.$.$.$.@.$.$.$.$.@.@.@.@.#.@.O.X.>.R.!.`.}.}.}.`._.!.C.N.M < 7 w w 3 4 < < 1 e e 3 < q N =._.",
"$.$.$.@.$.$.@.$.$.+.j.j.@.@.@.@.$.$.@.O.X.:.2.Z.R.E.E.R.Z.k.,.u w < 2 w e 3 < < 4 1 w e 1 < 3 r J Z.",
"$.$.@.@.j.#.1.,.] ` ..o.@.@.@.@.$.$.$.@.+.O. .;.:.:.;.;.X. .{ ` w 1 < w w 3 < 4 < < w w 1 < 2 8 > { ",
"@.@.@.@.@.o.3.3.=.w.V &.o.j.+.@.$.$.$.$.$.$.#.O.X.|  .O.O.@.#...w 2 4 w e 9 < < 4 < w A M.A.q.N : | ",
"@.+.@.@. ._ G d.q.e.r.w.h.*.o.j.$.$.$.$.@.$.@.@.$.@.@.$.@.$.@.o.t 6 4 3 w w < 4 < < w i.OX+Xm.B { #.",
"|  .O.#.` v M Z 8.F 8.r.x.h.o.$.$.@.@.$.@.@.@.$.$.@.@.@.@.$.$.>.N.S + 7 9 w 3 < 4 < w b y.F 7 u @.@.",
" .O.+...&.N l 7.A j l Z Z B ] @.@.@.@.$.@.j.@.$.@.@.O.@.$.$.2.J.9XI.7 O 0 w 3 < < < w w q < @ [ @.@.",
"@.@.| L.m.d g 5.l j j 5.M m &. . .| | O.@.@.$.$.@.@.+.@.$.$.R.*X#XS 3 4 3 w 3 < < < w e q 2 : |  .@.",
"@.@.$.&.x 7 9 g 3 p p k g p.H.*.| { {  .@.$.$.$.@.@.@.@.#.o.1.oXpXK k 2 1 w w < 4 < w w < i [  .| +.",
"| +.@.~ 5 6 6 e < < 3 w w g =.] | { {  .@.@.@.$.@.@.@.O.` B A D g.t.q.f 3 3 w 3 < < w w a [ +.@.+.@.",
"{ | O.~ 8 6 9 w < 4 < w 6 8 u { +. .O.@.$.$.@.@.j.@.j.] V m n C 9.t.t.Z d 3 w 3 < < M M.=...@.j.@.O.",
"{ {  .u c u.r.e 4 4 3 w 3 7 u { @.@.@.@.$.$.#.+.O.+. .&.m n j Z 7.8.8.F S l k k f s D.b.*.#.$.$.@.| ",
"{ { { ^ V i.d.f p 2 w 8.A c %.{  .O.#.@.@.O.O.| ! j.J.n.D j n 7.7.6.l l S Z 8.9.6.l n.J ` O.O.X.| | ",
"{ { { ) y n 0.M k j 8.P.m.H -.) { | | O.O.O.| { ! B.-XI.S s l 7.7.Z j d l l 7.8.8.l l @ ^ { { { { { ",
"! { { | u d D e.t.r.S.XXA.c J ( { { { { { O.#.O._ ~ H.i.d p 5.7.Z j d l j j 6.6.Z j Z a ( { { { { { ",
"! _ o.` V 8.p.K e.y.d.d.K x R ) { { { { { | O.| _ u e < 4 9 r 5.k l j j j Z 7.7.M j Z k / { { { { { ",
"E _ B.b.x.r.r.e.e.e.q.Z j n B R { { { { { { { ) ^ i w < 1 w w w z z d d j Z 7.6.l j Z l / ) { Q T { ",
"U _ %.3.f.t.t.D l l 7.7.n d A =.%.' { { { { { ) , e 1 4 1 w r 9 4 < < 2 p k 5.5.j j k g , ' } ) Q { ",
"! { V C Z 7.7.l d l Z 6.A C u.&X-.' { { { { { ) y w 1 4 9 w w 1 4 O < < 3 e r w < 3 d d.-.' { { { { ",
"{ ( B M l 6.6.l j j j Z b 0 a D y { _ T T { ) ( t q 4 < w r w < 4 < 4 4 9 e w 9 < < u.8X*X4.' { { { ",
"{ ^ m l k Z 7.l d s p f e w 2 7 t ^ T Y Y ` 4.T.oX< 4 1 w w 9 4 < 4 < 3 w e w 3 < 7 n f.4.%.R T { { ",
"{ R B j f k M k p 2 < 6 w w 2 2 f y y y B K D.+X=XO < 3 w w 3 < < < < 3 e e 3 < < w 9 @ : T T ) { { ",
") -.b.D p 7 r e 2 < < 2 9 w w p 6.l S e.p.x.d.A.c.< O 9 e w 2 < 4 < < w e w 3 < < e < > ^ Q Q { { Q ",
"R b.K.e.3 2 w e 2 < < < f 5.7.D e.e.r.y.y.e.e.F h < < 9 e w < 4 < 4 3 w g f 2 4 9 e . : T { { T T T ",
"T R v 0 6 2 9 e 9 < < < F P.P.i.e.r.s.a.p.e.K K M 4 < w w 9 < < 4 4 0 h u.u.d 2 w 9 # ; T T T T U U ",
"U T : 5 w < 6 e w 1 < 9 r.oX9X Xl s.a.s.e.K e.K C < 2 0 e 3 < < < 2 w A +X9XY.7.0 . P U U U U U T T ",
"U T ; > 1 1 2 j g 3 p k 9.m.OX#X8.a.a.s.e.K K K D < < w w 3 < 4 < 9 r g 8.d.m.c.8 Y U U U U U T T { ",
"U U U & o b A.8Xd.h 5.5.6.l Z F 9.q.t.e.e.K K K K s 2 w 3 3 4 4 < w e w 3 2 7 q & Y T U U U U U U T ",
"T U U P = N M.A.M b 7.7.l j j k 7.9.9.8.l l l l l d 3 w 9 < 4 < w e w 3 < < . = I U U U U U U U U U ",
"U U U U I , x d 0 5.7.Z j j l M 9.6.6.5.j j d j j j f g 9 < < < e e 6 < 7 +   - U U U U U U U U U U ",
"U U U U E ^ : X f 7.7.Z j j j 7.6.9.9.M j d l d d d j k g 3 1 w e e 7 p g 8   U U U U U U P P P P U ",
"U U U U U W I $ p 5.6.k j d n 7.9.5.9.k j d d d j j j 6.M k r h g p p M A g i P U U U U U P & * P U ",
"U U U U U Y -.-.D k b j s j M 7.7.7.5.l l j j l d j j 5.7.7.6.5.j j d k b h 5 & U U U U U Y * * P U ",
"U U U U P / L.OX.Xk w 3 p d Z 8.t.8.7.l j j j j j j j l 6.6.9.5.j s p 3 e e 5 $ U U U U U U U U U U ",
"U U U U U I R b.m.h 3 1 O 2 Z m.XXS.8.d d s j d d d j l 5.5.5.5.w < < < w e 5 = U U U U U U U P U U ",
"& P U U U U P o w e 1 4 < f d.oX9XoX6.2 z 4 z 2 2 2 2 w e r e e 9 4 4 2 9 e 9 = U U U U U U U U U U ",
"& - I U U U ; X r r 1 < < 1 w 5.9.k f 2 4 4 4 4 4 4 4 9 e r e e 3 < < < w e q = U U U U U U U U U P ",
"& P P U U U P X r e 1 < < 1 6 e r r w 1 < O O < < 4 < 6 r r e e w 4 < < 9 k D H * U U U U U U U P P ",
"P I U U U U ; X r r 1 < < < w r r r e 1 < < O < 4 < < 6 w r e w 9 < < 1 9 0.F.*X4., U U U U U U U P ",
"U U U U U U ;   e r 6 < O < 6 e r r e 1 < < < O 4 4 < w w r e w 6 4 < 2 9 A x.b.%.P U U U U U U U U ",
"U U U U U U I   e e 6 < 4 < 6 e r e e 1 O 4 O < < < < 6 r r b 8.p 4 4 2 0 r 8 > I U U U U U U U U U ",
"U U U U U U I $ 0 e w < 4 < 3 e r e e 3 < O 4 4 4 < O w r b d..Xd.p < 3 w w q % U U U U U U U U U U ",
"U U U U U U U P q e w 1 < < 1 w r r e 3 < < < 4 4 O 4 6 r M P.8XOXK 2 9 e 0 o * U I U U U U U U U U ",
"U U U U U U U I   w w 6 < < 3 w e r w q < O 4 4 < O 1 e e e k t.d.p.3 w w < o U U U U U U U U U U U ",
"U U U U U U U U $ q w 3 < 4 4 q w w w 1 4 O O < < O < 6 6 6 w 1 4 4 < 0 6 X $ U U U U U U U U U U U "
};
