/* XPM */
static char *result[] = {
/* columns rows colors chars-per-pixel */
"50 61 236 2 ",
"   c #1B1E1B",
".  c #0F1008",
"X  c #260E0A",
"o  c #281C09",
"O  c #3C180F",
"+  c #3F170F",
"@  c #3B1912",
"#  c #291914",
"$  c #1B2717",
"%  c #1A3A1C",
"&  c #0D2A0F",
"*  c #2B240B",
"=  c #362608",
"-  c #31221A",
";  c #342213",
":  c #2A3A19",
">  c #313618",
",  c #25241D",
"<  c #201F20",
"1  c #272A24",
"2  c #263625",
"3  c #333228",
"4  c #383734",
"5  c #342D24",
"6  c #472D05",
"7  c #4B3409",
"8  c #523403",
"9  c #5E3B06",
"0  c #573909",
"q  c #482916",
"w  c #473919",
"e  c #5D3C15",
"r  c #513F12",
"t  c #552A19",
"y  c #613D07",
"u  c #603419",
"i  c #513429",
"p  c #643D2A",
"a  c #421B0E",
"s  c #19461D",
"d  c #36481D",
"f  c #23471F",
"g  c #244825",
"h  c #374B24",
"j  c #29542A",
"k  c #345825",
"l  c #335632",
"z  c #1C6826",
"x  c #256C2D",
"c  c #26722F",
"v  c #2A6C34",
"b  c #2B6733",
"n  c #376939",
"m  c #2B7435",
"M  c #2A7935",
"N  c #34773A",
"B  c #3C702C",
"V  c #1A4E25",
"C  c #564818",
"Z  c #514812",
"A  c #684506",
"S  c #744D04",
"D  c #794F03",
"F  c #734D0B",
"G  c #7B5103",
"H  c #7A550E",
"J  c #664B13",
"K  c #7A5413",
"L  c #755514",
"P  c #715215",
"I  c #43472A",
"U  c #424231",
"Y  c #404F3A",
"T  c #524D31",
"R  c #7D482C",
"E  c #684431",
"W  c #7D4D33",
"Q  c #774E38",
"!  c #69523E",
"~  c #64543A",
"^  c #71522E",
"/  c #507438",
"(  c #79623D",
")  c #3B6741",
"_  c #5A5A42",
"`  c #565148",
"'  c #585657",
"]  c #424346",
"[  c #695341",
"{  c #675945",
"}  c #715D44",
"|  c #496546",
" . c #50774E",
".. c #7F6947",
"X. c #617F5C",
"o. c #716D59",
"O. c #5D6263",
"+. c #676967",
"@. c #6C6D71",
"#. c #76777A",
"$. c #757B7B",
"%. c #79797C",
"&. c #7D777F",
"*. c #717470",
"=. c #835502",
"-. c #875801",
";. c #8B5A00",
":. c #86580B",
">. c #915E04",
",. c #825B18",
"<. c #936106",
"1. c #956309",
"2. c #9A660D",
"3. c #9C680F",
"4. c #9E6911",
"5. c #9A6715",
"6. c #8B611A",
"7. c #A36C14",
"8. c #A77015",
"9. c #AB7215",
"0. c #A9731D",
"q. c #A77018",
"w. c #B27616",
"e. c #B57916",
"r. c #BC7D17",
"t. c #B67918",
"y. c #BD7E18",
"u. c #B17719",
"i. c #895739",
"p. c #8F5636",
"a. c #856739",
"s. c #A97522",
"d. c #AB7927",
"f. c #B07F2F",
"g. c #A3633F",
"h. c #955F42",
"j. c #886042",
"k. c #94734F",
"l. c #A66845",
"z. c #AB6944",
"x. c #A96847",
"c. c #B27451",
"v. c #897B75",
"b. c #877B75",
"n. c #84776E",
"m. c #3D852C",
"M. c #2D8C3B",
"N. c #2D8338",
"B. c #338C3C",
"V. c #38863C",
"C. c #2E973C",
"Z. c #2D983B",
"A. c #2E9937",
"S. c #31953D",
"D. c #3B943F",
"F. c #26822F",
"G. c #368B42",
"H. c #2E9640",
"J. c #339441",
"K. c #359841",
"L. c #3C9748",
"P. c #41914D",
"I. c #528657",
"U. c #61805C",
"Y. c #7F815C",
"T. c #B58536",
"R. c #B5812D",
"E. c #85855E",
"W. c #9A8256",
"Q. c #B98A40",
"!. c #A78856",
"~. c #B7945A",
"^. c #868460",
"/. c #8A8864",
"(. c #9B9876",
"). c #908E70",
"_. c #A99369",
"`. c #AD9669",
"'. c #BBA576",
"]. c #C49549",
"[. c #CE9F53",
"{. c #C18A50",
"}. c #CFA155",
"|. c #D5A65B",
" X c #C38B68",
".X c #CC9572",
"XX c #CDA565",
"oX c #D8AD67",
"OX c #DDB16A",
"+X c #D8B87A",
"@X c #E2B46A",
"#X c #E5BA72",
"$X c #EABD74",
"%X c #E2BA77",
"&X c #ECC077",
"*X c #EEC37B",
"=X c #F0C47C",
"-X c #959784",
";X c #A19986",
":X c #B2AE91",
">X c #B5BAA8",
",X c #D4B882",
"<X c #B9C4BA",
"1X c #DDC89A",
"2X c #EEC782",
"3X c #EBCA87",
"4X c #F0CA85",
"5X c #F1CD8A",
"6X c #F0C780",
"7X c #EFD18F",
"8X c #F1D18E",
"9X c #F2D493",
"0X c #F2D79B",
"qX c #F2D89E",
"wX c #EACF95",
"eX c #C8C6A7",
"rX c #D7CDAB",
"tX c #CECBB3",
"yX c #D3CFB3",
"uX c #D8CDB5",
"iX c #D3D0B3",
"pX c #D1D2AF",
"aX c #E6D3A8",
"sX c #F2DAA3",
"dX c #F2DCAB",
"fX c #F2DEB2",
"gX c #E2D1B2",
"hX c #F3E0B6",
"jX c #F4E2BB",
"kX c #CDD6CC",
"lX c #D4E2D5",
"zX c #F4E7CB",
"xX c #F4E8CC",
"cX c #F4E5C3",
"vX c #EFE3C7",
"bX c #E6EBE6",
/* pixels */
"dXdXhXjXcXxXxXxXzXxXxXzXuX' zXzXzXxXxXxXxXxXxXxXxXzXxXxXxXxXzXzXxXxXxXxXxXxXxXxX4 iXxXxXxXxXxXxXxXxX",
"0X0XqXqXsXdXhXjXcXzXzXgX{ n.zXzXxXxXzXxXzXcXjXjXfXaXaXaXaXaXdXfXhXhXjXjXjXvXcXvX4 ;XxXxXxXxXxXxXxXxX",
"9X3X3X9X9X0X0XqXsXdXaX+X_.o.gXjXjXjXfXfXdXdX1X.XE.- # - - - _.'.qXsXsXsXdXdXdXrX..:XrXhXhXhXhXhXjXhX",
"9X3X3X9X8X9X8X8X4X4X3X!.%X'.[ 1XsXsX0X0X9X'.} i Q l.z.z.z.l.p i j.,X9X8X8X8X+X( '.7X`.0XqXsXqXqXsX0X",
"7X7X8X7X8X8X=X*X&X&X&X!.*X4X!.! ~ W.9X3X~ j.p.z.z.z.z.z.z. X Xc.Q ~ `.4X! ~ k.~.3X2X_.7X9X9X9X9X9X9X",
"&X=X=X=X=X*X$X@X@X@X@X!.#X=X=X%X,XW.5 # Q l.g.z.z.z.z.z.z.c. X.X.Xl.E ~ XXoX+X&XOXXXW.3X9X9X9X9X9X9X",
"}.OX#X#X@XoX}.].Q.T.Q.~.( @X$X*X4X4X_.E l.z.z.z.z.g.z.z.z.z.z.z. X.Xc.( OX*X&X&XoX( !.*X9X9X9X9X9X9X",
"R.T.[.}.].T.f.s.u.0.0.f.K a.OX#X*X%X( x.x.z.z.z.z.z.z.z.z.z.z.z.z.c. Xj.( *X&X#Xk.c.&X*X5X9X9X9X9X9X",
"t.u.d.R.w.9.8.9.9.w.w.9.s.,.i ~.XXT ` [ [ [ [ [ Q } ! ! ~ [ [ [ [ [ [ [ 5 oXXXE ~.&X&X*X=X8X8X9X9X7X",
"R.e.8.8.w.r.r.r.R.r.r.e.t.9.5.w X O.#.#.#.$.#.#.#.%.#.%.%.#.#.#.#.#.#.#.O.3 T oX$X$X&X&X=X=X5X8X9X9X",
"r.r.r.r.r.y.y.y.y.r.r.r.y.7.L 5.q @.$.$.#.O.@.$.%.%.%.$.$.$.$.O.*.$.$.&.+.# T.a.[.|.@X$X*X*X=X4X5X4X",
"r.R.r.r.y.y.y.y.y.r.r.r.y.C g C o @.$.#.#.4 4 ] @.$.$.$.&.' ]   @.$.%.$.@.# I % s.R.].|.@X$X$X=X*X*X",
"r.r.y.y.y.y.y.r.r.r.y.y.y.I J.M v ) X.X.U. .2 . $ ) P.P.2 . 2 ) X.X.X.| 2 n M v 9.0.s.f.].|.@X#X&X&X",
"r.r.y.y.y.y.y.r.r.r.r.r.R.H C.S.M.J.L.J.K.K.V.N b j J.C.& N G.J.K.K.J.J.V.S.S.j u.t.9.0.d.f.Q.[.|.|.",
"r.r.y.y.y.y.y.r.e.r.r.r.r.2.N z z C.Z.S.H.C.V . v H.Z.Z.G.. j Z.C.H.J.C.F.z N > y.y.r.t.9.8.0.f.R.T.",
"r.r.y.y.y.y.y.y.r.r.r.r.r.r.C M z M.C.C.Z.Z.M V N.Z.Z.C.M.V m C.C.Z.C.C.z z N K r.y.r.r.r.t.w.8.8.5.",
"y.y.y.y.r.r.r.r.y.y.y.y.r.r.6.j N.A.S.C.C.C.Z.H.J.L.M.C.J.H.H.C.Z.S.Z.Z.z N.> e.R.r.r.r.y.y.r.r.t.t.",
"r.y.y.y.r.r.r.r.y.y.y.y.r.r.R.F $ v N.C.C.C.S. .lXlXkXlXkX>Xj C.Z.C.Z.M.m d H r.r.r.r.r.r.r.y.y.y.y.",
"r.r.y.y.r.r.r.r.y.y.y.y.r.r.R.r.5.7 : C.C.C.G.2 @.+.< +.< &.j Z.S.Z.C.l 7 5.w.e.r.r.r.r.r.r.r.y.y.y.",
"r.r.y.y.y.y.r.r.y.y.r.r.r.r.y.t.9.w.P x C.S.J.% O.' < '   +.V Z.Z.Z.n K w.9.7.9.w.r.r.r.r.y.y.y.y.y.",
"r.r.y.y.r.R.r.r.r.e.e.e.r.r.t.9.8.7.7.C N S.C.) <XbXlXbXlX>X) Z.C.m J 9.9.7.7.7.9.w.r.r.r.r.y.y.t.w.",
"r.y.y.y.r.r.r.w.9.9.3.w.r.r.r.9.7.7.9.9.r k N.C.P.L.L.L.L.L.H.N.k r 9.9.7.7.7.7.3.9.w.r.r.r.r.r.t.w.",
"r.r.y.y.r.e.9.7.9.3.9.9.9.r.r.w.8.7.9.e.r.K d N H.C.C.A.S.S.M d K r.w.7.7.7.7.7.3.4.w.r.r.r.r.r.y.r.",
"e.r.r.r.9.9.8.8.7.3.9.3.9.9.e.t.w.w.t.r.y.y.7.$ % s % s j % & J w.w.7.7.7.9.8.7.8.8.8.w.r.r.r.r.y.y.",
"9.9.9.9.8.7.7.7.7.7.7.8.7.8.9.t.r.y.5.* * = ; V M M m m N M v o = * o 0 7.7.7.7.7.7.7.8.w.e.e.y.y.y.",
"3.7.7.4.7.7.7.7.7.7.4.4.4.7.7.9.u.5.,.5 tXtXtX) C.H.Z.C.Z.A.G.).rX<X, & K 7.7.7.7.7.7.7.7.7.w.w.e.w.",
"8.8.8.8.7.7.7.7.7.7.2.1.1.7.7.4.K j m -XiXiXyX).M.C.C.C.Z.) | tXuX:Xo.N g C 4.7.7.7.7.7.7.7.7.7.7.9.",
"8.9.w.9.7.7.7.7.7.7.1.<.1.3.7.F h B.M eXiXiXyXeXl G.C.C.H.) :XyXuX(.E./ C.v r 7.7.7.7.7.7.7.7.7.7.7.",
"7.7.9.7.7.7.7.7.7.7.4.2.2.7.:.k M.Z.n eXiXiXiXpX>Xg G.G.v ).pXpXeX/.E.l S.C.n H 7.7.7.7.7.7.7.7.7.7.",
"7.7.7.7.7.7.7.7.7.7.7.4.7.5.w L.Z.Z.| iXyXiXiXiXyX:X2 3 *.pXyXyXeXE.E.k Z.C.K.$ >.>.2.7.7.4.7.7.7.3.",
"7.7.7.7.7.7.7.7.7.4.7.7.7.,.j Z.Z.C.| iXiXyXyXyXyXyXiXyXpXiXyXyX>XE.^.h Z.S.Z.N F >.2.7.7.7.7.7.3.2.",
"7.7.7.7.7.7.7.7.7.7.4.7.4.J J.C.C.C.| iXiXyXyXyXyXyXiXyXiXiXiXpX(.^.^.j S.Z.J.S.C >.5.7.7.7.7.7.7.7.",
"7.7.2.2.7.7.7.7.7.7.7.>.7.I C.S.C.S.| rXiXiXiXiXyXyXyXiXyXyXyX;XE.E.E.l C.H.C.Z.I 7.7.7.7.7.4.3.7.7.",
">.>.>.>.>.7.7.7.7.>.>.>.:.k C.C.S.A.| yXyXyXyXyXyXyXiXiXyXyXeXE.E.E.E.l S.H.C.Z.N H 7.7.7.7.2.>.>.7.",
">.;.;.;.>.2.7.7.2.>.;.;.> H.S.C.C.M.Y iXiXiXiXiXiXiXyXiXyXeX(.E.E.E.E.Y V.Z.Z.Z.S.d 7.7.7.7.<.>.>.>.",
">.;.;.;.>.>.7.7.>.>.>.:.k C.C.C.S.s 4 iXyXiXiXyXyXiXyXiXrX:XE.E.E.E.^.I : S.Z.S.C.N H 3.4.7.3.>.>.7.",
">.>.;.;.>.7.7.>.<.1.<.J B.S.S.S.g F ` iXyXyXiXyXiXyXrXrX(.^.E.E.E.E.E._ H g S.S.A.D.Z <.2.7.4.3.>.7.",
"2.>.>.>.>.2.2.>.<.2.2.J S.A.A.M H :.O.rXyXiXiXyXiXiXeX(.E.E.E.E.E.E.E._ :.A V S.S.A.I >.>.2.3.3.7.2.",
"7.7.2.7.7.>.>.;.;.<.<.Z C.Z.A.C <.:.+.iXiXiXiXiXiXeX(.E.E.E.^.^.E.E.E._ =.;.= M.C.A.d <.>.;.>.<.>.>.",
"2.2.>.>.;.;.>.;.;.;.>.I K.Z.N S ;.=.+.iXiXyXiXpX;X).E.E.E.E.E.E.E.E.E._ D -.A n S.S.d 1.>.>.;.;.;.;.",
">.>.>.>.;.>.;.-.;.;.;.h S.S.d -.;.G +.iXiXpX:X/.E.E.^.^.E.E.E.E.^.^.^.` G ;.-.d S.C.k 1.;.;.;.-.;.;.",
";.;.;.;.;.;.;.;.-.;.-.d B.J.  S -.D o.:X:X/.^.^.E.E.E.E.E.E.E.E.E.Y.^._ =.;.S o J.Z.d >.;.;.;.;.;.;.",
";.;.;.;.-.;.;.;.;.;.;.d C.G.o A ;.G 5 U U h i U h i I U U i U U h U i 2 :.>.y A G.Z.d -.;.;.;.;.;.;.",
";.;.;.;.>.>.;.;.;.;.;.= $ g - 8 ;.-.A 7 Q i.Q Q W Q W W W Q W t # # 6 A >.<.8 8 : % * -.;.;.;.;.;.;.",
";.;.<.1.2.<.;.;.;.;.-.A F o A S ;.>.1.y z.z.z.z.x.z.z.z.z.z.z.l.q + 8 ;.;.;.-.= 8 S y ;.;.;.;.;.=.;.",
";.;.;.2.3.>.;.;.;.;.;.-.= 9 8 -.;.;.>.y l.z.z.z.x.z.z.z.z.z.z.z.u + 8 ;.;.;.;.;.9 6 ;.;.;.;.-.-.D =.",
";.;.;.1.<.;.;.;.;.;.;.;.;.-.-.;.;.;.;.y l.x.z.z.z.z.z.z.z.z.z.z.R + 6 =.=.-.;.;.-.-.;.;.;.;.;.=.D S ",
";.;.;.-.;.;.;.;.;.-.;.;.-.-.=.-.-.-.;.9 l.x.z.z.x.x.w i z.z.z.z.p.+ 6 D D =.-.;.-.;.-.;.;.;.-.-.=.=.",
";.;.;.;.;.;.;.;.;.;.;.;.=.=.D D =.=.-.y x.x.z.z.z.z.b.n.x.x.z.z.p.O 6 D D G -.-.;.;.;.;.;.;.;.;.;.=.",
";.;.;.;.;.-.;.>.;.;.;.=.D S S S S D =.9 x.x.z.x.z.z.v.v.x.z.z.z.p.O 6 D D =.-.;.;.;.;.;.;.;.;.;.;.;.",
";.;.;.;.;.;.;.;.;.;.=.=.S S S S S D =.y z.z.g.z.z.z.v.b.x.z.z.z.g.O 6 =.=.-.;.;.;.;.;.;.;.;.;.;.;.;.",
"-.;.;.;.;.;.;.;.;.;.;.=.S S S S S D =.9 x.z.z.z.z.x.v.b.x.z.z.z.p.+ 8 ;.-.;.;.;.;.;.;.;.;.;.;.;.;.;.",
"-.;.;.>.;.;.;.;.;.;.;.=.=.S S S S G -.9 x.z.z.z.z.z.E ^ z.z.z.z.R + 8 ;.;.;.;.;.;.;.;.;.;.;.;.;.;.;.",
";.;.;.;.;.>.;.;.;.;.;.;.=.D D D G =.-.9 x.x.z.z.z.z.e e z.z.g.g.p + 8 ;.;.;.;.;.;.;.;.;.;.;.;.;.;.;.",
";.;.;.;.;.;.;.;.;.;.;.;.=.=.=.=.-.-.-.y z.z.g.z.z.z.C y z.z.g.z.t + 8 ;.;.;.;.;.;.;.;.;.;.;.;.;.;.;.",
";.;.;.;.;.;.;.;.;.;.;.;.;.;.;.;.-.;.;.9 z.z.z.z.z.z.u u z.z.g.i.a + 8 -.;.;.;.;.;.;.;.;.;.;.;.;.;.;.",
";.;.;.;.;.;.;.;.;.;.;.;.;.;.;.;.;.;.;.y l.x.z.z.z.l.e e l.z.g.p O O 8 -.;.-.;.;.;.;.;.;.;.;.;.;.;.;.",
";.;.;.;.;.;.;.;.;.;.;.;.;.;.;.;.;.;.-.y j.p p p p p q e c.h.q X X X = A ;.;.;.;.;.;.;.;.;.;.;.;.;.;.",
";.;.;.;.;.;.;.;.;.;.;.;.;.;.;.;.-.-.;.8 > c v x x x h e x.> v c x b x k A ;.;.;.;.;.;.;.;.;.;.;.;.;.",
";.;.;.;.;.;.;.;.;.;.;.;.;.;.;.;.;.-.-.A B m.m.m.m.m./ ; ; I / / / / / / r ;.;.;.;.;.;.;.;.;.;.;.;.;.",
";.;.;.;.;.>.;.;.;.;.;.;.;.;.;.;.;.;.;.;.-.;.;.;.;.;.;.-.;.;.-.;.>.>.;.;.;.;.;.;.;.;.;.;.;.;.;.;.;.;."
};
