/* XPM */
static char *result[] = {
/* columns rows colors chars-per-pixel */
"50 50 240 2 ",
"   c #030202",
".  c #0C0501",
"X  c #0C0906",
"o  c #0B0B0A",
"O  c #130601",
"+  c #140B02",
"@  c #1A0C02",
"#  c #0E100C",
"$  c #1C1104",
"%  c #12110D",
"&  c #191409",
"*  c #131312",
"=  c #1A1916",
"-  c #151919",
";  c #1D1C19",
":  c #210C02",
">  c #241304",
",  c #2A1807",
"<  c #321804",
"1  c #3B1D04",
"2  c #321C0A",
"3  c #241F18",
"4  c #3B2402",
"5  c #3D2905",
"6  c #372109",
"7  c #2B2415",
"8  c #22211D",
"9  c #372714",
"0  c #1C2D34",
"q  c #242321",
"w  c #2B2A26",
"e  c #2D2C29",
"r  c #302E2A",
"t  c #373124",
"y  c #33322D",
"u  c #363531",
"i  c #383733",
"p  c #3B3A35",
"a  c #3F3E38",
"s  c #482606",
"d  c #442B02",
"f  c #562B06",
"g  c #4D3207",
"h  c #583604",
"j  c #442A12",
"k  c #482C14",
"l  c #4E3213",
"z  c #4D3918",
"x  c #573515",
"c  c #543419",
"v  c #5D3B1D",
"b  c #663708",
"n  c #733C0A",
"m  c #623D1D",
"M  c #463B27",
"N  c #553C21",
"B  c #413C34",
"V  c #403F3A",
"C  c #633F20",
"Z  c #5C401F",
"A  c #664204",
"S  c #6B4504",
"D  c #6D4907",
"F  c #774A07",
"G  c #794E01",
"H  c #7D5101",
"J  c #7C520C",
"K  c #64401F",
"L  c #7A4315",
"P  c #795311",
"I  c #4D432C",
"U  c #564428",
"Y  c #43423E",
"T  c #4A463B",
"R  c #5A4D36",
"E  c #5F533A",
"W  c #684625",
"Q  c #734B25",
"!  c #774B24",
"~  c #6E532E",
"^  c #7C5229",
"/  c #785428",
"(  c #665739",
")  c #6F603E",
"_  c #2F4754",
"`  c #53534C",
"'  c #665E45",
"]  c #5F624A",
"[  c #7B6945",
"{  c #73684E",
"}  c #686753",
"|  c #476B7D",
" . c #797772",
".. c #884A07",
"X. c #934D0C",
"o. c #845500",
"O. c #895700",
"+. c #8C5A00",
"@. c #875A0B",
"#. c #915E00",
"$. c #975608",
"%. c #854411",
"&. c #8A4B14",
"*. c #A6590B",
"=. c #B25F0B",
"-. c #956202",
";. c #9A6504",
":. c #9E6807",
">. c #92610C",
",. c #9A670C",
"<. c #9E690B",
"1. c #AB6705",
"2. c #A36C0C",
"3. c #B9630C",
"4. c #AB720D",
"5. c #B4790E",
"6. c #B87A0E",
"7. c #AA6D18",
"8. c #A77216",
"9. c #AB7412",
"0. c #B57A11",
"q. c #B47813",
"w. c #BD7E11",
"e. c #814E23",
"r. c #875426",
"t. c #82552A",
"y. c #855A2D",
"u. c #8B5C2D",
"i. c #9D5C21",
"p. c #925E2D",
"a. c #8B5F31",
"s. c #915F30",
"d. c #90602E",
"f. c #9C642C",
"g. c #8E6132",
"h. c #936432",
"j. c #996A37",
"k. c #A3652D",
"l. c #AA6A31",
"z. c #B87636",
"x. c #C56A0C",
"c. c #C86B0C",
"v. c #C7710D",
"b. c #C97519",
"n. c #C77D39",
"m. c #C57C3B",
"M. c #876D44",
"N. c #88754C",
"B. c #937B4F",
"V. c #8E7B51",
"C. c #AE7C43",
"Z. c #7D836A",
"A. c #BF8011",
"S. c #BE8118",
"D. c #B8852E",
"F. c #B88734",
"G. c #C18319",
"H. c #CE813C",
"J. c #D4843E",
"K. c #CF9030",
"L. c #C4913A",
"P. c #E1993E",
"I. c #9D8658",
"U. c #A48A5A",
"Y. c #B08C58",
"T. c #888678",
"R. c #989276",
"E. c #A79264",
"W. c #AA9363",
"Q. c #A7946B",
"!. c #B69C69",
"~. c #BDA26D",
"^. c #B6A77C",
"/. c #DB8B43",
"(. c #C7984B",
"). c #D0934C",
"_. c #E49247",
"`. c #E99244",
"'. c #E7954A",
"]. c #F39947",
"[. c #F49A4A",
"{. c #D4A557",
"}. c #E9AF55",
"|. c #F5A454",
" X c #F6AA5C",
".X c #CC9E60",
"XX c #C8A468",
"oX c #DAAE67",
"OX c #DDB268",
"+X c #C5AA73",
"@X c #CEB178",
"#X c #D3B479",
"$X c #DAB97B",
"%X c #EEAD63",
"&X c #E3B66A",
"*X c #F6B769",
"=X c #E9BC73",
"-X c #E4BC79",
";X c #F7BC72",
":X c #EAC077",
">X c #EDC37B",
",X c #F8C676",
"<X c #47728E",
"1X c #6792AA",
"2X c #649EC4",
"3X c #9A9A82",
"4X c #B6AA90",
"5X c #CFB683",
"6X c #CBB589",
"7X c #C6BDA8",
"8X c #DEC185",
"9X c #DAC496",
"0X c #E9C785",
"qX c #EDCD89",
"wX c #F0C983",
"eX c #F6CE87",
"rX c #EFD08E",
"tX c #F2D28E",
"yX c #FBD48C",
"uX c #FDD88F",
"iX c #EFCF94",
"pX c #F2D594",
"aX c #FBD790",
"sX c #FDD992",
"dX c #F2D799",
"fX c #F7DA9C",
"gX c #D5DBB8",
"hX c #EDD7AC",
"jX c #F2DBA4",
"kX c #F5DDA9",
"lX c #EDDCB5",
"zX c #FBE3AE",
"xX c #F8E3B6",
"cX c #F3E2BB",
"vX c #E7DDC4",
"bX c #E7E9C3",
"nX c #F3E5C4",
"mX c #F5E7C9",
"MX c #F4E9CD",
"NX c #FAF8DE",
/* pixels */
"MXMXMXMXMXMXMXMXMXMXMXMXMXMXMXMXgX3X} V u u Y  .7XT.  ` 7XMXMXvXMXMXMXmXMXMXMXmXmXnXcXhXkXjXpXpX:XL.",
"cXxXcXnXmXmXmXMXMXMXmXmXmXmXnXcXxXhX6X{ - i i w & 3 w     T.nXV nXmXcXhXnXnXcXxXjXjXdXpXpXpXpXqX{.S.",
"pXdXdXdXjXjXjXkXkXhXjXjXdXdXpXpXpXdXdXiX!.# p Y V i *   i o T   Q.lXpX-XiXiXpXpXpXpXtX0XpXpXqXOXK.A.",
"pXpXpXpXpXpXdXpXpXpXpXqXqXqXqXwXqXE.r = 8 = 3 Y u %     ; V   3 ' pXwX>X-X>X>XwXrXpXpXqXpXqXOXL.A.A.",
"tXtXpXpXpXpXpXpXpXpX>XoX&X>X>X>XXXN.I     * B w 8 u     * a V w % ( XX&X&X&X}.&X=XwXwX0X>XoXL.S.A.A.",
">XwXtXrXpXpXpXpXpXrX:XoX&X>X>X>X>X>X[     r 3 q Y i > >     V p 8   + [ F.D.F.Y.{.&X&X&X{.D.w.w.A.A.",
">X>X>X>X0XpXpXpXpXwX>X=X>X>X>X>X;XM.9 & ` 4XY vXNXbX' |.z.* r ` i & F.8.9.9.4.8.8.F.F.F.q.q.A.w.A.A.",
">XoX[ ( ) 0XpXtXeX>X>X>X=X=X=X=X-X!.$X7  .3X` <XZ.bX} *X].N a p Y * P 5.6.w.w.5.q.8.8.q.q.w.w.G.A.A.",
"U.9 j.f.h.U $X>X>X:X=X&X{..X(.W T } E 7 T 3XY o Z.gX' *X].v Y Y Y y 5 A.A.A.A.w.w.w.6.w.A.A.A.A.A.A.",
"j / d.a.Q y.N #X=XoX(.D.8.8.P ( zXxXfXqX!.^.V.} R.] Y.j.~ 7 8 ; 8 u o A.A.A.w.A.w.w.w.A.A.A.A.A.A.A.",
"9 ! d.d.y.^ t.N Y.D.8.4.9.q.g I.sXsXsXsXsXsXsX%X^ E B V Y Y Y Y a 8   4.A.w.w.w.w.w.A.w.w.A.A.A.w.A.",
"6 Q d.d.s.h.^ s.h 9.5.w.w.w.g ( uXsXsXsXsXaX;X[.f.e Y Y Y Y p y 8 % X 5 w.w.5.w.w.A.w.w.A.w.A.A.w.A.",
"2 C h.u.p.s.u.t.y.P A.A.A.w.@.  F. X X X|.].]./., V Y Y Y Y Y Y y 8 X g <.A.5.A.w.G.w.w.w.w.w.b.A.A.",
"d c a.p.h.p.y.t.u.v 9.A.w.w.$ o X ! /.].].`.k.& r Y Y Y Y Y Y i i y y % @.A.A.A.A.w.G.w.w.w.0.w.w.A.",
"@.9 C j.s.d.u.^ / Q S w.w.8.+ o p *   + & X * i e Y Y Y Y Y Y a y r o = $ A.A.A.A.A.w.w.w.4.4.0.A.A.",
"A.5 c Q h.u.u.! t.h.l w.w.<.A q Y p ` V u r e * u Y Y Y Y p 8 a i y * +   d 2.A.A.A.v.w.0.5.5.w.w.A.",
"A.$.2 c W y.p.^ t.g.Q @.4.2.g y r a a Y Y r e p Y Y V Y ` Y 8 e y y y . b b @ J w.w.w.b.w.w.w.w.w.w.",
"w.w.g k v m t.s.^ y.g.h 2.2.g q o ` Y Y Y Y Y Y Y Y V p u p a 3 y y y X b O k @ F w.w.A.w.w.6.5.5.5.",
"2.4.2.2 l m m u.t.y.u.c ,.2.A     u a Y Y Y Y Y Y Y Y ` u u a r y q ; X @ N. X`.+ ,.A.w.w.5.4.2.2.2.",
"2.2.2.F 9 c C ^ p.t.u./ D 2.<.  o i u e Y Y Y Y Y Y Y p y y u u y *   . @ @XeX[.Q > q.0.5.4.2.2.2.2.",
"2.2.9.2.d k v C h.u.y.u.l 2.2.h + e y = p Y Y V p Y Y 8 y y y y r   < s 1 #XyX|.l.  @.2.2.2.2.2.2.2.",
"2.2.9.4.,.6 c W ^ h.u.y.N ,.2.,.D o ; w = V Y u y V i = y y ; y % h ..=.F [ sX|.m.O g 2.2.2.2.2.2.2.",
"4.2.2.2.2.J 6 v W h.d.g./ A <.;.#.d   X r q u y y u ; r y =   ; 9 }.c.c.3.M sX XJ.< > 9.2.2.2.2.2.2.",
"2.2.2.2.2.2.h k m ^ h.h.^ g ;.+.#.;.5   * y y y y r e y 3     7 &X,Xb.c.x.N sX|.J.< < #.2.2.2.2.2.9.",
"2.2.2.2.:.:.2.6 c C g.h.g.l +.#.#.-.2.@.> # y t y y t % > 9 f v.b.=.c.c.c.W sX|.m.f s S 2.:.-.-.2.2.",
"2.2.2.2.:.:.2.@.2 v W h.h.Q A ;.;.2.2.,.$.f   ; e =   f 3.*.*X*X..c.c.c.v.L aX Xm.x b g 2.2.-.-.2.2.",
"2.2.2.2.2.2.2.2.A 9 v Q h.t.l 2.2.2.2.H c.c.*.s O f *.c.c.c.P.f.1.c.=.b ~ XXaXsX|.p.b < 2.2.:.:.2.2.",
"2.8.2.2.2.;.#.-.2.6 l v / a.c >.2.2.2.F c.c.v.v.n c.x.c.c.1.S 2.c.b 7 6XkXsXsXyX[.j n > -.:.2.2.2.2.",
"2.2.2.2.2.-.#.#.<.>.< c m g.W / P <.<.J P.v.c.c.$.=.x.*.X.+.v.c.f N kXfXsXsXsX%X`.: &.: O.:.2.2.2.2.",
"#.-.;.2.2.;.-.2.2.:.A 6 v ^ v eX~.7 R u.,XP.c.c.c.$.x.c.x.c.c.X.3 hXsXsXqXiXaX[.n.: %.1 G :.2.:.;.-.",
"#.+.#.#.-.2.2.2.:.-.+.d k c 9 ;XsX7 M.&.*XP.c.c.c.c.c.c.c.c.x.: 6XsXsXsX0X' M.`.z.> i.1 S 2.:.-.+.+.",
"+.+.+.#.#.#.#.#.+.-.-.4 M !.R C.yXI 9 %.i.7.c.c.c.c.c.c.c.c...R kXaX8XW.yXyX(.v p.1 m.f A 2.-.+.+.+.",
"+.+.+.#.#.+.#.+.+.#.D Z ,X;X).> M.2 2 %.s %.X.x.x.c.c.c.c.c.1 6XsXsXsX!.( qX X`.m x %.f f -.#.#.#.#.",
"+.+.#.;.#.+.O.+.O.#.H > l.z.p.9 M U.j 6 2 n %.%.&.*.=.x.c.b.M fXsXsXsXsX@XI z.].1 b %.f g +.+.;.-.+.",
"+.#.+.#.#.+.+.+.+.#.+.b 1 , M.oX;X X9 h.s.s %.%.b %.%.%.&.C.E.aX8X$XB.+XuX/.k J.O n n b d +.+.-.-.+.",
"+.+.+.+.+.+.+.+.+.+.+.+.O.s /./.k.x M W j , %.1 O %.%.n t.B.qXsXsX[ +X[ U l.].k., %.  1 5 +.+.+.+.+.",
"+.+.+.+.O.O.O.O.+.+.+.+.+.A > . z U. X^ U.) 1 .   x s R.tXaXsXsXsXtXR B.`.n.`.2 s b +   5 +.+.+.+.+.",
"+.+.+.+.O.G o.O.O.+.+.+.O.+.+.g H.H.L I *Xm.  | <XO 6XsXaXaXsXsXsXsX;Xk.L n.r.  O 1 b b d +.+.+.#.+.",
"+.+.+.O.o.G o.O.O.+.+.+.+.O.O.F @   E.'./.9 <X1X_ 4XyXaXsXsXsXaXaX*X].].].l.O 4 $ . O.+.o.+.+.+.+.+.",
"+.O.+.O.O.O.O.O.+.+.+.+.O.O.o.G b o -X[.`./.` 2X_ 7XyXyXsXsXsXyX X].].].l.X . F d h +.+.O.+.+.+.+.+.",
"+.+.+.+.+.O.+.+.+.+.+.#.+.+.o.G H h K '.[.].`.M <Xt tXuXsXsXeX|.].].].l.6 0 4 +.H +.+.+.+.+.O.O.+.+.",
"+.+.+.+.+.+.+.+.+.+.+.+.+.+.+.o.O.P eXuX;X_.].n.- M yX;X;X X].].].].n.x _.2 S +.+.+.O.+.O.O.H H O.+.",
"+.+.+.o.o.+.+.#.+.+.+.+.+.+.+.+.+.~ +XW.E.(.].].> .X|.].].[.].].[.n.2 m.]./.2 o.+.+.+.+.O.H G G o.+.",
"+.+.+.H o.+.+.+.#.+.+.+.+.+.+.+.O.[ $XW.$X,XJ.].2 e.l.m l f.l < x & N.|.].].i.d +.+.+.#.+.o.G H O.+.",
"+.+.+.+.+.+.+.+.+.+.+.+.+.+.+.+.O.{ aX#XE.E._.]./.  4 b A d A ( @XpX$X-X[.[.'., o.+.+.+.+.O.O.O.+.+.",
"+.+.+.+.+.+.+.+.+.+.+.+.+.+.+.+.o.' dX8X~.#X X].].2 o.O.+.+.+.R iXW.XX5X).].[.e.h +.+.+.+.+.+.+.+.+.",
"+.+.+.+.+.+.+.+.O.+.O.+.+.+.+.+.O.I kX8XtXeX].].].k G +.+.+.+.5 jX@X+X+X|.].].F.> +.+.+.+.+.O.+.+.+.",
"+.O.+.O.+.+.+.+.+.+.+.+.+.+.O.+.F ^.fXsXsXuX|.].].e.A +.+.O.+.z 9XsXuXsX*X].].H., +.+.+.+.+.+.+.+.+.",
"+.#.#.+.+.+.+.+.+.+.+.+.+.O.5 ( ~.sXsXsXsXaX X].].].! o.F 5 z @XaXaXsXsXeX].].]./.h #.+.+.+.+.+.+.+.",
"O.+.+.+.O.+.+.+.+.+.+.+.+.o.7 [ V.V.V.V.N.N.t.t.r.r.6 ] 0 V.+X8X#X#X#X#XXXn.n./.n.s +.+.+.+.+.+.#.+."
};
